SplineFontDB: 3.0
FontName: RiseStarHandRegular
FullName: RiseStarHand
FamilyName: RiseStarHand
Weight: Regular
Copyright: Created by Tharique Azeez - http://niram.org -- (c)2014 -- twitter @enathu
Version: 1.0
ItalicAngle: 0
UnderlinePosition: -100
UnderlineWidth: 50
Ascent: 800
Descent: 200
sfntRevision: 0x00010000
LayerCount: 2
Layer: 0 1 "Back"  1
Layer: 1 1 "Fore"  0
XUID: [1021 819 7990 17877]
UniqueID: 2147483647
UseUniqueID: 1
FSType: 0
OS2Version: 4
OS2_WeightWidthSlopeOnly: 0
OS2_UseTypoMetrics: 1
CreationTime: 1392023472
ModificationTime: 1392219792
PfmFamily: 17
TTFWeight: 500
TTFWidth: 5
LineGap: 90
VLineGap: 0
Panose: 2 0 6 3 0 0 0 0 0 0
OS2TypoAscent: 0
OS2TypoAOffset: 1
OS2TypoDescent: 0
OS2TypoDOffset: 1
OS2TypoLinegap: 90
OS2WinAscent: 0
OS2WinAOffset: 1
OS2WinDescent: 0
OS2WinDOffset: 1
HheadAscent: 0
HheadAOffset: 1
HheadDescent: 0
HheadDOffset: 1
OS2SubXSize: 650
OS2SubYSize: 700
OS2SubXOff: 0
OS2SubYOff: 140
OS2SupXSize: 650
OS2SupYSize: 700
OS2SupXOff: 0
OS2SupYOff: 480
OS2StrikeYSize: 49
OS2StrikeYPos: 258
OS2Vendor: 'PfEd'
OS2CodePages: 00000001.00000000
OS2UnicodeRanges: 80000001.00000000.00000000.00000000
MarkAttachClasses: 1
DEI: 91125
ShortTable: cvt  2
  33
  633
EndShort
ShortTable: maxp 16
  1
  0
  87
  177
  3
  0
  0
  2
  0
  1
  1
  0
  64
  46
  0
  0
EndShort

StartChar: .notdef
Encoding: 65536 -1 0
Width: 364
Flags: W
LayerCount: 2
Fore
SplineSet
33 0 m 1,0,-1
 33 666 l 1,1,-1
 298 666 l 1,2,-1
 298 0 l 1,3,-1
 33 0 l 1,0,-1
66 33 m 1,4,-1
 265 33 l 1,5,-1
 265 633 l 1,6,-1
 66 633 l 1,7,-1
 66 33 l 1,4,-1
EndSplineSet
EndChar

StartChar: exclam
Encoding: 33 33 4
Width: 185
Flags: W
LayerCount: 2
Fore
SplineSet
70 85 m 1,0,1
 64 90 64 90 63 98 c 128,-1,2
 62 106 62 106 67 113 c 0,3,4
 72 119 72 119 82 120 c 1,5,-1
 86 131 l 1,6,7
 90 139 90 139 97.5 142 c 128,-1,8
 105 145 105 145 112.5 141.5 c 128,-1,9
 120 138 120 138 123 130.5 c 128,-1,10
 126 123 126 123 123 115 c 2,11,-1
 117 102 l 2,12,13
 117 101 117 101 116 100 c 1,14,15
 129 89 129 89 135 81 c 0,16,17
 150 63 150 63 139 39 c 0,18,19
 130 20 130 20 111 13 c 0,20,21
 97 8 97 8 85 15.5 c 128,-1,22
 73 23 73 23 69 36 c 0,23,24
 64 55 64 55 69 81 c 0,25,26
 70 82 70 82 70 85 c 1,0,1
92 333 m 1,27,28
 100 371 100 371 107 415 c 0,29,30
 115 467 115 467 114 505 c 1,31,32
 112 541 112 541 95 573 c 0,33,34
 93 578 93 578 90 582 c 1,35,36
 87 574 87 574 84 565 c 0,37,38
 72 526 72 526 72 468 c 0,39,40
 72 409 72 409 89 342 c 0,41,42
 90 337 90 337 92 333 c 1,27,28
73 254 m 1,43,44
 69 266 69 266 66 278 c 0,45,46
 58 302 58 302 51 332 c 0,47,48
 32 404 32 404 32 468 c 256,49,50
 32 532 32 532 46 577 c 0,51,52
 47 581 47 581 49.5 589.5 c 128,-1,53
 52 598 52 598 53.5 601.5 c 128,-1,54
 55 605 55 605 58 611.5 c 128,-1,55
 61 618 61 618 63.5 621.5 c 128,-1,56
 66 625 66 625 70 628.5 c 128,-1,57
 74 632 74 632 80 634 c 1,58,59
 87 635 87 635 91.5 636 c 128,-1,60
 96 637 96 637 101.5 633 c 128,-1,61
 107 629 107 629 110 627 c 128,-1,62
 113 625 113 625 117 618.5 c 128,-1,63
 121 612 121 612 122.5 609 c 128,-1,64
 124 606 124 606 127 599.5 c 128,-1,65
 130 593 130 593 131 591 c 0,66,67
 151 551 151 551 154 507 c 0,68,69
 156 464 156 464 146 409 c 1,70,71
 138 355 138 355 127 309 c 0,72,73
 123 290 123 290 120 277 c 256,74,75
 117 264 117 264 115 256 c 1,76,77
 116 254 116 254 117 253 c 0,78,79
 120 245 120 245 123 238 c 2,80,-1
 141 200 l 2,81,82
 144 193 144 193 141 185 c 128,-1,83
 138 177 138 177 130.5 173.5 c 128,-1,84
 123 170 123 170 115.5 173 c 128,-1,85
 108 176 108 176 104 183 c 2,86,-1
 87 221 l 2,87,88
 86 222 86 222 85 224 c 1,89,90
 77 226 77 226 73.5 233.5 c 128,-1,91
 70 241 70 241 72 248 c 2,92,-1
 73 254 l 1,43,44
EndSplineSet
EndChar

StartChar: quotedbl
Encoding: 34 34 5
Width: 221
Flags: W
LayerCount: 2
Fore
SplineSet
129 596.5 m 128,-1,1
 134 603 134 603 142 604.5 c 128,-1,2
 150 606 150 606 157 601 c 2,3,-1
 170 593 l 1,4,5
 191 577 191 577 189 528 c 2,6,-1
 187 489 l 2,7,8
 187 481 187 481 181 475.5 c 128,-1,9
 175 470 175 470 166.5 470.5 c 128,-1,10
 158 471 158 471 152.5 477 c 128,-1,11
 147 483 147 483 147 491 c 2,12,-1
 149 530 l 2,13,14
 150 553 150 553 146 560 c 1,15,-1
 134 569 l 2,16,17
 127 574 127 574 125.5 582 c 128,-1,0
 124 590 124 590 129 596.5 c 128,-1,1
85 610 m 128,-1,19
 93 609 93 609 98.5 602.5 c 128,-1,20
 104 596 104 596 103 588 c 2,21,-1
 100 555 l 2,22,23
 97 516 97 516 81 493 c 1,24,-1
 69 474 l 1,25,26
 64 468 64 468 56 466 c 128,-1,27
 48 464 48 464 41 468.5 c 128,-1,28
 34 473 34 473 32.5 481.5 c 128,-1,29
 31 490 31 490 35 496 c 2,30,-1
 48 515 l 2,31,32
 58 530 58 530 60 558 c 2,33,-1
 63 592 l 2,34,35
 64 600 64 600 70.5 605.5 c 128,-1,18
 77 611 77 611 85 610 c 128,-1,19
EndSplineSet
EndChar

StartChar: numbersign
Encoding: 35 35 6
Width: 711
Flags: W
LayerCount: 2
Fore
SplineSet
32.5 162 m 128,-1,1
 31 170 31 170 35.5 177 c 128,-1,2
 40 184 40 184 48 185 c 2,3,-1
 77 191 l 2,4,5
 102 196 102 196 199 222 c 1,6,7
 199 225 199 225 200 228 c 0,8,9
 213 289 213 289 225 343 c 1,10,11
 203 342 203 342 183 341 c 0,12,13
 95 337 95 337 78 336 c 2,14,-1
 60 335 l 2,15,16
 52 335 52 335 46 340.5 c 128,-1,17
 40 346 40 346 39.5 354.5 c 128,-1,18
 39 363 39 363 45 369 c 128,-1,19
 51 375 51 375 59 375 c 2,20,-1
 76 376 l 2,21,22
 94 377 94 377 181 381 c 0,23,24
 206 382 206 382 233 384 c 1,25,26
 239 409 239 409 244 434 c 0,27,28
 265 525 265 525 276 575 c 2,29,-1
 288 626 l 2,30,31
 290 634 290 634 297 638 c 128,-1,32
 304 642 304 642 312 640.5 c 128,-1,33
 320 639 320 639 324.5 632 c 128,-1,34
 329 625 329 625 327 617 c 2,35,-1
 315 566 l 2,36,37
 304 516 304 516 283 425 c 0,38,39
 279 405 279 405 275 386 c 1,40,41
 313 388 313 388 357 391 c 1,42,43
 373 462 373 462 383 495 c 0,44,45
 400 548 400 548 404 558 c 2,46,-1
 408 566 l 2,47,48
 412 573 412 573 420 576 c 128,-1,49
 428 579 428 579 435.5 575.5 c 128,-1,50
 443 572 443 572 445.5 564 c 128,-1,51
 448 556 448 556 444 549 c 2,52,-1
 440 540 l 2,53,54
 437 533 437 533 421 483 c 0,55,56
 412 455 412 455 399 394 c 1,57,58
 400 394 400 394 402 394 c 0,59,60
 536 403 536 403 586 407 c 2,61,-1
 637 411 l 2,62,63
 645 411 645 411 651 405.5 c 128,-1,64
 657 400 657 400 658 392 c 128,-1,65
 659 384 659 384 653.5 377.5 c 128,-1,66
 648 371 648 371 639 371 c 2,67,-1
 589 367 l 2,68,69
 539 364 539 364 405 354 c 0,70,71
 399 354 399 354 390 353 c 1,72,73
 383 319 383 319 375 278 c 0,74,75
 374 271 374 271 373 264 c 1,76,77
 432 277 432 277 496 289 c 0,78,79
 639 315 639 315 648 316 c 2,80,-1
 657 317 l 2,81,82
 665 318 665 318 671.5 313 c 128,-1,83
 678 308 678 308 679 300 c 128,-1,84
 680 292 680 292 675 285.5 c 128,-1,85
 670 279 670 279 662 278 c 2,86,-1
 653 276 l 2,87,88
 644 275 644 275 503 250 c 1,89,90
 431 236 431 236 364 222 c 1,91,92
 343 110 343 110 333 62 c 2,93,-1
 320 3 l 2,94,95
 319 -5 319 -5 312 -9.5 c 128,-1,96
 305 -14 305 -14 297 -12.5 c 128,-1,97
 289 -11 289 -11 284 -4 c 128,-1,98
 279 3 279 3 281 11 c 2,99,-1
 293 70 l 1,100,101
 303 114 303 114 322 212 c 1,102,103
 279 202 279 202 238 191 c 0,104,105
 235 190 235 190 233 190 c 1,106,107
 214 101 214 101 210 68 c 2,108,-1
 206 29 l 2,109,110
 205 21 205 21 198.5 16 c 128,-1,111
 192 11 192 11 184 12 c 128,-1,112
 176 13 176 13 170.5 19.5 c 128,-1,113
 165 26 165 26 166 34 c 2,114,-1
 171 73 l 2,115,116
 174 104 174 104 189 178 c 1,117,118
 109 157 109 157 85 152 c 2,119,-1
 56 146 l 2,120,121
 48 144 48 144 41 149 c 128,-1,0
 34 154 34 154 32.5 162 c 128,-1,1
349 351 m 1,122,123
 304 348 304 348 266 346 c 1,124,125
 255 293 255 293 242 233 c 1,126,127
 285 245 285 245 330 255 c 1,128,129
 333 272 333 272 336 285 c 0,130,131
 343 321 343 321 349 351 c 1,122,123
EndSplineSet
EndChar

StartChar: ampersand
Encoding: 38 38 7
Width: 664
Flags: W
LayerCount: 2
Fore
SplineSet
295 124 m 1,0,1
 294 126 294 126 292 127 c 0,2,3
 243 184 243 184 188 245 c 0,4,5
 151 286 151 286 124 317 c 1,6,7
 116 306 116 306 109 295 c 0,8,9
 81 254 81 254 81 213 c 0,10,11
 81 173 81 173 108 143 c 0,12,13
 136 113 136 113 193 108 c 1,14,15
 248 102 248 102 295 124 c 1,0,1
124 377 m 1,16,17
 140 394 140 394 158 409 c 0,18,19
 204 448 204 448 232 480 c 0,20,21
 257 509 257 509 261.5 532 c 128,-1,22
 266 555 266 555 256 583 c 0,23,24
 248 608 248 608 225 619 c 1,25,26
 198 630 198 630 169 626 c 256,27,28
 140 622 140 622 112 595 c 256,29,30
 84 568 84 568 75 531 c 0,31,32
 66 495 66 495 82 453 c 1,33,34
 96 412 96 412 124 377 c 1,16,17
442 341 m 128,-1,36
 450 341 450 341 456 335 c 128,-1,37
 462 329 462 329 462 321 c 2,38,-1
 462 306 l 2,39,40
 462 290 462 290 455 255 c 0,41,42
 447 217 447 217 414 170 c 0,43,44
 392 139 392 139 360 116 c 1,45,46
 386 94 386 94 410 84 c 0,47,48
 442 71 442 71 478 109 c 1,49,50
 519 154 519 154 550 249 c 0,51,52
 583 347 583 347 588 367 c 2,53,-1
 593 389 l 2,54,55
 595 397 595 397 602 401 c 128,-1,56
 609 405 609 405 617 403.5 c 128,-1,57
 625 402 625 402 629.5 394.5 c 128,-1,58
 634 387 634 387 632 379 c 2,59,-1
 626 358 l 1,60,61
 621 336 621 336 588 236 c 0,62,63
 555 134 555 134 507 82 c 0,64,65
 453 24 453 24 395 47 c 0,66,67
 360 61 360 61 325 94 c 1,68,69
 323 93 323 93 320 91 c 0,70,71
 259 61 259 61 189 68 c 0,72,73
 117 75 117 75 78.5 116 c 128,-1,74
 40 157 40 157 41 213 c 0,75,76
 41 266 41 266 75 318 c 0,77,78
 86 333 86 333 97 347 c 1,79,80
 62 389 62 389 44 439 c 0,81,82
 25 493 25 493 36 541 c 1,83,84
 48 588 48 588 84 624 c 1,85,86
 121 659 121 659 163 665 c 0,87,88
 204 671 204 671 241 655 c 0,89,90
 280 637 280 637 294 596 c 0,91,92
 307 557 307 557 300.5 524 c 128,-1,93
 294 491 294 491 262 454 c 0,94,95
 232 420 232 420 184 378 c 0,96,97
 166 363 166 363 151 347 c 1,98,99
 179 315 179 315 218 272 c 0,100,101
 273 210 273 210 323 154 c 0,102,103
 327 149 327 149 331 144 c 1,104,105
 362 165 362 165 381 193 c 0,106,107
 410 234 410 234 416 262 c 0,108,109
 422 294 422 294 422 306 c 2,110,-1
 422 321 l 2,111,112
 422 329 422 329 428 335 c 128,-1,35
 434 341 434 341 442 341 c 128,-1,36
EndSplineSet
EndChar

StartChar: quotesingle
Encoding: 39 39 8
Width: 133
Flags: W
LayerCount: 2
Fore
SplineSet
43 635.5 m 128,-1,1
 50 639 50 639 58 636.5 c 128,-1,2
 66 634 66 634 70 627 c 2,3,-1
 86 594 l 2,4,5
 105 557 105 557 101 517 c 2,6,-1
 98 482 l 2,7,8
 97 474 97 474 90.5 468.5 c 128,-1,9
 84 463 84 463 76 464 c 128,-1,10
 68 465 68 465 62.5 471.5 c 128,-1,11
 57 478 57 478 58 486 c 2,12,-1
 61 520 l 2,13,14
 64 549 64 549 50 576 c 2,15,-1
 34 609 l 2,16,17
 30 616 30 616 33 624 c 128,-1,0
 36 632 36 632 43 635.5 c 128,-1,1
EndSplineSet
EndChar

StartChar: parenleft
Encoding: 40 40 9
Width: 340
Flags: W
LayerCount: 2
Fore
SplineSet
236 636.5 m 128,-1,1
 239 629 239 629 236 621.5 c 128,-1,2
 233 614 233 614 225 611 c 2,3,-1
 205 603 l 2,4,5
 190 597 190 597 157 559 c 1,6,7
 122 521 122 521 96 441 c 0,8,9
 69 360 69 360 72 268 c 0,10,11
 76 176 76 176 109 88 c 0,12,13
 141 3 141 3 210 -35 c 1,14,15
 275 -72 275 -72 287 -77 c 1,16,-1
 293 -78 l 2,17,18
 301 -80 301 -80 305.5 -87 c 128,-1,19
 310 -94 310 -94 308 -102 c 128,-1,20
 306 -110 306 -110 299 -114.5 c 128,-1,21
 292 -119 292 -119 284 -117 c 2,22,-1
 278 -116 l 2,23,24
 268 -114 268 -114 191 -70 c 1,25,26
 109 -25 109 -25 72 74 c 0,27,28
 36 168 36 168 32 267 c 0,29,30
 29 365 29 365 58 453 c 256,31,32
 87 541 87 541 127 586 c 256,33,34
 167 631 167 631 191 640 c 2,35,-1
 211 648 l 2,36,37
 218 651 218 651 225.5 647.5 c 128,-1,0
 233 644 233 644 236 636.5 c 128,-1,1
EndSplineSet
EndChar

StartChar: parenright
Encoding: 41 41 10
Width: 294
Flags: W
LayerCount: 2
Fore
SplineSet
35.5 671 m 128,-1,1
 40 678 40 678 48 680 c 128,-1,2
 56 682 56 682 63 677 c 2,3,-1
 100 653 l 2,4,5
 141 626 141 626 190 554 c 0,6,7
 241 480 241 480 258 337 c 0,8,9
 276 192 276 192 205 57 c 0,10,11
 135 -75 135 -75 102 -105 c 2,12,-1
 72 -133 l 2,13,14
 66 -139 66 -139 58 -138.5 c 128,-1,15
 50 -138 50 -138 44.5 -132.5 c 128,-1,16
 39 -127 39 -127 39 -118.5 c 128,-1,17
 39 -110 39 -110 45 -104 c 2,18,-1
 75 -76 l 2,19,20
 103 -50 103 -50 170 76 c 0,21,22
 235 199 235 199 219 332 c 0,23,24
 202 466 202 466 157 531 c 0,25,26
 112 597 112 597 78 619 c 2,27,-1
 41 644 l 2,28,29
 34 648 34 648 32.5 656 c 128,-1,0
 31 664 31 664 35.5 671 c 128,-1,1
EndSplineSet
EndChar

StartChar: plus
Encoding: 43 43 11
Width: 516
Flags: W
LayerCount: 2
Fore
SplineSet
32 289 m 128,-1,1
 33 297 33 297 39.5 302.5 c 128,-1,2
 46 308 46 308 54 307 c 1,3,-1
 63 307 l 1,4,5
 71 306 71 306 142 308 c 0,6,7
 170 309 170 309 204 310 c 1,8,9
 206 380 206 380 206 440 c 2,10,-1
 207 506 l 2,11,12
 207 514 207 514 212.5 520 c 128,-1,13
 218 526 218 526 226.5 526 c 128,-1,14
 235 526 235 526 241 520 c 128,-1,15
 247 514 247 514 247 506 c 2,16,-1
 246 439 l 2,17,18
 246 380 246 380 244 310 c 1,19,20
 281 310 281 310 322 310 c 0,21,22
 429 310 429 310 447 309 c 2,23,-1
 465 308 l 2,24,25
 473 308 473 308 479 302 c 128,-1,26
 485 296 485 296 484.5 287.5 c 128,-1,27
 484 279 484 279 478 273.5 c 128,-1,28
 472 268 472 268 463 268 c 2,29,-1
 446 269 l 2,30,31
 428 270 428 270 322 270 c 0,32,33
 280 270 280 270 243 270 c 1,34,35
 243 205 243 205 251 140 c 1,36,-1
 262 62 l 2,37,38
 263 54 263 54 258 47.5 c 128,-1,39
 253 41 253 41 245 40 c 128,-1,40
 237 39 237 39 230 44 c 128,-1,41
 223 49 223 49 222 57 c 2,42,-1
 212 135 l 2,43,44
 203 202 203 202 203 270 c 1,45,46
 171 269 171 269 143 268 c 0,47,48
 69 266 69 266 59 267 c 2,49,-1
 50 268 l 2,50,51
 42 268 42 268 36.5 274.5 c 128,-1,0
 31 281 31 281 32 289 c 128,-1,1
EndSplineSet
EndChar

StartChar: comma
Encoding: 44 44 12
Width: 173
Flags: W
LayerCount: 2
Fore
SplineSet
106 80 m 128,-1,1
 114 83 114 83 121.5 79.5 c 128,-1,2
 129 76 129 76 131 68 c 1,3,-1
 138 50 l 2,4,5
 147 25 147 25 135 -14 c 0,6,7
 123 -52 123 -52 91 -77 c 2,8,-1
 64 -98 l 2,9,10
 58 -103 58 -103 49.5 -102 c 128,-1,11
 41 -101 41 -101 36 -94.5 c 128,-1,12
 31 -88 31 -88 32 -79.5 c 128,-1,13
 33 -71 33 -71 40 -66 c 2,14,-1
 67 -45 l 2,15,16
 89 -28 89 -28 97 -2 c 256,17,18
 105 24 105 24 100 36 c 2,19,-1
 94 54 l 2,20,21
 91 62 91 62 94.5 69.5 c 128,-1,0
 98 77 98 77 106 80 c 128,-1,1
EndSplineSet
EndChar

StartChar: hyphen
Encoding: 45 45 13
Width: 429
Flags: W
LayerCount: 2
Fore
SplineSet
32 282 m 128,-1,1
 33 290 33 290 39.5 295.5 c 128,-1,2
 46 301 46 301 54 300 c 2,3,-1
 114 294 l 2,4,5
 173 288 173 288 275 285 c 2,6,-1
 378 281 l 2,7,8
 386 281 386 281 392 275 c 128,-1,9
 398 269 398 269 397.5 261 c 128,-1,10
 397 253 397 253 391 247 c 128,-1,11
 385 241 385 241 377 241 c 2,12,-1
 274 245 l 2,13,14
 171 248 171 248 110 254 c 2,15,-1
 50 260 l 2,16,17
 42 261 42 261 36.5 267.5 c 128,-1,0
 31 274 31 274 32 282 c 128,-1,1
EndSplineSet
EndChar

StartChar: period
Encoding: 46 46 14
Width: 106
Flags: W
LayerCount: 2
Fore
SplineSet
38 88.5 m 128,-1,1
 44 94 44 94 52 94 c 128,-1,2
 60 94 60 94 66 88 c 2,3,-1
 69 85 l 2,4,5
 75 79 75 79 75 71 c 128,-1,6
 75 63 75 63 69 57 c 128,-1,7
 63 51 63 51 55 51 c 128,-1,8
 47 51 47 51 41 57 c 2,9,-1
 38 60 l 2,10,11
 32 66 32 66 32 74.5 c 128,-1,0
 32 83 32 83 38 88.5 c 128,-1,1
EndSplineSet
EndChar

StartChar: slash
Encoding: 47 47 15
Width: 406
Flags: W
LayerCount: 2
Fore
SplineSet
363.5 610.5 m 128,-1,1
 371 607 371 607 373.5 599 c 128,-1,2
 376 591 376 591 373 584 c 2,3,-1
 341 519 l 2,4,5
 309 455 309 455 265.5 358.5 c 128,-1,6
 222 262 222 262 153.5 97 c 128,-1,7
 85 -68 85 -68 78 -86 c 2,8,-1
 70 -104 l 2,9,10
 67 -112 67 -112 59.5 -115 c 128,-1,11
 52 -118 52 -118 44.5 -115 c 128,-1,12
 37 -112 37 -112 33.5 -104.5 c 128,-1,13
 30 -97 30 -97 33 -89 c 2,14,-1
 41 -71 l 1,15,16
 48 -52 48 -52 117 112 c 1,17,18
 185 278 185 278 229 375 c 128,-1,19
 273 472 273 472 305 537 c 2,20,-1
 337 601 l 2,21,22
 340 609 340 609 348 611.5 c 128,-1,0
 356 614 356 614 363.5 610.5 c 128,-1,1
EndSplineSet
EndChar

StartChar: zero
Encoding: 48 48 16
Width: 522
Flags: W
LayerCount: 2
Fore
SplineSet
153 504 m 1,0,1
 152 498 152 498 151 489 c 1,2,3
 147 473 147 473 141 446 c 0,4,5
 131 400 131 400 132 330 c 1,6,7
 134 262 134 262 163 192 c 128,-1,8
 192 122 192 122 233 81 c 0,9,10
 269 44 269 44 318.5 49.5 c 128,-1,11
 368 55 368 55 405 118 c 1,12,13
 445 184 445 184 450 257 c 0,14,15
 455 331 455 331 437 401 c 0,16,17
 420 470 420 470 388 515 c 0,18,19
 359 556 359 556 319 563 c 0,20,21
 277 571 277 571 211 538 c 0,22,23
 183 525 183 525 160 509 c 0,24,25
 157 506 157 506 153 504 c 1,0,1
101 448 m 1,26,-1
 68 403 l 2,27,28
 63 397 63 397 55 395.5 c 128,-1,29
 47 394 47 394 40.5 399 c 128,-1,30
 34 404 34 404 32.5 412 c 128,-1,31
 31 420 31 420 36 427 c 2,32,-1
 74 480 l 2,33,34
 84 493 84 493 95 505 c 0,35,36
 105 515 105 515 116 525 c 1,37,38
 117 532 117 532 118 542 c 2,39,-1
 120 560 l 2,40,41
 121 569 121 569 127.5 574 c 128,-1,42
 134 579 134 579 142 578 c 0,43,44
 149 577 149 577 154.5 570.5 c 128,-1,45
 160 564 160 564 160 556 c 1,46,47
 176 566 176 566 193 574 c 0,48,49
 272 612 272 612 326 603 c 0,50,51
 382 593 382 593 421 538 c 0,52,53
 457 487 457 487 476 411 c 256,54,55
 495 335 495 335 490 254 c 0,56,57
 484 172 484 172 439 97 c 0,58,59
 392 18 392 18 323 10 c 128,-1,60
 254 2 254 2 204 53 c 0,61,62
 158 100 158 100 126 176.5 c 128,-1,63
 94 253 94 253 92 329 c 0,64,65
 91 399 91 399 101 448 c 1,26,-1
EndSplineSet
EndChar

StartChar: one
Encoding: 49 49 17
Width: 165
Flags: W
LayerCount: 2
Fore
SplineSet
51.5 659 m 128,-1,1
 60 659 60 659 66 653.5 c 128,-1,2
 72 648 72 648 72 640 c 2,3,-1
 72 627 l 1,4,5
 73 615 73 615 82 560 c 0,6,7
 93 497 93 497 101 438 c 0,8,9
 109 378 109 378 114 302 c 0,10,11
 118 226 118 226 122 169 c 0,12,13
 127 111 127 111 129 86 c 0,14,15
 132 59 132 59 133 39 c 0,16,17
 134 20 134 20 134 4 c 2,18,-1
 134 -11 l 2,19,20
 134 -19 134 -19 128 -25 c 128,-1,21
 122 -31 122 -31 113.5 -31 c 128,-1,22
 105 -31 105 -31 99.5 -25 c 128,-1,23
 94 -19 94 -19 94 -11 c 2,24,-1
 94 4 l 2,25,26
 94 19 94 19 93 38 c 256,27,28
 92 57 92 57 90 81 c 0,29,30
 87 107 87 107 82.5 165.5 c 128,-1,31
 78 224 78 224 74 300 c 0,32,33
 70 375 70 375 61 433 c 1,34,35
 53 492 53 492 43 550 c 0,36,37
 33 611 33 611 32 625 c 1,38,-1
 32 638 l 2,39,40
 32 647 32 647 37.5 653 c 128,-1,0
 43 659 43 659 51.5 659 c 128,-1,1
EndSplineSet
EndChar

StartChar: two
Encoding: 50 50 18
Width: 495
Flags: W
LayerCount: 2
Fore
SplineSet
56 385 m 128,-1,1
 48 384 48 384 41.5 389 c 128,-1,2
 35 394 35 394 34 402 c 2,3,-1
 32 411 l 1,4,5
 33 416 33 416 32 417 c 128,-1,6
 31 418 31 418 32.5 422.5 c 128,-1,7
 34 427 34 427 33.5 428 c 128,-1,8
 33 429 33 429 35 434 c 128,-1,9
 37 439 37 439 37 440.5 c 128,-1,10
 37 442 37 442 39.5 447.5 c 128,-1,11
 42 453 42 453 42.5 454.5 c 128,-1,12
 43 456 43 456 46 462 c 128,-1,13
 49 468 49 468 50 471 c 0,14,15
 69 514 69 514 123 560 c 0,16,17
 183 610 183 610 226 595 c 256,18,19
 269 580 269 580 286 515 c 0,20,21
 302 454 302 454 279 378 c 0,22,23
 256 304 256 304 206 227 c 0,24,25
 157 153 157 153 126 100 c 0,26,27
 102 59 102 59 93 42 c 1,28,29
 112 39 112 39 158 39 c 0,30,31
 220 39 220 39 288 48 c 1,32,33
 358 56 358 56 391 57 c 0,34,35
 427 59 427 59 439 55 c 1,36,-1
 449 53 l 2,37,38
 457 51 457 51 461 43.5 c 128,-1,39
 465 36 465 36 463 28 c 128,-1,40
 461 20 461 20 453.5 16 c 128,-1,41
 446 12 446 12 438 14 c 2,42,-1
 429 17 l 2,43,44
 422 19 422 19 393 17 c 1,45,46
 362 16 362 16 293 8 c 0,47,48
 222 -1 222 -1 158 -1 c 0,49,50
 93 -1 93 -1 74 5 c 0,51,52
 60 10 60 10 53.5 23 c 128,-1,53
 47 36 47 36 53 51 c 0,54,55
 60 66 60 66 92 121 c 0,56,57
 123 174 123 174 172 249 c 0,58,59
 219 321 219 321 240 390 c 1,60,61
 261 455 261 455 248 505 c 0,62,63
 236 549 236 549 213 557 c 0,64,65
 191 565 191 565 149 529 c 0,66,67
 102 490 102 490 86 455 c 1,68,69
 74 425 74 425 72 415 c 1,70,-1
 73 407 l 2,71,72
 74 399 74 399 69 392.5 c 128,-1,0
 64 386 64 386 56 385 c 128,-1,1
EndSplineSet
EndChar

StartChar: three
Encoding: 51 51 19
Width: 408
Flags: W
LayerCount: 2
Fore
SplineSet
43.5 484.5 m 128,-1,1
 36 488 36 488 33 496 c 128,-1,2
 30 504 30 504 34 511 c 2,3,-1
 40 524 l 2,4,5
 49 542 49 542 95 575 c 0,6,7
 142 609 142 609 197 607 c 1,8,9
 254 606 254 606 299 552 c 256,10,11
 344 498 344 498 329 428 c 0,12,13
 315 361 315 361 262 313 c 0,14,15
 258 309 258 309 253 305 c 1,16,17
 296 306 296 306 326 284 c 0,18,19
 363 256 363 256 374 205 c 256,20,21
 385 154 385 154 358 110 c 0,22,23
 332 67 332 67 261 39 c 0,24,25
 189 11 189 11 138 29 c 0,26,27
 86 48 86 48 66 96 c 2,28,-1
 50 136 l 1,29,30
 46 143 46 143 49.5 151 c 128,-1,31
 53 159 53 159 60.5 162 c 128,-1,32
 68 165 68 165 75.5 162 c 128,-1,33
 83 159 83 159 86 151 c 2,34,-1
 103 111 l 2,35,36
 116 80 116 80 152 67 c 0,37,38
 189 54 189 54 246 76 c 0,39,40
 305 99 305 99 324 131 c 0,41,42
 342 161 342 161 335 197 c 0,43,44
 327 233 327 233 302 251 c 0,45,46
 277 270 277 270 235 263 c 1,47,48
 235 263 235 263 191 272 c 1,49,50
 154 283 154 283 183 298 c 1,51,52
 192 304 192 304 235 343 c 128,-1,53
 278 382 278 382 290 436 c 0,54,55
 301 488 301 488 268 527 c 256,56,57
 235 566 235 566 195 567 c 0,58,59
 154 569 154 569 118 543 c 0,60,61
 81 516 81 516 76 507 c 2,62,-1
 70 494 l 2,63,64
 66 486 66 486 58.5 483.5 c 128,-1,0
 51 481 51 481 43.5 484.5 c 128,-1,1
EndSplineSet
EndChar

StartChar: four
Encoding: 52 52 20
Width: 505
Flags: W
LayerCount: 2
Fore
SplineSet
303 640 m 0,0,1
 314 629 314 629 307 616 c 1,2,3
 321 610 321 610 319 596 c 2,4,-1
 317 570 l 2,5,6
 315 544 315 544 311 483 c 0,7,8
 308 422 308 422 305 314 c 0,9,10
 305 279 305 279 305 247 c 1,11,12
 309 248 309 248 313 248 c 0,13,14
 353 253 353 253 397 276 c 2,15,-1
 444 301 l 2,16,17
 452 305 452 305 460 302.5 c 128,-1,18
 468 300 468 300 471.5 293 c 128,-1,19
 475 286 475 286 472.5 278 c 128,-1,20
 470 270 470 270 463 266 c 2,21,-1
 416 241 l 2,22,23
 365 214 365 214 317 208 c 0,24,25
 312 208 312 208 306 207 c 1,26,27
 307 166 307 166 310 131 c 0,28,29
 317 53 317 53 317 22 c 2,30,-1
 318 -9 l 2,31,32
 318 -17 318 -17 312 -23 c 128,-1,33
 306 -29 306 -29 298 -29 c 128,-1,34
 290 -29 290 -29 284 -23.5 c 128,-1,35
 278 -18 278 -18 278 -9 c 2,36,-1
 277 21 l 2,37,38
 277 51 277 51 270 127 c 0,39,40
 267 163 267 163 266 205 c 1,41,42
 237 205 237 205 201 207 c 0,43,44
 129 211 129 211 84 230 c 0,45,46
 72 235 72 235 64.5 239 c 128,-1,47
 57 243 57 243 47.5 249.5 c 128,-1,48
 38 256 38 256 34.5 264.5 c 128,-1,49
 31 273 31 273 32 284 c 0,50,51
 35 303 35 303 61 342 c 0,52,53
 84 376 84 376 125 441 c 0,54,55
 167 507 167 507 214 566 c 0,56,57
 261 624 261 624 268 632 c 2,58,-1
 275 639 l 2,59,60
 280 645 280 645 288.5 645 c 128,-1,61
 297 645 297 645 303 640 c 0,0,1
265 245 m 1,62,63
 265 278 265 278 265 315 c 1,64,65
 268 424 268 424 271.5 485.5 c 128,-1,66
 275 547 275 547 277 573 c 1,67,-1
 278 581 l 1,68,69
 264 564 264 564 245 541 c 0,70,71
 199 484 199 484 159 420 c 0,72,73
 118 354 118 354 94 319 c 0,74,75
 78 294 78 294 73 281 c 1,76,77
 80 275 80 275 99 267 c 0,78,79
 138 251 138 251 203 247 c 0,80,81
 237 245 237 245 265 245 c 1,62,63
EndSplineSet
EndChar

StartChar: five
Encoding: 53 53 21
Width: 403
Flags: W
LayerCount: 2
Fore
SplineSet
359.5 640.5 m 128,-1,1
 363 633 363 633 360 625.5 c 128,-1,2
 357 618 357 618 349 614 c 2,3,-1
 327 604 l 2,4,5
 301 593 301 593 268 587 c 0,6,7
 236 581 236 581 190 578 c 0,8,9
 146 575 146 575 123 569 c 0,10,11
 110 565 110 565 98 523 c 0,12,13
 84 473 84 473 77 408 c 0,14,15
 72 361 72 361 72 340 c 1,16,17
 81 342 81 342 93 346 c 0,18,19
 138 363 138 363 194 365 c 0,20,21
 252 368 252 368 307 328 c 0,22,23
 363 287 363 287 371 220 c 1,24,25
 378 152 378 152 331 100 c 0,26,27
 284 49 284 49 218 41 c 0,28,29
 153 33 153 33 107.5 64 c 128,-1,30
 62 95 62 95 53 132 c 0,31,32
 45 164 45 164 45 179 c 2,33,-1
 45 191 l 2,34,35
 45 199 45 199 51 205 c 128,-1,36
 57 211 57 211 65.5 211 c 128,-1,37
 74 211 74 211 79.5 205 c 128,-1,38
 85 199 85 199 85 191 c 2,39,-1
 85 179 l 2,40,41
 85 169 85 169 92 141 c 0,42,43
 97 119 97 119 130 96.5 c 128,-1,44
 163 74 163 74 213 81 c 1,45,46
 264 87 264 87 301 127 c 0,47,48
 336 166 336 166 330.5 215.5 c 128,-1,49
 325 265 325 265 283 296 c 0,50,51
 239 328 239 328 195 325 c 1,52,53
 147 323 147 323 107 309 c 1,54,55
 44 285 44 285 34 323 c 0,56,57
 29 342 29 342 37 412 c 0,58,59
 45 480 45 480 60 534 c 0,60,61
 77 597 77 597 112 607 c 0,62,63
 139 615 139 615 187 618 c 0,64,65
 232 621 232 621 261 626 c 0,66,67
 289 631 289 631 310 640 c 2,68,-1
 333 651 l 2,69,70
 340 654 340 654 348 651 c 128,-1,0
 356 648 356 648 359.5 640.5 c 128,-1,1
EndSplineSet
EndChar

StartChar: six
Encoding: 54 54 22
Width: 489
Flags: W
LayerCount: 2
Fore
SplineSet
93 181 m 1,0,1
 93 181 93 181 93 180 c 0,2,3
 104 149 104 149 121 125 c 0,4,5
 155 79 155 79 218 65 c 256,6,7
 281 51 281 51 337 75 c 0,8,9
 394 100 394 100 410 126 c 0,10,11
 425 150 425 150 410 192 c 0,12,13
 395 235 395 235 352 257 c 0,14,15
 308 280 308 280 222 257 c 0,16,17
 135 234 135 234 103 194 c 2,18,-1
 93 181 l 1,0,1
64 145 m 1,19,20
 51 137 51 137 40 146 c 0,21,22
 33 151 33 151 32 159.5 c 128,-1,23
 31 168 31 168 36 174 c 2,24,-1
 49 190 l 1,25,26
 48 193 48 193 47 196 c 0,27,28
 42 223 42 223 39 253 c 1,29,30
 33 345 33 345 57 415 c 0,31,32
 80 484 80 484 114 528 c 0,33,34
 149 572 149 572 216 601 c 0,35,36
 282 629 282 629 318 635 c 2,37,-1
 352 641 l 2,38,39
 360 642 360 642 367 637.5 c 128,-1,40
 374 633 374 633 375.5 625 c 128,-1,41
 377 617 377 617 372 610 c 128,-1,42
 367 603 367 603 359 601 c 2,43,-1
 325 595 l 2,44,45
 293 590 293 590 232 564 c 0,46,47
 174 540 174 540 146 503 c 0,48,49
 116 465 116 465 95 402 c 1,50,51
 73 340 73 340 79 256 c 0,52,53
 80 243 80 243 82 231 c 1,54,55
 123 273 123 273 212 296 c 0,56,57
 313 322 313 322 370 293 c 0,58,59
 428 264 428 264 448 205 c 0,60,61
 469 145 469 145 444 105 c 0,62,63
 421 68 421 68 353 39 c 0,64,65
 285 9 285 9 209 26 c 0,66,67
 132 43 132 43 89 102 c 0,68,69
 74 121 74 121 64 145 c 1,19,20
EndSplineSet
EndChar

StartChar: seven
Encoding: 55 55 23
Width: 400
Flags: W
LayerCount: 2
Fore
SplineSet
32 612 m 128,-1,1
 31 620 31 620 36.5 626.5 c 128,-1,2
 42 633 42 633 51 634 c 2,3,-1
 125 639 l 2,4,5
 200 645 200 645 266 643 c 0,6,7
 304 641 304 641 324 637.5 c 128,-1,8
 344 634 344 634 355 623 c 0,9,10
 367 611 367 611 368.5 588.5 c 128,-1,11
 370 566 370 566 365 541 c 1,12,13
 357 486 357 486 319 395 c 1,14,15
 281 307 281 307 252 236 c 0,16,17
 224 166 224 166 209 99 c 256,18,19
 194 32 194 32 195 2 c 0,20,21
 196 -30 196 -30 197 -40 c 2,22,-1
 199 -51 l 2,23,24
 200 -59 200 -59 195 -66 c 128,-1,25
 190 -73 190 -73 182 -74 c 128,-1,26
 174 -75 174 -75 167.5 -70 c 128,-1,27
 161 -65 161 -65 160 -57 c 2,28,-1
 158 -46 l 2,29,30
 156 -33 156 -33 155 1 c 0,31,32
 154 36 154 36 170 107 c 256,33,34
 186 178 186 178 215 251 c 0,35,36
 244 322 244 322 282 411 c 0,37,38
 318 497 318 497 325 547 c 0,39,40
 330 582 330 582 326 595 c 1,41,42
 312 601 312 601 264 603 c 0,43,44
 201 605 201 605 128 599 c 1,45,-1
 53 594 l 2,46,47
 45 593 45 593 39 598.5 c 128,-1,0
 33 604 33 604 32 612 c 128,-1,1
EndSplineSet
EndChar

StartChar: eight
Encoding: 56 56 24
Width: 486
Flags: W
LayerCount: 2
Fore
SplineSet
217 314 m 1,0,1
 182 273 182 273 166 242 c 1,2,3
 136 188 136 188 140 157 c 0,4,5
 143 130 143 130 182 104 c 0,6,7
 222 78 222 78 269 85 c 0,8,9
 316 93 316 93 353 133 c 0,10,11
 387 169 387 169 379 201 c 0,12,13
 369 238 369 238 331 271 c 128,-1,14
 293 304 293 304 232 312 c 0,15,16
 225 313 225 313 217 314 c 1,0,1
202 358 m 1,17,18
 228 387 228 387 261 420 c 0,19,20
 356 515 356 515 389 543 c 2,21,-1
 422 571 l 2,22,23
 428 576 428 576 436.5 575.5 c 128,-1,24
 445 575 445 575 450.5 568.5 c 128,-1,25
 456 562 456 562 455 554 c 128,-1,26
 454 546 454 546 448 540 c 2,27,-1
 415 513 l 1,28,29
 383 485 383 485 289 392 c 0,30,31
 267 370 267 370 249 350 c 1,32,33
 314 339 314 339 357 301 c 0,34,35
 405 260 405 260 418 212 c 0,36,37
 432 158 432 158 382 105 c 0,38,39
 336 55 336 55 275 46 c 0,40,41
 213 36 213 36 160 71 c 1,42,43
 105 106 105 106 100 153 c 0,44,45
 95 196 95 196 130 261 c 0,46,47
 145 289 145 289 173 324 c 1,48,49
 135 334 135 334 101 349 c 0,50,51
 29 381 29 381 32 437 c 0,52,53
 35 487 35 487 90 540 c 0,54,55
 143 592 143 592 214 608 c 0,56,57
 282 623 282 623 345 614 c 2,58,-1
 403 605 l 2,59,60
 412 604 412 604 416.5 597 c 128,-1,61
 421 590 421 590 420 582 c 128,-1,62
 419 574 419 574 412.5 569 c 128,-1,63
 406 564 406 564 397 565 c 2,64,-1
 339 574 l 2,65,66
 284 582 284 582 222 569 c 1,67,68
 163 555 163 555 117 511 c 0,69,70
 74 469 74 469 72 435 c 0,71,72
 71 406 71 406 117 386 c 0,73,74
 157 368 157 368 202 358 c 1,17,18
EndSplineSet
EndChar

StartChar: nine
Encoding: 57 57 25
Width: 412
Flags: W
LayerCount: 2
Fore
SplineSet
313 498 m 1,0,1
 301 495 301 495 293 504 c 2,2,-1
 273 526 l 2,3,4
 255 545 255 545 226 560 c 0,5,6
 199 574 199 574 183 573 c 0,7,8
 166 572 166 572 135 550 c 0,9,10
 103 527 103 527 86 490 c 128,-1,11
 69 453 69 453 73 415 c 0,12,13
 77 376 77 376 94 351 c 0,14,15
 109 329 109 329 146 324 c 0,16,17
 185 319 185 319 221 339 c 0,18,19
 258 360 258 360 277 393 c 0,20,21
 297 428 297 428 304 455 c 0,22,23
 311 483 311 483 313 498 c 1,0,1
327 524 m 1,24,25
 337 526 337 526 344.5 523 c 128,-1,26
 352 520 352 520 354 515 c 2,27,-1
 356 511 l 2,28,29
 360 501 360 501 365 479 c 0,30,31
 370 458 370 458 373 433 c 0,32,33
 376 409 376 409 379 370 c 1,34,35
 381 330 381 330 381 293 c 0,36,37
 380 254 380 254 372 219 c 0,38,39
 363 182 363 182 344 151 c 0,40,41
 325 118 325 118 297 97 c 1,42,43
 270 75 270 75 235 61.5 c 128,-1,44
 200 48 200 48 165 45 c 0,45,46
 130 41 130 41 102 48 c 1,47,48
 77 53 77 53 60 60 c 2,49,-1
 45 66 l 2,50,51
 38 69 38 69 34.5 76.5 c 128,-1,52
 31 84 31 84 34 91.5 c 128,-1,53
 37 99 37 99 44.5 102.5 c 128,-1,54
 52 106 52 106 60 103 c 2,55,-1
 75 97 l 2,56,57
 89 92 89 92 111 87 c 0,58,59
 132 82 132 82 161 84 c 0,60,61
 191 87 191 87 220.5 99 c 128,-1,62
 250 111 250 111 272 128 c 256,63,64
 294 145 294 145 310 171 c 1,65,66
 325 198 325 198 333 228 c 1,67,68
 340 259 340 259 341 293 c 1,69,70
 341 329 341 329 339 367 c 0,71,72
 337 398 337 398 334 420 c 1,73,74
 326 398 326 398 311 373 c 0,75,76
 287 331 287 331 240 304 c 0,77,78
 192 277 192 277 140 284 c 0,79,80
 86 291 86 291 61 328 c 0,81,82
 38 362 38 362 33 411 c 0,83,84
 28 459 28 459 49.5 506 c 128,-1,85
 71 553 71 553 111 582 c 0,86,87
 152 611 152 611 180 613 c 256,88,89
 208 615 208 615 244 596 c 0,90,91
 279 578 279 578 302 553 c 2,92,-1
 323 531 l 2,93,94
 325 528 325 528 327 524 c 1,24,25
EndSplineSet
EndChar

StartChar: colon
Encoding: 58 58 26
Width: 139
Flags: W
LayerCount: 2
Fore
SplineSet
70.5 59.5 m 128,-1,1
 76 65 76 65 84.5 65 c 128,-1,2
 93 65 93 65 99 60 c 2,3,-1
 102 57 l 2,4,5
 108 51 108 51 108 42.5 c 128,-1,6
 108 34 108 34 102 28.5 c 128,-1,7
 96 23 96 23 87.5 23 c 128,-1,8
 79 23 79 23 74 28 c 2,9,-1
 71 31 l 2,10,11
 65 37 65 37 65 45.5 c 128,-1,0
 65 54 65 54 70.5 59.5 c 128,-1,1
38 449 m 128,-1,13
 44 455 44 455 52 455 c 128,-1,14
 60 455 60 455 66 449 c 2,15,-1
 69 446 l 2,16,17
 75 440 75 440 75 431.5 c 128,-1,18
 75 423 75 423 69 417.5 c 128,-1,19
 63 412 63 412 55 412 c 128,-1,20
 47 412 47 412 41 418 c 2,21,-1
 38 421 l 2,22,23
 32 426 32 426 32 434.5 c 128,-1,12
 32 443 32 443 38 449 c 128,-1,13
EndSplineSet
EndChar

StartChar: semicolon
Encoding: 59 59 27
Width: 163
Flags: W
LayerCount: 2
Fore
SplineSet
108 104.5 m 128,-1,1
 116 105 116 105 122.5 99.5 c 128,-1,2
 129 94 129 94 129 86 c 2,3,-1
 131 42 l 2,4,5
 134 -8 134 -8 99 -56 c 2,6,-1
 68 -99 l 2,7,8
 63 -106 63 -106 55 -107.5 c 128,-1,9
 47 -109 47 -109 40.5 -104 c 128,-1,10
 34 -99 34 -99 32.5 -91 c 128,-1,11
 31 -83 31 -83 36 -76 c 2,12,-1
 66 -33 l 2,13,14
 93 4 93 4 91 41 c 2,15,-1
 89 84 l 2,16,17
 89 92 89 92 94.5 98 c 128,-1,0
 100 104 100 104 108 104.5 c 128,-1,1
54.5 471 m 128,-1,19
 60 477 60 477 68.5 477 c 128,-1,20
 77 477 77 477 83 471 c 2,21,-1
 86 468 l 2,22,23
 92 462 92 462 92 453.5 c 128,-1,24
 92 445 92 445 86 439.5 c 128,-1,25
 80 434 80 434 71.5 434 c 128,-1,26
 63 434 63 434 58 440 c 2,27,-1
 55 443 l 2,28,29
 49 448 49 448 49 456.5 c 128,-1,18
 49 465 49 465 54.5 471 c 128,-1,19
EndSplineSet
EndChar

StartChar: equal
Encoding: 61 61 28
Width: 567
Flags: W
LayerCount: 2
Fore
SplineSet
84 209 m 128,-1,1
 84 217 84 217 90.5 222.5 c 128,-1,2
 97 228 97 228 105 228 c 2,3,-1
 126 228 l 1,4,5
 146 227 146 227 205.5 228 c 128,-1,6
 265 229 265 229 379 234 c 0,7,8
 494 240 494 240 505 240 c 2,9,-1
 515 240 l 1,10,11
 523 241 523 241 529 235 c 128,-1,12
 535 229 535 229 535.5 221 c 128,-1,13
 536 213 536 213 530.5 207 c 128,-1,14
 525 201 525 201 517 201 c 2,15,-1
 506 200 l 2,16,17
 496 200 496 200 381 194 c 0,18,19
 266 189 266 189 206 188 c 128,-1,20
 146 187 146 187 125 188 c 1,21,-1
 104 188 l 2,22,23
 96 188 96 188 90 194.5 c 128,-1,0
 84 201 84 201 84 209 c 128,-1,1
32 406 m 128,-1,25
 33 414 33 414 39.5 419 c 128,-1,26
 46 424 46 424 54 424 c 1,27,-1
 76 421 l 2,28,29
 97 419 97 419 169 415 c 0,30,31
 241 412 241 412 326 402 c 0,32,33
 409 393 409 393 428 393 c 2,34,-1
 449 394 l 2,35,36
 457 395 457 395 463.5 389 c 128,-1,37
 470 383 470 383 470 375 c 128,-1,38
 470 367 470 367 464.5 361 c 128,-1,39
 459 355 459 355 451 354 c 2,40,-1
 430 353 l 1,41,42
 407 353 407 353 322 362 c 1,43,44
 238 372 238 372 167 375 c 0,45,46
 94 379 94 379 72 381 c 2,47,-1
 50 384 l 2,48,49
 42 385 42 385 36.5 391.5 c 128,-1,24
 31 398 31 398 32 406 c 128,-1,25
EndSplineSet
EndChar

StartChar: question
Encoding: 63 63 29
Width: 308
Flags: W
LayerCount: 2
Fore
SplineSet
163 35 m 1,0,1
 162 47 162 47 172 53 c 1,2,-1
 180 59 l 2,3,4
 196 70 196 70 218 63 c 0,5,6
 232 58 232 58 237.5 45 c 128,-1,7
 243 32 243 32 238 20 c 1,8,9
 233 4 233 4 218 -1 c 128,-1,10
 203 -6 203 -6 191 0 c 1,11,-1
 173 6 l 2,12,13
 166 9 166 9 162.5 16.5 c 128,-1,14
 159 24 159 24 162 32 c 0,15,16
 162 34 162 34 163 35 c 1,0,1
58 420.5 m 128,-1,18
 50 420 50 420 43.5 425 c 128,-1,19
 37 430 37 430 36 439 c 2,20,-1
 32 481 l 2,21,22
 28 532 28 532 69 581 c 0,23,24
 112 631 112 631 170 623 c 1,25,26
 224 614 224 614 254 578 c 0,27,28
 284 541 284 541 275 475 c 0,29,30
 267 412 267 412 232 371 c 1,31,32
 201 333 201 333 178 312 c 0,33,34
 164 298 164 298 167 235 c 0,35,36
 170 164 170 164 173 147 c 2,37,-1
 177 128 l 2,38,39
 179 120 179 120 174.5 113 c 128,-1,40
 170 106 170 106 161.5 104.5 c 128,-1,41
 153 103 153 103 146.5 107.5 c 128,-1,42
 140 112 140 112 138 120 c 2,43,-1
 134 139 l 2,44,45
 130 159 130 159 127 233 c 0,46,47
 123 314 123 314 151 341 c 0,48,49
 171 360 171 360 202 396 c 1,50,51
 229 429 229 429 235 480 c 1,52,53
 242 529 242 529 222 553 c 0,54,55
 203 577 203 577 164 583 c 0,56,57
 128 589 128 589 99 555 c 0,58,59
 69 519 69 519 72 485 c 2,60,-1
 76 442 l 2,61,62
 77 434 77 434 71.5 427.5 c 128,-1,17
 66 421 66 421 58 420.5 c 128,-1,18
EndSplineSet
EndChar

StartChar: at
Encoding: 64 64 30
Width: 665
Flags: W
LayerCount: 2
Fore
SplineSet
460 319 m 0,0,1
 454 312 454 312 445 312 c 1,2,3
 446 305 446 305 447 284 c 0,4,5
 449 243 449 243 466 189 c 0,6,7
 481 140 481 140 508 122 c 0,8,9
 527 109 527 109 552 132 c 0,10,11
 583 162 583 162 591 223 c 0,12,13
 599 288 599 288 583 352 c 0,14,15
 567 415 567 415 512 469 c 0,16,17
 459 521 459 521 395 525 c 0,18,19
 328 530 328 530 272 503 c 0,20,21
 215 476 215 476 158 410 c 0,22,23
 100 344 100 344 81 275 c 256,24,25
 62 206 62 206 82 129 c 128,-1,26
 102 52 102 52 159 -5 c 0,27,28
 214 -60 214 -60 314 -66 c 0,29,30
 413 -71 413 -71 498 4 c 2,31,-1
 589 85 l 2,32,33
 595 90 595 90 603.5 89.5 c 128,-1,34
 612 89 612 89 617 83 c 128,-1,35
 622 77 622 77 621.5 68.5 c 128,-1,36
 621 60 621 60 615 55 c 2,37,-1
 524 -26 l 2,38,39
 427 -112 427 -112 312 -106 c 0,40,41
 197 -99 197 -99 131 -33 c 0,42,43
 66 32 66 32 43.5 119.5 c 128,-1,44
 21 207 21 207 43 286 c 0,45,46
 64 364 64 364 128 436 c 0,47,48
 191 508 191 508 255 539 c 0,49,50
 320 570 320 570 397 565 c 0,51,52
 476 560 476 560 540 497 c 0,53,54
 603 436 603 436 621 362 c 0,55,56
 639 290 639 290 630 218 c 0,57,58
 621 143 621 143 579 103 c 0,59,60
 558 82 558 82 534 78 c 128,-1,61
 510 74 510 74 486 89 c 0,62,63
 447 115 447 115 428 177 c 0,64,65
 424 188 424 188 421 200 c 1,66,67
 402 148 402 148 349 106 c 0,68,69
 289 58 289 58 250 63 c 0,70,71
 204 69 204 69 192 143 c 1,72,73
 180 209 180 209 212 269 c 0,74,75
 242 327 242 327 289 359 c 0,76,77
 340 395 340 395 392 378 c 0,78,79
 437 363 437 363 449 354 c 1,80,-1
 457 347 l 2,81,82
 463 342 463 342 464 334 c 128,-1,83
 465 326 465 326 460 319 c 0,0,1
415 327 m 1,84,85
 402 332 402 332 379 340 c 0,86,87
 346 351 346 351 312 327 c 0,88,89
 273 300 273 300 247 250 c 0,90,91
 222 203 222 203 231 150 c 0,92,93
 239 105 239 105 255 103 c 0,94,95
 277 100 277 100 324 138 c 0,96,97
 373 177 373 177 387 224 c 0,98,99
 402 276 402 276 404 300 c 1,100,101
 395 313 395 313 415 327 c 1,84,85
EndSplineSet
EndChar

StartChar: A
Encoding: 65 65 31
Width: 538
Flags: W
LayerCount: 2
Fore
SplineSet
44.5 8.5 m 128,-1,1
 37 12 37 12 33.5 19.5 c 128,-1,2
 30 27 30 27 34 35 c 2,3,-1
 44 59 l 2,4,5
 55 84 55 84 74 137 c 0,6,7
 94 191 94 191 115.5 257.5 c 128,-1,8
 137 324 137 324 158 390 c 0,9,10
 179 459 179 459 194 508 c 0,11,12
 209 558 209 558 216.5 581 c 128,-1,13
 224 604 224 604 226 612 c 1,14,15
 235 634 235 634 248 629 c 128,-1,16
 261 624 261 624 274 607 c 2,17,-1
 286 590 l 1,18,19
 308 554 308 554 331 500.5 c 128,-1,20
 354 447 354 447 380 375 c 0,21,22
 404 306 404 306 420 262 c 1,23,24
 435 265 435 265 444 268 c 2,25,-1
 474 277 l 2,26,27
 482 280 482 280 489.5 276 c 128,-1,28
 497 272 497 272 499.5 264 c 128,-1,29
 502 256 502 256 498 248.5 c 128,-1,30
 494 241 494 241 486 239 c 2,31,-1
 456 230 l 2,32,33
 447 227 447 227 434 224 c 1,34,35
 446 196 446 196 460 168 c 0,36,37
 483 123 483 123 491 104 c 0,38,39
 499 86 499 86 503 77 c 2,40,-1
 506 68 l 2,41,42
 509 61 509 61 505.5 53.5 c 128,-1,43
 502 46 502 46 494 43 c 128,-1,44
 486 40 486 40 478.5 43.5 c 128,-1,45
 471 47 471 47 468 54 c 2,46,-1
 465 62 l 2,47,48
 462 70 462 70 454.5 88 c 128,-1,49
 447 106 447 106 424 151 c 0,50,51
 408 183 408 183 395 215 c 1,52,53
 368 210 368 210 330 203 c 0,54,55
 238 187 238 187 183 175 c 2,56,-1
 128 163 l 2,57,58
 127 163 127 163 126 163 c 0,59,60
 118 143 118 143 112 124 c 0,61,62
 92 69 92 69 81 44 c 2,63,-1
 70 19 l 2,64,65
 67 11 67 11 59.5 8 c 128,-1,0
 52 5 52 5 44.5 8.5 c 128,-1,1
141 207 m 1,66,-1
 175 214 l 2,67,68
 231 226 231 226 323 243 c 0,69,70
 355 248 355 248 380 253 c 1,71,72
 365 297 365 297 342 362 c 0,73,74
 317 433 317 433 295 485 c 1,75,76
 273 533 273 533 254 566 c 1,77,78
 246 542 246 542 232 496 c 0,79,80
 217 446 217 446 196.5 378.5 c 128,-1,81
 176 311 176 311 153 245 c 0,82,83
 147 225 147 225 141 207 c 1,66,-1
EndSplineSet
EndChar

StartChar: B
Encoding: 66 66 32
Width: 499
Flags: W
LayerCount: 2
Fore
SplineSet
73 97 m 1,0,1
 70 126 70 126 63 174 c 0,2,3
 52 247 52 247 48 330 c 0,4,5
 45 412 45 412 46 478 c 0,6,7
 47 543 47 543 48 555 c 1,8,-1
 48 568 l 2,9,10
 48 576 48 576 54 581.5 c 128,-1,11
 60 587 60 587 69 587 c 0,12,13
 70 587 70 587 71 587 c 0,14,15
 73 592 73 592 77 595 c 2,16,-1
 96 609 l 2,17,18
 117 625 117 625 180 647 c 1,19,20
 245 671 245 671 296 661 c 0,21,22
 349 651 349 651 373 627 c 0,23,24
 398 603 398 603 410 554.5 c 128,-1,25
 422 506 422 506 407 463 c 0,26,27
 393 421 393 421 348 375 c 0,28,29
 340 367 340 367 331 359 c 1,30,31
 340 356 340 356 348 353 c 0,32,33
 394 336 394 336 422 304 c 0,34,35
 448 273 448 273 460 240 c 1,36,37
 471 206 471 206 466 162 c 0,38,39
 460 117 460 117 413 68 c 0,40,41
 367 19 367 19 319 5 c 0,42,43
 271 -10 271 -10 220 -3 c 0,44,45
 174 4 174 4 112 33 c 1,46,47
 107 29 107 29 101 28 c 0,48,49
 93 27 93 27 86.5 32.5 c 128,-1,50
 80 38 80 38 79 46 c 2,51,-1
 78 50 l 1,52,-1
 43 67 l 2,53,54
 36 70 36 70 33 78 c 128,-1,55
 30 86 30 86 34 93.5 c 128,-1,56
 38 101 38 101 45.5 103.5 c 128,-1,57
 53 106 53 106 61 103 c 2,58,-1
 73 97 l 1,0,1
116 76 m 1,59,-1
 123 72 l 1,60,61
 183 43 183 43 226 37 c 0,62,63
 268 31 268 31 307 43 c 256,64,65
 346 55 346 55 384 95 c 256,66,67
 422 135 422 135 426 167 c 0,68,69
 431 201 431 201 422 227 c 256,70,71
 413 253 413 253 392 278 c 0,72,73
 371 302 371 302 334 316 c 0,74,75
 316 323 316 323 297 326 c 0,76,77
 294 327 294 327 290 328 c 1,78,79
 267 314 267 314 244 304 c 0,80,81
 185 279 185 279 156 277 c 2,82,83
 156 277 156 277 151 276.5 c 128,-1,84
 146 276 146 276 143.5 276 c 128,-1,85
 141 276 141 276 135.5 276.5 c 128,-1,86
 130 277 130 277 126.5 278.5 c 128,-1,87
 123 280 123 280 119.5 282.5 c 128,-1,88
 116 285 116 285 113.5 289.5 c 128,-1,89
 111 294 111 294 110 300 c 0,90,91
 109 308 109 308 111.5 314.5 c 128,-1,92
 114 321 114 321 120.5 326 c 128,-1,93
 127 331 127 331 132 334 c 128,-1,94
 137 337 137 337 146.5 341.5 c 128,-1,95
 156 346 156 346 159 348 c 0,96,97
 203 371 203 371 253 371 c 0,98,99
 267 371 267 371 280 369 c 1,100,101
 284 372 284 372 287 375 c 0,102,103
 304 387 304 387 319 403 c 0,104,105
 358 442 358 442 370 476 c 1,106,107
 380 508 380 508 371 545 c 128,-1,108
 362 582 362 582 346 598 c 0,109,110
 329 614 329 614 289 622 c 1,111,112
 248 629 248 629 193 610 c 1,113,114
 136 589 136 589 120 577 c 2,115,-1
 101 563 l 2,116,117
 95 558 95 558 88 559 c 1,118,-1
 88 554 l 1,119,120
 87 542 87 542 86 477 c 0,121,122
 85 413 85 413 88 331 c 1,123,124
 92 251 92 251 102 180 c 0,125,126
 113 108 113 108 116 79 c 1,127,-1
 116 76 l 1,59,-1
EndSplineSet
EndChar

StartChar: C
Encoding: 67 67 33
Width: 569
Flags: W
LayerCount: 2
Fore
SplineSet
471.5 414 m 128,-1,1
 464 411 464 411 456.5 414.5 c 128,-1,2
 449 418 449 418 446 426 c 2,3,-1
 440 440 l 2,4,5
 435 454 435 454 422 490 c 0,6,7
 411 522 411 522 385 550 c 0,8,9
 360 576 360 576 313.5 586.5 c 128,-1,10
 267 597 267 597 227 581 c 0,11,12
 185 564 185 564 150 528 c 256,13,14
 115 492 115 492 95 450 c 0,15,16
 76 408 76 408 73 368 c 0,17,18
 69 328 69 328 85 278 c 0,19,20
 102 226 102 226 133 171 c 0,21,22
 163 117 163 117 193 92.5 c 128,-1,23
 223 68 223 68 259 56 c 0,24,25
 291 46 291 46 337 68 c 0,26,27
 386 92 386 92 424 144 c 0,28,29
 463 198 463 198 481 246 c 1,30,-1
 499 298 l 2,31,32
 501 305 501 305 509 308.5 c 128,-1,33
 517 312 517 312 524.5 309.5 c 128,-1,34
 532 307 532 307 535.5 299.5 c 128,-1,35
 539 292 539 292 536 284 c 2,36,-1
 518 233 l 2,37,38
 499 179 499 179 456 121 c 0,39,40
 412 61 412 61 355 32 c 1,41,42
 294 3 294 3 247 18 c 0,43,44
 203 33 203 33 167 62 c 128,-1,45
 131 91 131 91 98 151 c 0,46,47
 65 210 65 210 47 266 c 0,48,49
 29 324 29 324 33 371 c 0,50,51
 36 418 36 418 59 467 c 0,52,53
 82 515 82 515 122 556 c 0,54,55
 162 598 162 598 212 618 c 0,56,57
 264 638 264 638 322.5 625 c 128,-1,58
 381 612 381 612 414 577 c 0,59,60
 446 543 446 543 460 503 c 0,61,62
 472 468 472 468 478 454 c 2,63,-1
 483 440 l 2,64,65
 486 433 486 433 482.5 425 c 128,-1,0
 479 417 479 417 471.5 414 c 128,-1,1
EndSplineSet
EndChar

StartChar: D
Encoding: 68 68 34
Width: 566
Flags: W
LayerCount: 2
Fore
SplineSet
85 547 m 0,0,1
 82 555 82 555 86 562 c 128,-1,2
 90 569 90 569 98 572 c 1,3,-1
 100 572 l 1,4,5
 107 578 107 578 116 577 c 1,6,-1
 147 586 l 2,7,8
 198 601 198 601 254 605 c 0,9,10
 313 610 313 610 381 583 c 0,11,12
 452 555 452 555 492 484 c 0,13,14
 531 414 531 414 534 342 c 256,15,16
 537 270 537 270 511 200 c 128,-1,17
 485 130 485 130 435 79 c 0,18,19
 384 27 384 27 316 9 c 128,-1,20
 248 -9 248 -9 176 12 c 0,21,22
 159 17 159 17 144 23 c 1,23,-1
 144 15 l 2,24,25
 144 7 144 7 137.5 1.5 c 128,-1,26
 131 -4 131 -4 123 -4 c 128,-1,27
 115 -4 115 -4 109.5 2.5 c 128,-1,28
 104 9 104 9 104 17 c 2,29,-1
 104 25 l 2,30,31
 104 28 104 28 104 39 c 1,32,33
 86 47 86 47 73 56 c 2,34,-1
 41 77 l 2,35,36
 34 82 34 82 32.5 90 c 128,-1,37
 31 98 31 98 35.5 105 c 128,-1,38
 40 112 40 112 48 113.5 c 128,-1,39
 56 115 56 115 63 110 c 2,40,-1
 95 89 l 2,41,42
 97 88 97 88 99 86 c 1,43,44
 95 134 95 134 88 215 c 0,45,46
 81 303 81 303 82 391 c 256,47,48
 83 479 83 479 88 520 c 2,49,-1
 90 538 l 1,50,51
 86 542 86 542 85 547 c 0,0,1
141 66 m 1,52,53
 162 58 162 58 188 50 c 0,54,55
 248 32 248 32 305.5 47 c 128,-1,56
 363 62 363 62 406 107 c 0,57,58
 450 152 450 152 473.5 214.5 c 128,-1,59
 497 277 497 277 494 340 c 256,60,61
 491 403 491 403 457 464 c 0,62,63
 424 523 424 523 366 545 c 1,64,65
 306 569 306 569 257 566 c 0,66,67
 205 562 205 562 158 548 c 2,68,-1
 131 540 l 1,69,-1
 128 515 l 1,70,71
 122 476 122 476 122 391 c 0,72,73
 121 305 121 305 128 218 c 256,74,75
 135 131 135 131 140 83 c 0,76,77
 141 73 141 73 141 66 c 1,52,53
EndSplineSet
EndChar

StartChar: E
Encoding: 69 69 35
Width: 550
Flags: W
LayerCount: 2
Fore
SplineSet
32 562 m 128,-1,1
 31 570 31 570 36.5 576.5 c 128,-1,2
 42 583 42 583 50 584 c 1,3,-1
 56 584 l 1,4,5
 63 585 63 585 118 591 c 256,6,7
 173 597 173 597 227.5 602 c 128,-1,8
 282 607 282 607 374 615 c 0,9,10
 465 622 465 622 480 625 c 2,11,-1
 495 627 l 2,12,13
 503 628 503 628 510 623 c 128,-1,14
 517 618 517 618 518 610 c 128,-1,15
 519 602 519 602 514 595.5 c 128,-1,16
 509 589 509 589 501 587 c 2,17,-1
 486 585 l 2,18,19
 470 583 470 583 377 575 c 0,20,21
 285 567 285 567 231 562 c 128,-1,22
 177 557 177 557 122 551 c 0,23,24
 108 550 108 550 99 549 c 1,25,26
 108 542 108 542 107 532 c 2,27,-1
 105 489 l 2,28,29
 103 447 103 447 104 364 c 0,30,31
 104 363 104 363 104 361.5 c 128,-1,32
 104 360 104 360 104 360 c 1,33,-1
 119 358 l 2,34,35
 133 356 133 356 173 356 c 0,36,37
 215 356 215 356 277 357 c 0,38,39
 337 358 337 358 349 362 c 2,40,-1
 364 368 l 2,41,42
 372 371 372 371 379.5 368 c 128,-1,43
 387 365 387 365 390 357 c 128,-1,44
 393 349 393 349 389.5 341.5 c 128,-1,45
 386 334 386 334 379 331 c 2,46,-1
 363 325 l 2,47,48
 344 318 344 318 278 317 c 0,49,50
 215 316 215 316 173 316 c 0,51,52
 130 316 130 316 114 318 c 2,53,-1
 105 319 l 1,54,55
 105 260 105 260 107 203 c 0,56,57
 109 127 109 127 115 97 c 0,58,59
 121 69 121 69 128 57 c 0,60,61
 133 48 133 48 145 44 c 0,62,63
 160 38 160 38 218 43 c 0,64,65
 281 49 281 49 340 50 c 0,66,67
 398 51 398 51 435 52 c 256,68,69
 472 53 472 53 482 55 c 2,70,-1
 494 57 l 2,71,72
 502 58 502 58 508.5 53 c 128,-1,73
 515 48 515 48 516.5 40 c 128,-1,74
 518 32 518 32 513 25 c 128,-1,75
 508 18 508 18 500 17 c 2,76,-1
 489 15 l 2,77,78
 476 13 476 13 437 12 c 0,79,80
 399 11 399 11 341 10 c 256,81,82
 283 9 283 9 221 3 c 0,83,84
 154 -3 154 -3 131 6 c 0,85,86
 105 16 105 16 93 37 c 0,87,88
 83 54 83 54 76 89 c 0,89,90
 69 122 69 122 67 202 c 0,91,92
 65 280 65 280 64 364 c 256,93,94
 63 448 63 448 65 491 c 2,95,-1
 67 534 l 2,96,97
 68 541 68 541 72 546 c 1,98,99
 63 545 63 545 60 545 c 2,100,-1
 54 544 l 2,101,102
 46 543 46 543 39.5 548.5 c 128,-1,0
 33 554 33 554 32 562 c 128,-1,1
EndSplineSet
EndChar

StartChar: F
Encoding: 70 70 36
Width: 474
Flags: W
LayerCount: 2
Fore
SplineSet
35 544 m 0,0,1
 31 551 31 551 33.5 559 c 128,-1,2
 36 567 36 567 43 571 c 2,3,-1
 47 573 l 1,4,-1
 50 591 l 2,5,6
 51 599 51 599 57.5 604 c 128,-1,7
 64 609 64 609 72 608 c 0,8,9
 87 606 87 606 89 591 c 1,10,11
 101 596 101 596 120 602 c 0,12,13
 176 622 176 622 251 635 c 0,14,15
 328 649 328 649 346 647 c 2,16,-1
 361 646 l 2,17,18
 369 645 369 645 374.5 639 c 128,-1,19
 380 633 380 633 379.5 624.5 c 128,-1,20
 379 616 379 616 372.5 610.5 c 128,-1,21
 366 605 366 605 358 606 c 2,22,-1
 343 607 l 2,23,24
 330 608 330 608 258 596 c 0,25,26
 185 583 185 583 134 565 c 0,27,28
 104 554 104 554 84 547 c 1,29,30
 83 531 83 531 81 508 c 0,31,32
 78 468 78 468 74 370 c 0,33,34
 72 330 72 330 72 293 c 1,35,36
 74 294 74 294 77 295 c 2,37,-1
 132 306 l 2,38,39
 188 317 188 317 263 327.5 c 128,-1,40
 338 338 338 338 380 340 c 2,41,-1
 422 343 l 2,42,43
 430 343 430 343 436 337.5 c 128,-1,44
 442 332 442 332 442.5 324 c 128,-1,45
 443 316 443 316 437.5 309.5 c 128,-1,46
 432 303 432 303 424 303 c 2,47,-1
 382 300 l 2,48,49
 341 298 341 298 268 288 c 0,50,51
 194 278 194 278 140 267 c 2,52,-1
 85 256 l 2,53,54
 78 254 78 254 72 257 c 1,55,56
 73 226 73 226 75 198 c 0,57,58
 80 124 80 124 87 88 c 0,59,60
 94 53 94 53 98 42 c 2,61,-1
 103 30 l 2,62,63
 106 22 106 22 102.5 14.5 c 128,-1,64
 99 7 99 7 91 4 c 128,-1,65
 83 1 83 1 75.5 4.5 c 128,-1,66
 68 8 68 8 65 16 c 2,67,-1
 61 28 l 1,68,69
 55 42 55 42 48 81 c 1,70,71
 40 118 40 118 35 195.5 c 128,-1,72
 30 273 30 273 34 372 c 128,-1,73
 38 471 38 471 41 511 c 0,74,75
 42 525 42 525 43 536 c 1,76,77
 38 539 38 539 35 544 c 0,0,1
EndSplineSet
EndChar

StartChar: G
Encoding: 71 71 37
Width: 596
Flags: W
LayerCount: 2
Fore
SplineSet
437.5 381 m 128,-1,1
 429 381 429 381 423.5 387 c 128,-1,2
 418 393 418 393 418 401 c 2,3,-1
 418 409 l 2,4,5
 418 414 418 414 412 444 c 1,6,7
 408 472 408 472 388 512 c 0,8,9
 370 549 370 549 338 566 c 0,10,11
 308 583 308 583 237 562 c 0,12,13
 163 541 163 541 126 496 c 0,14,15
 88 450 88 450 77 417 c 0,16,17
 67 385 67 385 77 329 c 0,18,19
 88 271 88 271 123 216 c 0,20,21
 159 160 159 160 203 121 c 0,22,23
 246 84 246 84 290 77 c 0,24,25
 331 71 331 71 370.5 104 c 128,-1,26
 410 137 410 137 411 160 c 128,-1,27
 412 183 412 183 382 213 c 0,28,29
 349 246 349 246 308 257 c 0,30,31
 263 269 263 269 249 269 c 1,32,33
 235 264 235 264 225 280 c 0,34,35
 217 294 217 294 220.5 301.5 c 128,-1,36
 224 309 224 309 233 311 c 2,37,-1
 242 314 l 2,38,39
 258 319 258 319 311 331 c 1,40,41
 363 344 363 344 403 354 c 0,42,43
 447 365 447 365 459 364 c 0,44,45
 479 361 479 361 489 342 c 0,46,47
 494 331 494 331 510 273 c 0,48,49
 525 216 525 216 532 141 c 0,50,51
 538 69 538 69 547 28 c 0,52,53
 554 -5 554 -5 558 -13 c 2,54,-1
 561 -19 l 1,55,56
 566 -26 566 -26 564 -34 c 128,-1,57
 562 -42 562 -42 555.5 -46.5 c 128,-1,58
 549 -51 549 -51 540.5 -49 c 128,-1,59
 532 -47 532 -47 528 -41 c 2,60,-1
 524 -34 l 2,61,62
 518 -25 518 -25 508 20 c 0,63,64
 499 63 499 63 492 137 c 0,65,66
 485 209 485 209 471 263 c 0,67,68
 458 313 458 313 453 324 c 1,69,70
 441 322 441 322 413 315 c 0,71,72
 375 305 375 305 325 294 c 1,73,74
 373 279 373 279 410 242 c 0,75,76
 453 199 453 199 451 158.5 c 128,-1,77
 449 118 449 118 396 73.5 c 128,-1,78
 343 29 343 29 284 38 c 0,79,80
 228 46 228 46 177 91 c 0,81,82
 128 134 128 134 89 194 c 1,83,84
 50 256 50 256 38 321 c 0,85,86
 26 388 26 388 39 429 c 0,87,88
 52 469 52 469 96 522 c 0,89,90
 141 576 141 576 226 601 c 0,91,92
 313 626 313 626 358 601 c 0,93,94
 400 578 400 578 424 530 c 0,95,96
 446 485 446 485 452 450 c 0,97,98
 458 417 458 417 458 408 c 2,99,-1
 458 401 l 2,100,101
 458 393 458 393 452 387 c 128,-1,0
 446 381 446 381 437.5 381 c 128,-1,1
EndSplineSet
EndChar

StartChar: H
Encoding: 72 72 38
Width: 527
Flags: W
LayerCount: 2
Fore
SplineSet
32.5 247 m 128,-1,1
 30 255 30 255 34 262.5 c 128,-1,2
 38 270 38 270 46 272 c 2,3,-1
 55 275 l 2,4,5
 58 276 58 276 68 280 c 0,6,7
 68 281 68 281 67 284 c 0,8,9
 51 404 51 404 47 482 c 0,10,11
 43 558 43 558 43 571 c 1,12,-1
 42 583 l 2,13,14
 42 591 42 591 47.5 597 c 128,-1,15
 53 603 53 603 61.5 603.5 c 128,-1,16
 70 604 70 604 76 598 c 128,-1,17
 82 592 82 592 82 584 c 2,18,-1
 83 572 l 2,19,20
 83 560 83 560 87 484 c 0,21,22
 91 409 91 409 107 293 c 1,23,24
 125 299 125 299 154 309 c 0,25,26
 245 339 245 339 326 354 c 1,27,28
 364 360 364 360 391 364 c 1,29,30
 391 422 391 422 398 478 c 2,31,-1
 406 538 l 2,32,33
 407 546 407 546 413.5 551 c 128,-1,34
 420 556 420 556 428 555 c 128,-1,35
 436 554 436 554 441 547.5 c 128,-1,36
 446 541 446 541 445 533 c 2,37,-1
 438 473 l 2,38,39
 432 421 432 421 431 369 c 1,40,41
 436 369 436 369 441 369 c 2,42,-1
 474 370 l 2,43,44
 483 371 483 371 489 365 c 128,-1,45
 495 359 495 359 495.5 351 c 128,-1,46
 496 343 496 343 490 337 c 128,-1,47
 484 331 484 331 476 331 c 2,48,-1
 442 329 l 2,49,50
 437 329 437 329 431 329 c 1,51,52
 432 273 432 273 433 196 c 0,53,54
 435 99 435 99 436 65 c 2,55,-1
 437 32 l 2,56,57
 437 23 437 23 431.5 17 c 128,-1,58
 426 11 426 11 418 11 c 128,-1,59
 410 11 410 11 403.5 16.5 c 128,-1,60
 397 22 397 22 397 30 c 2,61,-1
 396 64 l 2,62,63
 395 98 395 98 393 195 c 0,64,65
 392 270 392 270 391 324 c 1,66,67
 365 320 365 320 333 314 c 0,68,69
 255 301 255 301 167 271 c 0,70,71
 134 260 134 260 112 252 c 1,72,73
 125 158 125 158 139 99 c 1,74,75
 154 27 154 27 159 11 c 1,76,-1
 163 -6 l 2,77,78
 165 -14 165 -14 161 -21 c 128,-1,79
 157 -28 157 -28 149 -30 c 128,-1,80
 141 -32 141 -32 134 -28 c 128,-1,81
 127 -24 127 -24 125 -16 c 2,82,-1
 120 1 l 2,83,84
 116 18 116 18 100 90 c 0,85,86
 86 149 86 149 74 239 c 1,87,88
 69 238 69 238 67 237 c 2,89,-1
 58 234 l 2,90,91
 50 232 50 232 42.5 235.5 c 128,-1,0
 35 239 35 239 32.5 247 c 128,-1,1
EndSplineSet
EndChar

StartChar: I
Encoding: 73 73 39
Width: 133
Flags: W
LayerCount: 2
Fore
SplineSet
58 620.5 m 128,-1,1
 66 619 66 619 70.5 612 c 128,-1,2
 75 605 75 605 74 597 c 1,3,-1
 72 590 l 1,4,5
 72 581 72 581 74 529 c 0,6,7
 77 470 77 470 83 379 c 0,8,9
 88 289 88 289 91 174 c 1,10,11
 95 60 95 60 98 39 c 2,12,-1
 101 17 l 2,13,14
 102 9 102 9 97 2.5 c 128,-1,15
 92 -4 92 -4 84 -5 c 128,-1,16
 76 -6 76 -6 69 -1 c 128,-1,17
 62 4 62 4 61 12 c 2,18,-1
 58 34 l 2,19,20
 55 57 55 57 51 173 c 0,21,22
 48 287 48 287 43 377 c 0,23,24
 37 467 37 467 34 527 c 0,25,26
 31 588 31 588 33 598 c 2,27,-1
 34 605 l 2,28,29
 36 613 36 613 43 617.5 c 128,-1,0
 50 622 50 622 58 620.5 c 128,-1,1
EndSplineSet
EndChar

StartChar: J
Encoding: 74 74 40
Width: 464
Flags: W
LayerCount: 2
Fore
SplineSet
400.5 603.5 m 128,-1,1
 409 603 409 603 414.5 597 c 128,-1,2
 420 591 420 591 420 583 c 2,3,-1
 420 560 l 2,4,5
 420 537 420 537 424 477 c 256,6,7
 428 417 428 417 431 328 c 0,8,9
 435 237 435 237 427 188 c 0,10,11
 419 137 419 137 395 99 c 0,12,13
 370 59 370 59 326 38 c 0,14,15
 282 16 282 16 240 18 c 1,16,17
 200 21 200 21 163 36 c 0,18,19
 125 52 125 52 89 91 c 0,20,21
 53 129 53 129 43 152 c 2,22,-1
 34 171 l 2,23,24
 30 179 30 179 33 186.5 c 128,-1,25
 36 194 36 194 43.5 197.5 c 128,-1,26
 51 201 51 201 59 198 c 128,-1,27
 67 195 67 195 70 188 c 2,28,-1
 79 168 l 2,29,30
 87 151 87 151 118 118 c 0,31,32
 148 86 148 86 178 73 c 0,33,34
 209 60 209 60 242 58 c 0,35,36
 274 56 274 56 308 73 c 256,37,38
 342 90 342 90 361 120 c 0,39,40
 381 151 381 151 387 194 c 0,41,42
 394 240 394 240 391 326 c 0,43,44
 388 415 388 415 384 475 c 256,45,46
 380 535 380 535 380 560 c 2,47,-1
 380 584 l 2,48,49
 380 592 380 592 386 598 c 128,-1,0
 392 604 392 604 400.5 603.5 c 128,-1,1
EndSplineSet
EndChar

StartChar: K
Encoding: 75 75 41
Width: 527
Flags: W
LayerCount: 2
Fore
SplineSet
389 644.5 m 128,-1,1
 395 639 395 639 395.5 631 c 128,-1,2
 396 623 396 623 391 616 c 2,3,-1
 348 566 l 2,4,5
 305 516 305 516 270 469 c 0,6,7
 234 420 234 420 190 371 c 0,8,9
 145 322 145 322 114 298 c 0,10,11
 113 297 113 297 110 295 c 1,12,13
 129 285 129 285 163 266 c 0,14,15
 216 237 216 237 265 200 c 0,16,17
 314 164 314 164 355 134 c 0,18,19
 396 103 396 103 412 92 c 0,20,21
 430 80 430 80 444 70 c 128,-1,22
 458 60 458 60 467 54 c 0,23,24
 476 47 476 47 483 40 c 2,25,-1
 489 35 l 2,26,27
 495 29 495 29 495.5 21 c 128,-1,28
 496 13 496 13 490.5 7 c 128,-1,29
 485 1 485 1 476.5 0.5 c 128,-1,30
 468 0 468 0 462 5 c 2,31,-1
 456 11 l 2,32,33
 450 16 450 16 443 22 c 1,34,35
 434 28 434 28 421 37.5 c 128,-1,36
 408 47 408 47 390 59 c 0,37,38
 373 71 373 71 331 101 c 1,39,40
 290 132 290 132 242 168 c 0,41,42
 194 203 194 203 144 231 c 0,43,44
 92 260 92 260 79 266 c 0,45,46
 78 267 78 267 77 267 c 0,47,48
 76 245 76 245 75 223 c 0,49,50
 71 145 71 145 72 106 c 2,51,-1
 73 66 l 2,52,53
 73 58 73 58 67.5 51.5 c 128,-1,54
 62 45 62 45 54 45 c 128,-1,55
 46 45 46 45 39.5 51 c 128,-1,56
 33 57 33 57 33 65 c 2,57,-1
 32 105 l 2,58,59
 31 146 31 146 35 225 c 256,60,61
 39 304 39 304 44 401 c 1,62,63
 50 497 50 497 52 553 c 0,64,65
 54 612 54 612 56 622 c 2,66,-1
 58 630 l 2,67,68
 60 638 60 638 67 642.5 c 128,-1,69
 74 647 74 647 82 645 c 128,-1,70
 90 643 90 643 94.5 636 c 128,-1,71
 99 629 99 629 97 621 c 2,72,-1
 95 613 l 1,73,74
 94 604 94 604 92 552 c 0,75,76
 90 496 90 496 84 399 c 0,77,78
 82 359 82 359 80 321 c 1,79,80
 84 325 84 325 90 329 c 0,81,82
 117 351 117 351 160 398 c 0,83,84
 203 446 203 446 238 493 c 0,85,86
 274 541 274 541 318 592 c 2,87,-1
 361 642 l 2,88,89
 366 649 366 649 374.5 649.5 c 128,-1,0
 383 650 383 650 389 644.5 c 128,-1,1
EndSplineSet
EndChar

StartChar: L
Encoding: 76 76 42
Width: 506
Flags: W
LayerCount: 2
Fore
SplineSet
73 637.5 m 128,-1,1
 81 636 81 636 85.5 628.5 c 128,-1,2
 90 621 90 621 88 613 c 2,3,-1
 85 600 l 2,4,5
 82 588 82 588 79 535 c 0,6,7
 76 480 76 480 74 387 c 1,8,9
 71 295 71 295 73 218 c 256,10,11
 75 141 75 141 80 105 c 0,12,13
 85 75 85 75 100 59 c 0,14,15
 116 43 116 43 157 33 c 0,16,17
 200 23 200 23 275 29 c 0,18,19
 351 36 351 36 393 46 c 0,20,21
 438 57 438 57 447 57 c 2,22,-1
 454 57 l 2,23,24
 462 57 462 57 468 51.5 c 128,-1,25
 474 46 474 46 474 38 c 128,-1,26
 474 30 474 30 468.5 23.5 c 128,-1,27
 463 17 463 17 455 17 c 2,28,-1
 448 17 l 1,29,30
 440 16 440 16 402 7 c 0,31,32
 358 -4 358 -4 278 -11 c 0,33,34
 197 -18 197 -18 148 -6 c 0,35,36
 95 7 95 7 71.5 31.5 c 128,-1,37
 48 56 48 56 41 99 c 0,38,39
 35 138 35 138 33 216.5 c 128,-1,40
 31 295 31 295 34 388 c 0,41,42
 36 481 36 481 39 537 c 256,43,44
 42 593 42 593 46 609 c 2,45,-1
 49 622 l 2,46,47
 51 630 51 630 58 634.5 c 128,-1,0
 65 639 65 639 73 637.5 c 128,-1,1
EndSplineSet
EndChar

StartChar: M
Encoding: 77 77 43
Width: 690
Flags: W
LayerCount: 2
Fore
SplineSet
59 28 m 128,-1,1
 51 27 51 27 44.5 32.5 c 128,-1,2
 38 38 38 38 38 46 c 2,3,-1
 35 78 l 1,4,5
 33 111 33 111 32 188 c 0,6,7
 32 264 32 264 33 329 c 0,8,9
 35 395 35 395 37 470 c 256,10,11
 39 545 39 545 42 583 c 0,12,13
 44 619 44 619 44 625 c 0,14,15
 44 638 44 638 49.5 642.5 c 128,-1,16
 55 647 55 647 62 645 c 128,-1,17
 69 643 69 643 76.5 639 c 128,-1,18
 84 635 84 635 89 630 c 2,19,-1
 94 626 l 1,20,21
 108 608 108 608 131 576 c 0,22,23
 155 544 155 544 183 498 c 0,24,25
 212 452 212 452 237 407 c 0,26,27
 262 364 262 364 292 316 c 0,28,29
 323 268 323 268 341 230 c 0,30,31
 359 194 359 194 372 174 c 0,32,33
 375 169 375 169 378 165 c 1,34,35
 383 182 383 182 390 207 c 0,36,37
 411 280 411 280 439 347 c 0,38,39
 466 414 466 414 501 482 c 0,40,41
 535 550 535 550 561 599 c 0,42,43
 561 600 561 600 564.5 608 c 128,-1,44
 568 616 568 616 570 619 c 128,-1,45
 572 622 572 622 576 627 c 128,-1,46
 580 632 580 632 585 634 c 128,-1,47
 590 636 590 636 597 637 c 0,48,49
 602 637 602 637 606 636 c 128,-1,50
 610 635 610 635 613 633 c 128,-1,51
 616 631 616 631 618 628.5 c 128,-1,52
 620 626 620 626 621 623 c 128,-1,53
 622 620 622 620 623 617 c 128,-1,54
 624 614 624 614 624 611 c 128,-1,55
 624 608 624 608 624 606 c 128,-1,56
 624 604 624 604 624 601.5 c 128,-1,57
 624 599 624 599 624 599 c 1,58,59
 625 559 625 559 623 506 c 0,60,61
 622 454 622 454 626 399 c 256,62,63
 630 344 630 344 635 254 c 0,64,65
 640 166 640 166 646 125 c 1,66,67
 651 83 651 83 653 70 c 0,68,69
 655 55 655 55 656 43 c 0,70,71
 656 32 656 32 657 18 c 2,72,-1
 659 3 l 1,73,74
 659 -5 659 -5 653.5 -11.5 c 128,-1,75
 648 -18 648 -18 640 -18.5 c 128,-1,76
 632 -19 632 -19 625.5 -13.5 c 128,-1,77
 619 -8 619 -8 619 0 c 1,78,-1
 617 15 l 2,79,80
 616 30 616 30 616 41 c 1,81,82
 615 51 615 51 613 64 c 0,83,84
 611 78 611 78 606 120 c 256,85,86
 601 162 601 162 595 252 c 0,87,88
 590 341 590 341 586 397 c 256,89,90
 582 453 582 453 583 507 c 0,91,92
 584 534 584 534 584 558 c 1,93,94
 563 515 563 515 537 464 c 0,95,96
 503 398 503 398 476 332.5 c 128,-1,97
 449 267 449 267 429 196 c 0,98,99
 408 124 408 124 404 115 c 0,100,101
 402 109 402 109 393 103.5 c 128,-1,102
 384 98 384 98 374 103 c 0,103,104
 365 107 365 107 358 119 c 0,105,106
 352 131 352 131 339 152 c 0,107,108
 324 175 324 175 306 212 c 0,109,110
 288 248 288 248 258 295 c 0,111,112
 228 343 228 343 205 383 c 0,113,114
 178 431 178 431 149 477 c 0,115,116
 121 522 121 522 99 553 c 0,117,118
 89 566 89 566 81 576 c 1,119,120
 79 540 79 540 77 469 c 0,121,122
 75 392 75 392 73 328 c 1,123,124
 72 263 72 263 72 188 c 0,125,126
 73 113 73 113 75 82 c 2,127,-1
 78 50 l 2,128,129
 78 41 78 41 72.5 35 c 128,-1,0
 67 29 67 29 59 28 c 128,-1,1
EndSplineSet
EndChar

StartChar: N
Encoding: 78 78 44
Width: 543
Flags: W
LayerCount: 2
Fore
SplineSet
75 560 m 1,0,-1
 74 545 l 1,1,2
 73 496 73 496 72 401 c 256,3,4
 71 306 71 306 76 194 c 0,5,6
 82 82 82 82 82 53 c 0,7,8
 82 26 82 26 83 20 c 2,9,-1
 84 13 l 2,10,11
 85 5 85 5 79.5 -1.5 c 128,-1,12
 74 -8 74 -8 66 -9 c 128,-1,13
 58 -10 58 -10 51.5 -4.5 c 128,-1,14
 45 1 45 1 44 9 c 2,15,-1
 43 16 l 2,16,17
 42 24 42 24 42 53 c 0,18,19
 42 80 42 80 36 192 c 1,20,21
 31 305 31 305 32 401 c 256,22,23
 33 497 33 497 34 546 c 2,24,-1
 36 595 l 2,25,26
 36 603 36 603 42 608.5 c 128,-1,27
 48 614 48 614 56 614 c 128,-1,28
 64 614 64 614 70 608 c 1,29,30
 77 611 77 611 84.5 609 c 128,-1,31
 92 607 92 607 96 601 c 2,32,-1
 121 562 l 1,33,34
 145 522 145 522 196 439.5 c 128,-1,35
 247 357 247 357 288 289 c 256,36,37
 329 221 329 221 367 166.5 c 128,-1,38
 405 112 405 112 428 85 c 0,39,40
 439 71 439 71 448 60 c 1,41,42
 449 66 449 66 449 69 c 0,43,44
 453 115 453 115 457.5 186.5 c 128,-1,45
 462 258 462 258 463 337 c 0,46,47
 465 416 465 416 468 475 c 0,48,49
 471 533 471 533 471 575 c 0,50,51
 472 617 472 617 471 624 c 2,52,-1
 470 633 l 2,53,54
 470 641 470 641 475.5 647 c 128,-1,55
 481 653 481 653 489 654 c 128,-1,56
 497 655 497 655 503.5 649.5 c 128,-1,57
 510 644 510 644 510 635 c 1,58,-1
 511 627 l 2,59,60
 512 618 512 618 511 574 c 0,61,62
 511 531 511 531 508 473 c 0,63,64
 505 414 505 414 503 336 c 0,65,66
 501 256 501 256 497 184 c 128,-1,67
 493 112 493 112 489 65 c 0,68,69
 484 18 484 18 483 10 c 1,70,71
 479 -5 479 -5 462.5 -5 c 128,-1,72
 446 -5 446 -5 441 4 c 0,73,74
 437 12 437 12 430 20 c 0,75,76
 421 31 421 31 397 59 c 0,77,78
 373 88 373 88 334.5 143.5 c 128,-1,79
 296 199 296 199 254 268 c 0,80,81
 213 337 213 337 162 419 c 128,-1,82
 111 501 111 501 87 540 c 2,83,-1
 75 560 l 1,0,-1
EndSplineSet
EndChar

StartChar: O
Encoding: 79 79 45
Width: 551
Flags: W
LayerCount: 2
Fore
SplineSet
234 582 m 1,0,1
 216 575 216 575 200 566 c 0,2,3
 163 545 163 545 123.5 487 c 128,-1,4
 84 429 84 429 75 378 c 0,5,6
 66 328 66 328 87 269 c 0,7,8
 109 208 109 208 148 156 c 0,9,10
 186 104 186 104 227 78 c 0,11,12
 267 53 267 53 304 53 c 0,13,14
 341 54 341 54 373 76 c 1,15,16
 407 101 407 101 431 136 c 0,17,18
 455 172 455 172 468 234 c 0,19,20
 481 298 481 298 479 345 c 128,-1,21
 477 392 477 392 459 452 c 0,22,23
 442 510 442 510 416 539 c 0,24,25
 393 565 393 565 327 566 c 2,26,-1
 253 568 l 2,27,28
 239 569 239 569 234 582 c 1,0,1
424 584 m 1,29,30
 437 576 437 576 446 566 c 0,31,32
 478 530 478 530 498 463 c 0,33,34
 517 398 517 398 519 346.5 c 128,-1,35
 521 295 521 295 507 226 c 0,36,37
 493 156 493 156 464 114 c 0,38,39
 436 73 436 73 396 44 c 0,40,41
 354 14 354 14 305 13 c 0,42,43
 256 13 256 13 206 44 c 0,44,45
 158 74 158 74 116 132 c 0,46,47
 74 189 74 189 50 255 c 0,48,49
 25 324 25 324 35 385 c 1,50,51
 46 445 46 445 90.5 510 c 128,-1,52
 135 575 135 575 180 600 c 1,53,54
 224 626 224 626 274 632 c 0,55,56
 305 636 305 636 331 635 c 0,57,58
 347 635 347 635 361 633 c 0,59,60
 397 629 397 629 411 626 c 2,61,-1
 424 623 l 2,62,63
 432 621 432 621 436.5 613.5 c 128,-1,64
 441 606 441 606 439 598 c 0,65,66
 436 588 436 588 424 584 c 1,29,30
EndSplineSet
EndChar

StartChar: P
Encoding: 80 80 46
Width: 521
Flags: W
LayerCount: 2
Fore
SplineSet
62 628.5 m 128,-1,1
 70 628 70 628 75.5 621.5 c 128,-1,2
 81 615 81 615 80 607 c 2,3,-1
 79 592 l 1,4,5
 85 596 85 596 96 603 c 0,6,7
 126 624 126 624 180 637 c 0,8,9
 233 649 233 649 287 643 c 0,10,11
 343 636 343 636 385 609 c 1,12,13
 425 582 425 582 450 550 c 1,14,15
 474 517 474 517 485 475 c 1,16,17
 495 431 495 431 483 397 c 0,18,19
 472 364 472 364 442 333 c 1,20,21
 413 301 413 301 372 283 c 0,22,23
 333 266 333 266 291 260 c 0,24,25
 251 254 251 254 202.5 252 c 128,-1,26
 154 250 154 250 120 251 c 0,27,28
 98 252 98 252 85 253 c 1,29,30
 85 249 85 249 85 245 c 0,31,32
 94 163 94 163 101 100 c 1,33,34
 109 38 109 38 113 18 c 2,35,-1
 118 -3 l 2,36,37
 120 -11 120 -11 115.5 -18 c 128,-1,38
 111 -25 111 -25 103 -27 c 128,-1,39
 95 -29 95 -29 88 -24.5 c 128,-1,40
 81 -20 81 -20 79 -12 c 2,41,-1
 74 9 l 2,42,43
 69 31 69 31 62 95 c 0,44,45
 54 159 54 159 46 241 c 0,46,47
 45 251 45 251 44 261 c 1,48,49
 36 268 36 268 37 278 c 0,50,51
 38 284 38 284 41 288 c 1,52,53
 36 345 36 345 34 398 c 0,54,55
 30 473 30 473 35 543 c 2,56,-1
 40 610 l 2,57,58
 41 619 41 619 47.5 624 c 128,-1,0
 54 629 54 629 62 628.5 c 128,-1,1
81 294 m 1,59,60
 96 292 96 292 122 291 c 0,61,62
 154 290 154 290 200.5 292 c 128,-1,63
 247 294 247 294 286 299 c 0,64,65
 321 304 321 304 356 320 c 0,66,67
 390 335 390 335 413.5 360 c 128,-1,68
 437 385 437 385 446 410 c 0,69,70
 454 433 454 433 446 465 c 0,71,72
 438 499 438 499 418 525 c 0,73,74
 397 552 397 552 363 575 c 256,75,76
 329 598 329 598 283 603 c 0,77,78
 235 609 235 609 189 598 c 256,79,80
 143 587 143 587 118 570 c 0,81,82
 93 552 93 552 88 547 c 2,83,-1
 81 540 l 2,84,85
 78 537 78 537 75 535 c 1,86,87
 70 470 70 470 74 400 c 0,88,89
 76 349 76 349 81 294 c 1,59,60
EndSplineSet
EndChar

StartChar: Q
Encoding: 81 81 47
Width: 634
Flags: W
LayerCount: 2
Fore
SplineSet
405 153 m 128,-1,1
 412 157 412 157 420 154.5 c 128,-1,2
 428 152 428 152 432 145 c 2,3,-1
 438 135 l 2,4,5
 442 127 442 127 473 90 c 1,6,7
 484 112 484 112 493 140 c 0,8,9
 510 191 510 191 514 242 c 0,10,11
 518 294 518 294 515 349 c 0,12,13
 513 403 513 403 503 448 c 0,14,15
 494 491 494 491 467 526.5 c 128,-1,16
 440 562 440 562 404 580 c 0,17,18
 390 588 390 588 376 593 c 0,19,20
 373 594 373 594 369 595 c 1,21,-1
 351 594 l 2,22,23
 343 593 343 593 336 592 c 0,24,25
 307 590 307 590 278 585 c 0,26,27
 244 579 244 579 195 550 c 0,28,29
 146 522 146 522 118 477 c 1,30,31
 90 430 90 430 78 369 c 256,32,33
 66 308 66 308 80 239 c 0,34,35
 94 169 94 169 116 123 c 0,36,37
 137 78 137 78 168 48 c 0,38,39
 198 19 198 19 240 6 c 256,40,41
 282 -7 282 -7 328 -6 c 0,42,43
 372 -5 372 -5 401 11 c 0,44,45
 429 27 429 27 451 54 c 1,46,47
 449 56 449 56 446.5 58.5 c 128,-1,48
 444 61 444 61 444 62 c 0,49,50
 408 104 408 104 402 116 c 2,51,-1
 397 126 l 2,52,53
 393 133 393 133 395.5 141 c 128,-1,0
 398 149 398 149 405 153 c 128,-1,1
405 624 m 1,54,55
 414 620 414 620 423 616 c 0,56,57
 467 593 467 593 499.5 550.5 c 128,-1,58
 532 508 532 508 543 456 c 0,59,60
 553 408 553 408 555 350 c 1,61,62
 558 293 558 293 554 239 c 0,63,64
 549 184 549 184 531 127 c 0,65,66
 518 86 518 86 501 57 c 1,67,68
 521 32 521 32 542 7 c 0,69,70
 576 -33 576 -33 587 -47 c 2,71,-1
 598 -60 l 2,72,73
 603 -67 603 -67 602 -75 c 128,-1,74
 601 -83 601 -83 595 -88.5 c 128,-1,75
 589 -94 589 -94 580.5 -93 c 128,-1,76
 572 -92 572 -92 567 -86 c 2,77,-1
 556 -72 l 2,78,79
 545 -58 545 -58 511 -18 c 0,80,81
 493 3 493 3 477 23 c 1,82,83
 452 -6 452 -6 421 -24 c 0,84,85
 383 -45 383 -45 329 -46 c 0,86,87
 276 -47 276 -47 228 -32 c 0,88,89
 177 -17 177 -17 140 19 c 0,90,91
 104 55 104 55 80 106 c 1,92,93
 55 156 55 156 40 231 c 0,94,95
 25 307 25 307 38 377 c 1,96,97
 52 446 52 446 84 498 c 0,98,99
 117 551 117 551 175 585 c 0,100,101
 231 618 231 618 272 624 c 0,102,103
 280 626 280 626 287 627 c 1,104,105
 292 643 292 643 308 642 c 2,106,-1
 341 640 l 2,107,108
 356 640 356 640 373 635 c 1,109,-1
 385 636 l 2,110,111
 399 637 399 637 405 624 c 1,54,55
EndSplineSet
EndChar

StartChar: R
Encoding: 82 82 48
Width: 543
Flags: W
LayerCount: 2
Fore
SplineSet
56 615.5 m 128,-1,1
 64 615 64 615 69.5 609 c 128,-1,2
 75 603 75 603 75 595 c 2,3,-1
 74 586 l 1,4,5
 89 599 89 599 138 621 c 0,6,7
 194 646 194 646 238 644 c 0,8,9
 282 641 282 641 330 611 c 0,10,11
 381 579 381 579 399 523 c 256,12,13
 417 467 417 467 400 423 c 0,14,15
 384 380 384 380 331 339 c 0,16,17
 285 304 285 304 242 292 c 1,18,19
 246 291 246 291 250 289 c 0,20,21
 301 266 301 266 342.5 234 c 128,-1,22
 384 202 384 202 425 154 c 0,23,24
 465 106 465 106 478 85 c 1,25,26
 489 65 489 65 499 47 c 0,27,28
 510 26 510 26 511 15 c 2,29,-1
 512 9 l 1,30,31
 512 0 512 0 506.5 -6 c 128,-1,32
 501 -12 501 -12 493 -12.5 c 128,-1,33
 485 -13 485 -13 478.5 -7.5 c 128,-1,34
 472 -2 472 -2 472 6 c 1,35,-1
 471 12 l 2,36,37
 470 17 470 17 464 28 c 0,38,39
 454 45 454 45 443 65 c 0,40,41
 433 83 433 83 394 128 c 0,42,43
 356 173 356 173 318 202 c 128,-1,44
 280 231 280 231 234 252 c 0,45,46
 207 265 207 265 184 273 c 1,47,48
 166 278 166 278 151 282 c 1,49,50
 120 283 120 283 108 286 c 0,51,52
 107 287 107 287 102.5 293 c 128,-1,53
 98 299 98 299 94.5 306.5 c 128,-1,54
 91 314 91 314 93.5 321 c 128,-1,55
 96 328 96 328 107 329 c 1,56,57
 117 331 117 331 156 322 c 1,58,59
 171 322 171 322 190 324 c 0,60,61
 205 326 205 326 223 329 c 0,62,63
 262 337 262 337 307 371 c 0,64,65
 351 405 351 405 363 437 c 0,66,67
 374 468 374 468 361 511 c 1,68,69
 347 553 347 553 309 577 c 0,70,71
 269 602 269 602 236 604 c 1,72,73
 202 605 202 605 154.5 584 c 128,-1,74
 107 563 107 563 99 554 c 2,75,-1
 88 540 l 2,76,77
 82 532 82 532 72 533 c 1,78,79
 71 487 71 487 74 408 c 0,80,81
 77 313 77 313 80 239.5 c 128,-1,82
 83 166 83 166 86 103 c 256,83,84
 89 40 89 40 91 24 c 2,85,-1
 93 7 l 2,86,87
 93 -1 93 -1 88 -7.5 c 128,-1,88
 83 -14 83 -14 75 -15 c 128,-1,89
 67 -16 67 -16 60.5 -10.5 c 128,-1,90
 54 -5 54 -5 53 3 c 2,91,-1
 51 19 l 2,92,93
 49 37 49 37 46 101 c 0,94,95
 43 164 43 164 40 238 c 256,96,97
 37 312 37 312 34 406 c 0,98,99
 31 501 31 501 33 549 c 2,100,-1
 35 597 l 2,101,102
 35 605 35 605 41.5 610.5 c 128,-1,0
 48 616 48 616 56 615.5 c 128,-1,1
EndSplineSet
EndChar

StartChar: S
Encoding: 83 83 49
Width: 481
Flags: W
LayerCount: 2
Fore
SplineSet
400.5 448.5 m 128,-1,1
 393 446 393 446 385.5 450 c 128,-1,2
 378 454 378 454 375 461 c 2,3,-1
 369 482 l 2,4,5
 363 500 363 500 346 534 c 0,6,7
 330 565 330 565 303 582 c 1,8,9
 276 601 276 601 225 609 c 0,10,11
 176 617 176 617 153 605 c 0,12,13
 128 593 128 593 111 569 c 1,14,15
 92 545 92 545 84 514 c 0,16,17
 76 487 76 487 86 454 c 0,18,19
 97 420 97 420 115 402 c 0,20,21
 132 384 132 384 172 373 c 0,22,23
 216 361 216 361 249 353 c 0,24,25
 284 345 284 345 319 328 c 1,26,27
 357 311 357 311 388 273 c 1,28,29
 418 238 418 238 431 213 c 0,30,31
 445 187 445 187 449 155 c 1,32,33
 452 120 452 120 439 98 c 0,34,35
 427 77 427 77 385 49 c 0,36,37
 343 22 343 22 297 15 c 0,38,39
 253 8 253 8 205 16 c 256,40,41
 157 24 157 24 121 48 c 128,-1,42
 85 72 85 72 60 112 c 0,43,44
 34 153 34 153 33 183 c 2,45,-1
 32 208 l 2,46,47
 32 217 32 217 37.5 223 c 128,-1,48
 43 229 43 229 51.5 229 c 128,-1,49
 60 229 60 229 66 223.5 c 128,-1,50
 72 218 72 218 72 210 c 2,51,-1
 73 185 l 2,52,53
 73 165 73 165 94 133 c 1,54,55
 114 100 114 100 143 81 c 128,-1,56
 172 62 172 62 212 55 c 1,57,58
 253 49 253 49 291 54 c 1,59,60
 328 60 328 60 363 83 c 0,61,62
 398 105 398 105 405 118 c 0,63,64
 411 129 411 129 409 151 c 0,65,66
 406 175 406 175 396 194 c 0,67,68
 385 215 385 215 357 248 c 0,69,70
 332 279 332 279 303 292 c 0,71,72
 271 307 271 307 240 314 c 0,73,74
 207 322 207 322 161 334 c 0,75,76
 110 348 110 348 86 374 c 256,77,78
 62 400 62 400 48 442 c 0,79,80
 34 486 34 486 45 525 c 0,81,82
 56 563 56 563 78 593 c 0,83,84
 102 624 102 624 135 641 c 0,85,86
 170 659 170 659 232 648 c 1,87,88
 291 639 291 639 325 616 c 0,89,90
 361 592 361 592 381 552 c 0,91,92
 400 516 400 516 407 494 c 2,93,-1
 413 473 l 2,94,95
 416 466 416 466 412 458.5 c 128,-1,0
 408 451 408 451 400.5 448.5 c 128,-1,1
EndSplineSet
EndChar

StartChar: T
Encoding: 84 84 50
Width: 611
Flags: W
LayerCount: 2
Fore
SplineSet
306 589.5 m 128,-1,1
 314 588 314 588 318.5 581 c 128,-1,2
 323 574 323 574 322 566 c 2,3,-1
 318 542 l 2,4,5
 314 520 314 520 312 460 c 0,6,7
 310 401 310 401 310.5 328 c 128,-1,8
 311 255 311 255 313 197 c 1,9,10
 316 140 316 140 318 97 c 0,11,12
 320 57 320 57 321 44 c 0,13,14
 323 28 323 28 323 17 c 2,15,-1
 323 8 l 2,16,17
 323 0 323 0 317 -6 c 128,-1,18
 311 -12 311 -12 303 -12 c 128,-1,19
 295 -12 295 -12 289 -6 c 128,-1,20
 283 0 283 0 283 8 c 2,21,-1
 283 17 l 2,22,23
 283 25 283 25 282 39 c 0,24,25
 280 54 280 54 278 95 c 0,26,27
 276 138 276 138 273 195 c 1,28,29
 271 254 271 254 270.5 327.5 c 128,-1,30
 270 401 270 401 272 462 c 0,31,32
 275 524 275 524 279 549 c 2,33,-1
 283 573 l 2,34,35
 284 581 284 581 291 586 c 128,-1,0
 298 591 298 591 306 589.5 c 128,-1,1
32.5 605 m 128,-1,37
 33 613 33 613 39 618.5 c 128,-1,38
 45 624 45 624 53 624 c 2,39,-1
 60 624 l 1,40,41
 65 623 65 623 90 626 c 0,42,43
 118 629 118 629 197 631 c 0,44,45
 275 632 275 632 333.5 633.5 c 128,-1,46
 392 635 392 635 440 636 c 256,47,48
 488 637 488 637 509 638 c 1,49,50
 533 638 533 638 549 635 c 2,51,-1
 564 632 l 2,52,53
 572 631 572 631 576.5 624 c 128,-1,54
 581 617 581 617 579.5 609 c 128,-1,55
 578 601 578 601 571 596 c 128,-1,56
 564 591 564 591 556 593 c 2,57,-1
 542 596 l 2,58,59
 529 598 529 598 511 598 c 0,60,61
 489 597 489 597 441 596 c 256,62,63
 393 595 393 595 334 594 c 1,64,65
 276 592 276 592 198 591 c 0,66,67
 120 589 120 589 94 586 c 0,68,69
 65 583 65 583 57 584 c 1,70,-1
 51 584 l 1,71,72
 43 585 43 585 37.5 591 c 128,-1,36
 32 597 32 597 32.5 605 c 128,-1,37
EndSplineSet
EndChar

StartChar: U
Encoding: 85 85 51
Width: 530
Flags: W
LayerCount: 2
Fore
SplineSet
56.5 680.5 m 128,-1,1
 65 680 65 680 70 673.5 c 128,-1,2
 75 667 75 667 75 659 c 2,3,-1
 73 638 l 2,4,5
 72 618 72 618 72 577 c 0,6,7
 72 535 72 535 73.5 443.5 c 128,-1,8
 75 352 75 352 75 307 c 0,9,10
 75 263 75 263 79 223 c 0,11,12
 83 184 83 184 91.5 154.5 c 128,-1,13
 100 125 100 125 113 99 c 0,14,15
 124 75 124 75 138.5 62.5 c 128,-1,16
 153 50 153 50 176 42 c 256,17,18
 199 34 199 34 222 33 c 0,19,20
 246 32 246 32 274.5 39.5 c 128,-1,21
 303 47 303 47 330 65 c 0,22,23
 359 84 359 84 382 106 c 256,24,25
 405 128 405 128 419.5 151 c 128,-1,26
 434 174 434 174 444 204 c 0,27,28
 455 234 455 234 457 266 c 0,29,30
 460 300 460 300 457 333 c 0,31,32
 454 368 454 368 451 391.5 c 128,-1,33
 448 415 448 415 442 450 c 0,34,35
 436 486 436 486 433 510 c 256,36,37
 430 534 430 534 428 553 c 1,38,39
 425 571 425 571 425 583 c 1,40,-1
 424 594 l 2,41,42
 424 603 424 603 430 609 c 128,-1,43
 436 615 436 615 444 615 c 128,-1,44
 452 615 452 615 458 609.5 c 128,-1,45
 464 604 464 604 464 596 c 2,46,-1
 465 585 l 2,47,48
 465 574 465 574 467 557 c 0,49,50
 469 539 469 539 472 515 c 128,-1,51
 475 491 475 491 481 457 c 0,52,53
 487 421 487 421 490.5 396.5 c 128,-1,54
 494 372 494 372 497 337 c 0,55,56
 500 300 500 300 497 263 c 0,57,58
 494 225 494 225 482 191 c 256,59,60
 470 157 470 157 453 130 c 128,-1,61
 436 103 436 103 410 77 c 0,62,63
 384 52 384 52 352 31 c 0,64,65
 319 10 319 10 284 1 c 0,66,67
 250 -8 250 -8 221 -7 c 0,68,69
 191 -5 191 -5 163 4 c 0,70,71
 133 14 133 14 112 32 c 0,72,73
 91 51 91 51 77 82 c 0,74,75
 63 111 63 111 53.5 144 c 128,-1,76
 44 177 44 177 39 219 c 0,77,78
 35 261 35 261 35 307 c 0,79,80
 35 351 35 351 34 443 c 1,81,82
 32 534 32 534 32 577 c 256,83,84
 32 620 32 620 33 641 c 2,85,-1
 35 662 l 2,86,87
 36 670 36 670 42 675.5 c 128,-1,0
 48 681 48 681 56.5 680.5 c 128,-1,1
EndSplineSet
EndChar

StartChar: V
Encoding: 86 86 52
Width: 529
Flags: W
LayerCount: 2
Fore
SplineSet
43.5 641 m 128,-1,1
 51 644 51 644 59 641 c 128,-1,2
 67 638 67 638 70 631 c 2,3,-1
 86 597 l 2,4,5
 101 563 101 563 125 504.5 c 128,-1,6
 149 446 149 446 176 377 c 0,7,8
 202 309 202 309 227 246 c 256,9,10
 252 183 252 183 265 150 c 0,11,12
 280 111 280 111 287 92 c 0,13,14
 289 86 289 86 292 81 c 1,15,16
 304 114 304 114 321 157 c 0,17,18
 339 204 339 204 354 264 c 0,19,20
 369 326 369 326 380.5 371.5 c 128,-1,21
 392 417 392 417 406.5 470.5 c 128,-1,22
 421 524 421 524 431 555 c 0,23,24
 440 585 440 585 445 603 c 0,25,26
 450 620 450 620 455 633 c 2,27,-1
 459 645 l 2,28,29
 461 652 461 652 469 656 c 128,-1,30
 477 660 477 660 484.5 657 c 128,-1,31
 492 654 492 654 495.5 646.5 c 128,-1,32
 499 639 499 639 497 631 c 1,33,-1
 492 620 l 1,34,35
 488 608 488 608 483 591 c 256,36,37
 478 574 478 574 469 543.5 c 128,-1,38
 460 513 460 513 445 460 c 0,39,40
 431 407 431 407 419 361.5 c 128,-1,41
 407 316 407 316 392 255 c 0,42,43
 377 192 377 192 358 143 c 256,44,45
 339 94 339 94 326 58 c 2,46,47
 326 58 326 58 324 52.5 c 128,-1,48
 322 47 322 47 321 44.5 c 128,-1,49
 320 42 320 42 316.5 35.5 c 128,-1,50
 313 29 313 29 310.5 27 c 128,-1,51
 308 25 308 25 303 21 c 128,-1,52
 298 17 298 17 293.5 18.5 c 128,-1,53
 289 20 289 20 281 21 c 1,54,55
 272 25 272 25 267 36 c 0,56,57
 259 53 259 53 250 78 c 0,58,59
 239 106 239 106 228 135 c 0,60,61
 215 169 215 169 190 231 c 0,62,63
 164 294 164 294 138 363 c 0,64,65
 112 431 112 431 88 489 c 128,-1,66
 64 547 64 547 49 581 c 2,67,-1
 34 615 l 2,68,69
 30 622 30 622 33 630 c 128,-1,0
 36 638 36 638 43.5 641 c 128,-1,1
EndSplineSet
EndChar

StartChar: W
Encoding: 87 87 53
Width: 738
Flags: W
LayerCount: 2
Fore
SplineSet
49 602.5 m 128,-1,1
 57 604 57 604 64 599 c 128,-1,2
 71 594 71 594 72 585 c 2,3,-1
 77 551 l 2,4,5
 81 518 81 518 95 463 c 0,6,7
 108 408 108 408 129 332 c 0,8,9
 149 256 149 256 163 201 c 0,10,11
 176 148 176 148 185 122 c 0,12,13
 189 108 189 108 193 98 c 1,14,15
 206 137 206 137 220 188 c 0,16,17
 235 245 235 245 255 311 c 0,18,19
 275 376 275 376 290 431 c 0,20,21
 305 485 305 485 320 543 c 0,22,23
 334 598 334 598 336 612 c 1,24,25
 337 627 337 627 348 632 c 0,26,27
 363 639 363 639 372.5 631 c 128,-1,28
 382 623 382 623 384 611 c 2,29,-1
 387 599 l 1,30,31
 397 568 397 568 418 503 c 0,32,33
 439 439 439 439 457 386 c 128,-1,34
 475 333 475 333 490 292 c 128,-1,35
 505 251 505 251 523 206 c 0,36,37
 541 163 541 163 551 144 c 1,38,39
 560 176 560 176 573 223 c 1,40,41
 588 283 588 283 599 335 c 1,42,43
 609 388 609 388 621 453 c 0,44,45
 632 518 632 518 638 554 c 1,46,47
 643 592 643 592 651 623 c 0,48,49
 659 655 659 655 664 667 c 1,50,-1
 669 676 l 1,51,52
 672 684 672 684 680 686.5 c 128,-1,53
 688 689 688 689 695.5 685.5 c 128,-1,54
 703 682 703 682 705.5 674.5 c 128,-1,55
 708 667 708 667 705 659 c 1,56,-1
 700 650 l 1,57,58
 697 642 697 642 690 613 c 256,59,60
 683 584 683 584 677 549 c 1,61,62
 672 512 672 512 660.5 446.5 c 128,-1,63
 649 381 649 381 638 327 c 256,64,65
 627 273 627 273 611.5 213 c 128,-1,66
 596 153 596 153 584 117 c 0,67,68
 584 116 584 116 582.5 110.5 c 128,-1,69
 581 105 581 105 579.5 101 c 128,-1,70
 578 97 578 97 575 90.5 c 128,-1,71
 572 84 572 84 568 81.5 c 128,-1,72
 564 79 564 79 557.5 76.5 c 128,-1,73
 551 74 551 74 544 78 c 1,74,75
 533 82 533 82 529 94 c 0,76,77
 524 107 524 107 515 126 c 0,78,79
 505 146 505 146 486 191 c 0,80,81
 468 236 468 236 453 277.5 c 128,-1,82
 438 319 438 319 419.5 372.5 c 128,-1,83
 401 426 401 426 380 491 c 0,84,85
 370 522 370 522 362 546 c 1,86,87
 360 540 360 540 358 533 c 0,88,89
 343 475 343 475 328 420 c 256,90,91
 313 365 313 365 293 299 c 0,92,93
 274 234 274 234 258 177 c 256,94,95
 242 120 242 120 229 77 c 1,96,97
 229 77 229 77 212 45 c 1,98,99
 188 9 188 9 173 43 c 0,100,101
 169 53 169 53 163 67 c 0,102,103
 156 82 156 82 147 109.5 c 128,-1,104
 138 137 138 137 124 192 c 0,105,106
 111 246 111 246 90 322 c 256,107,108
 69 398 69 398 56 454 c 0,109,110
 42 510 42 510 37 546 c 2,111,-1
 32 580 l 2,112,113
 31 588 31 588 36 594.5 c 128,-1,0
 41 601 41 601 49 602.5 c 128,-1,1
EndSplineSet
EndChar

StartChar: X
Encoding: 88 88 54
Width: 494
Flags: W
LayerCount: 2
Fore
SplineSet
438.5 659.5 m 128,-1,1
 445 655 445 655 447 647 c 128,-1,2
 449 639 449 639 445 632 c 2,3,-1
 423 596 l 2,4,5
 401 561 401 561 369.5 504.5 c 128,-1,6
 338 448 338 448 311 396 c 0,7,8
 291 358 291 358 266 310 c 1,9,10
 271 300 271 300 278 289 c 0,11,12
 314 228 314 228 339 191 c 1,13,14
 365 155 365 155 388 124.5 c 128,-1,15
 411 94 411 94 421 80 c 1,16,17
 433 66 433 66 445 50 c 2,18,-1
 459 33 l 2,19,20
 464 26 464 26 463 18 c 128,-1,21
 462 10 462 10 455.5 5 c 128,-1,22
 449 0 449 0 440.5 1 c 128,-1,23
 432 2 432 2 427 8 c 2,24,-1
 414 25 l 2,25,26
 401 42 401 42 390 56 c 128,-1,27
 379 70 379 70 356 100 c 0,28,29
 332 131 332 131 306 168.5 c 128,-1,30
 280 206 280 206 244 268 c 1,31,32
 216 216 216 216 199 186 c 0,33,34
 179 152 179 152 159 118 c 0,35,36
 139 85 139 85 129 70 c 0,37,38
 120 57 120 57 116 49 c 0,39,40
 111 40 111 40 107 32 c 1,41,-1
 103 26 l 2,42,43
 99 19 99 19 91 17 c 128,-1,44
 83 15 83 15 76 19 c 128,-1,45
 69 23 69 23 67 31.5 c 128,-1,46
 65 40 65 40 69 47 c 2,47,-1
 73 53 l 2,48,49
 76 59 76 59 81 67 c 1,50,51
 86 78 86 78 96 93 c 0,52,53
 105 106 105 106 125 139 c 256,54,55
 145 172 145 172 164.5 205.5 c 128,-1,56
 184 239 184 239 215 300 c 0,57,58
 216 301 216 301 217.5 304 c 128,-1,59
 219 307 219 307 220 308 c 1,60,61
 195 349 195 349 170 390 c 0,62,63
 133 451 133 451 95 506 c 0,64,65
 55 563 55 563 44 583 c 2,66,-1
 34 601 l 2,67,68
 30 608 30 608 32.5 616 c 128,-1,69
 35 624 35 624 42.5 628 c 128,-1,70
 50 632 50 632 58 629.5 c 128,-1,71
 66 627 66 627 70 620 c 2,72,-1
 80 601 l 2,73,74
 89 584 89 584 127 529 c 1,75,76
 167 473 167 473 204 411 c 0,77,78
 223 381 223 381 241 350 c 1,79,80
 262 388 262 388 275 414 c 0,81,82
 303 467 303 467 335 524 c 128,-1,83
 367 581 367 581 389 617 c 2,84,-1
 411 653 l 2,85,86
 415 660 415 660 423.5 662 c 128,-1,0
 432 664 432 664 438.5 659.5 c 128,-1,1
EndSplineSet
EndChar

StartChar: Y
Encoding: 89 89 55
Width: 587
Flags: W
LayerCount: 2
Fore
SplineSet
551 639.5 m 128,-1,1
 556 633 556 633 555 625 c 128,-1,2
 554 617 554 617 547 612 c 2,3,-1
 535 603 l 2,4,5
 525 595 525 595 500 568 c 128,-1,6
 475 541 475 541 444 495 c 128,-1,7
 413 449 413 449 395 408 c 256,8,9
 377 367 377 367 360 308 c 0,10,11
 348 265 348 265 339 219 c 1,12,13
 347 205 347 205 335 194 c 1,14,15
 334 189 334 189 333 183 c 0,16,17
 321 116 321 116 316 80 c 0,18,19
 310 44 310 44 308 31 c 256,20,21
 306 18 306 18 306 11 c 2,22,-1
 305 3 l 2,23,24
 305 -5 305 -5 299 -10.5 c 128,-1,25
 293 -16 293 -16 285 -16 c 128,-1,26
 277 -16 277 -16 271 -9.5 c 128,-1,27
 265 -3 265 -3 266 5 c 1,28,-1
 266 13 l 2,29,30
 266 22 266 22 268 36 c 256,31,32
 270 50 270 50 276 87 c 0,33,34
 282 123 282 123 293 190 c 0,35,36
 295 200 295 200 297 209 c 1,37,-1
 284 226 l 2,38,39
 261 256 261 256 239 295 c 0,40,41
 218 333 218 333 184 388 c 256,42,43
 150 443 150 443 111 499 c 0,44,45
 71 555 71 555 53 583 c 2,46,-1
 35 610 l 2,47,48
 31 617 31 617 32.5 625 c 128,-1,49
 34 633 34 633 41 637.5 c 128,-1,50
 48 642 48 642 56 640.5 c 128,-1,51
 64 639 64 639 69 632 c 2,52,-1
 87 605 l 2,53,54
 104 578 104 578 144 522 c 0,55,56
 184 465 184 465 218 409 c 256,57,58
 252 353 252 353 274 315 c 0,59,60
 291 286 291 286 307 262 c 1,61,62
 314 291 314 291 322 319 c 0,63,64
 339 381 339 381 358 424 c 0,65,66
 378 468 378 468 410.5 517 c 128,-1,67
 443 566 443 566 470.5 595 c 128,-1,68
 498 624 498 624 511 634 c 2,69,-1
 523 644 l 2,70,71
 529 649 529 649 537.5 647.5 c 128,-1,0
 546 646 546 646 551 639.5 c 128,-1,1
EndSplineSet
EndChar

StartChar: Z
Encoding: 90 90 56
Width: 654
Flags: W
LayerCount: 2
Fore
SplineSet
41.5 628 m 128,-1,1
 43 636 43 636 50 641 c 128,-1,2
 57 646 57 646 65 644 c 2,3,-1
 71 643 l 2,4,5
 82 642 82 642 147 643 c 0,6,7
 219 645 219 645 299 652 c 0,8,9
 380 659 380 659 398 657 c 1,10,11
 433 650 433 650 420 602 c 0,12,13
 412 570 412 570 365 499 c 1,14,15
 320 429 320 429 285 383 c 1,16,17
 250 339 250 339 208 282 c 0,18,19
 167 225 167 225 140 185 c 0,20,21
 114 145 114 145 96 115 c 0,22,23
 78 86 78 86 73 76 c 1,24,25
 83 72 83 72 104 68 c 0,26,27
 144 62 144 62 181 62 c 0,28,29
 220 63 220 63 286 68 c 0,30,31
 354 74 354 74 414 74 c 1,32,33
 473 75 473 75 538 73 c 2,34,-1
 603 72 l 2,35,36
 611 72 611 72 617 66 c 128,-1,37
 623 60 623 60 623 51.5 c 128,-1,38
 623 43 623 43 616.5 37.5 c 128,-1,39
 610 32 610 32 602 32 c 2,40,-1
 537 33 l 1,41,42
 473 35 473 35 414 34 c 0,43,44
 356 34 356 34 290 28 c 1,45,46
 222 23 222 23 182 22 c 1,47,48
 141 22 141 22 98 29 c 0,49,50
 96 29 96 29 88 30 c 128,-1,51
 80 31 80 31 78 31.5 c 128,-1,52
 76 32 76 32 69.5 33.5 c 128,-1,53
 63 35 63 35 60.5 36 c 128,-1,54
 58 37 58 37 53.5 39 c 128,-1,55
 49 41 49 41 46.5 43 c 128,-1,56
 44 45 44 45 41 48.5 c 128,-1,57
 38 52 38 52 36 55 c 0,58,59
 27 74 27 74 37 93 c 0,60,61
 43 104 43 104 61.5 135 c 128,-1,62
 80 166 80 166 107 207 c 128,-1,63
 134 248 134 248 176 305.5 c 128,-1,64
 218 363 218 363 253 408 c 0,65,66
 287 452 287 452 331 521 c 1,67,68
 375 587 375 587 382 612 c 0,69,70
 382 614 382 614 383 617 c 1,71,72
 360 617 360 617 302 612 c 0,73,74
 221 605 221 605 148 604 c 0,75,76
 72 602 72 602 64 604 c 2,77,-1
 57 605 l 2,78,79
 49 606 49 606 44.5 613 c 128,-1,0
 40 620 40 620 41.5 628 c 128,-1,1
EndSplineSet
EndChar

StartChar: a
Encoding: 97 97 57
Width: 543
Flags: W
LayerCount: 2
Fore
SplineSet
318 353 m 1,0,1
 318 346 318 346 319 340 c 0,2,3
 320 317 320 317 325 292 c 0,4,5
 330 266 330 266 334 241 c 0,6,7
 338 217 338 217 341 199 c 0,8,9
 344 183 344 183 348 169 c 0,10,11
 353 154 353 154 361.5 131 c 128,-1,12
 370 108 370 108 376 95 c 0,13,14
 382 83 382 83 389 75 c 0,15,16
 397 64 397 64 403 58 c 0,17,18
 407 53 407 53 415 49 c 1,19,20
 420 45 420 45 426 45 c 0,21,22
 433 45 433 45 438 47 c 0,23,24
 442 49 442 49 446 56 c 1,25,26
 453 65 453 65 458 78 c 0,27,28
 464 92 464 92 467 105 c 0,29,30
 471 118 471 118 471 122 c 2,31,-1
 471 128 l 1,32,33
 472 137 472 137 478 142.5 c 128,-1,34
 484 148 484 148 492 147.5 c 128,-1,35
 500 147 500 147 506 141 c 128,-1,36
 512 135 512 135 511 127 c 1,37,-1
 511 120 l 1,38,39
 510 112 510 112 506 95 c 0,40,41
 502 80 502 80 495 63 c 256,42,43
 488 46 488 46 479 33 c 0,44,45
 468 17 468 17 454 11 c 0,46,47
 441 5 441 5 426 5 c 0,48,49
 409 5 409 5 394 14 c 0,50,51
 382 22 382 22 373 31 c 0,52,53
 366 39 366 39 357 50 c 0,54,55
 347 62 347 62 340 78 c 0,56,57
 334 92 334 92 324.5 116.5 c 128,-1,58
 315 141 315 141 310 157 c 256,59,60
 305 173 305 173 302 192 c 1,61,62
 299 204 299 204 297 220 c 1,63,64
 295 203 295 203 293 188 c 0,65,66
 290 158 290 158 286 130 c 0,67,68
 281 100 281 100 274 78 c 128,-1,69
 267 56 267 56 255 30 c 0,70,71
 242 3 242 3 229 -9 c 0,72,73
 213 -24 213 -24 194 -23 c 0,74,75
 180 -22 180 -22 161 -14 c 0,76,77
 141 -6 141 -6 125 6.5 c 128,-1,78
 109 19 109 19 98 32 c 256,79,80
 87 45 87 45 78 60 c 0,81,82
 68 76 68 76 58 105 c 256,83,84
 48 134 48 134 46 147 c 0,85,86
 45 157 45 157 38 191 c 0,87,88
 31 228 31 228 32 255 c 0,89,90
 34 282 34 282 42 310.5 c 128,-1,91
 50 339 50 339 66 367 c 0,92,93
 82 394 82 394 98 418 c 256,94,95
 114 442 114 442 122 450 c 1,96,97
 130 460 130 460 146 471 c 0,98,99
 161 481 161 481 180 492 c 0,100,101
 201 504 201 504 233 510 c 256,102,103
 265 516 265 516 290 512 c 0,104,105
 311 509 311 509 319 508 c 2,106,-1
 327 507 l 2,107,108
 336 506 336 506 341 500 c 128,-1,109
 346 494 346 494 345 486 c 0,110,111
 343 471 343 471 330 468 c 1,112,113
 336 461 336 461 336 453 c 256,114,115
 336 445 336 445 334 435 c 0,116,117
 333 428 333 428 329 407 c 0,118,119
 325 385 325 385 320 360 c 0,120,121
 319 356 319 356 318 353 c 1,0,1
303 470 m 1,122,123
 295 471 295 471 283 473 c 0,124,125
 266 476 266 476 241 471 c 0,126,127
 215 466 215 466 200 457 c 0,128,129
 182 447 182 447 169 438 c 0,130,131
 157 430 157 430 152 424 c 0,132,133
 146 417 146 417 131 395 c 0,134,135
 115 373 115 373 101 347 c 0,136,137
 87 323 87 323 80 299 c 128,-1,138
 73 275 73 275 72 253 c 0,139,140
 71 230 71 230 77 199 c 0,141,142
 84 165 84 165 86 152 c 0,143,144
 88 143 88 143 96 118 c 128,-1,145
 104 93 104 93 112 81 c 256,146,147
 120 69 120 69 128 58 c 1,148,149
 137 48 137 48 150 38 c 0,150,151
 162 29 162 29 176 23 c 0,152,153
 189 18 189 18 196 17 c 0,154,155
 199 17 199 17 202 20 c 0,156,157
 209 27 209 27 219 48 c 0,158,159
 230 70 230 70 236 89.5 c 128,-1,160
 242 109 242 109 246 136 c 0,161,162
 251 163 251 163 254 192 c 0,163,164
 257 222 257 222 260 250 c 0,165,166
 262 270 262 270 265 291 c 0,167,168
 267 301 267 301 269 311 c 0,169,170
 273 336 273 336 278 358 c 1,171,172
 278 373 278 373 280 390 c 0,173,174
 282 417 282 417 290 442 c 0,175,176
 296 462 296 462 303 470 c 1,122,123
EndSplineSet
EndChar

StartChar: b
Encoding: 98 98 58
Width: 480
Flags: W
LayerCount: 2
Fore
SplineSet
154 113 m 0,0,1
 157 93 157 93 158 77 c 1,2,3
 162 77 162 77 166 76 c 0,4,5
 194 72 194 72 220 70 c 256,6,7
 246 68 246 68 261 69 c 1,8,9
 274 71 274 71 294 81 c 0,10,11
 315 91 315 91 337 109 c 0,12,13
 358 127 358 127 377 153 c 0,14,15
 395 178 395 178 403 209.5 c 128,-1,16
 411 241 411 241 407 272 c 256,17,18
 403 303 403 303 384 341 c 256,19,20
 365 379 365 379 350 400 c 1,21,22
 334 420 334 420 313 437 c 1,23,24
 295 450 295 450 281 451 c 1,25,26
 266 451 266 451 249 440 c 0,27,28
 230 427 230 427 207.5 399 c 128,-1,29
 185 371 185 371 172 337 c 0,30,31
 160 303 160 303 155 268 c 0,32,33
 152 241 152 241 151 212 c 0,34,35
 150 202 150 202 150 192 c 0,36,37
 150 151 150 151 154 113 c 0,0,1
122 36 m 0,38,39
 122 40 122 40 121 43 c 1,40,41
 112 45 112 45 103 47 c 0,42,43
 74 53 74 53 60 57 c 2,44,-1
 46 61 l 2,45,46
 39 63 39 63 35 70 c 128,-1,47
 31 77 31 77 33 85 c 128,-1,48
 35 93 35 93 42.5 97 c 128,-1,49
 50 101 50 101 57 99 c 2,50,-1
 71 95 l 2,51,52
 84 92 84 92 111 86 c 0,53,54
 113 86 113 86 117 85 c 1,55,56
 116 96 116 96 114 108 c 0,57,58
 111 134 111 134 105 167 c 0,59,60
 101 191 101 191 98 215 c 0,61,62
 93 250 93 250 89 283 c 0,63,64
 82 339 82 339 80 393 c 0,65,66
 79 445 79 445 80 504 c 256,67,68
 81 563 81 563 85 599 c 256,69,70
 89 635 89 635 90 645 c 2,71,-1
 92 655 l 2,72,73
 94 663 94 663 100.5 668 c 128,-1,74
 107 673 107 673 115.5 671.5 c 128,-1,75
 124 670 124 670 128.5 663 c 128,-1,76
 133 656 133 656 132 648 c 2,77,-1
 130 638 l 2,78,79
 128 629 128 629 124 595 c 1,80,81
 121 560 121 560 120 503 c 256,82,83
 119 446 119 446 120 393 c 0,84,85
 121 358 121 358 125 320 c 1,86,87
 129 336 129 336 135 351 c 0,88,89
 149 391 149 391 175.5 424 c 128,-1,90
 202 457 202 457 227 474 c 1,91,92
 254 491 254 491 281 491 c 0,93,94
 309 490 309 490 337 468 c 0,95,96
 363 448 363 448 381 424 c 0,97,98
 400 400 400 400 420 358 c 0,99,100
 441 315 441 315 446 277 c 0,101,102
 452 239 452 239 442 200 c 128,-1,103
 432 161 432 161 410 129 c 1,104,105
 388 99 388 99 362 78 c 256,106,107
 336 57 336 57 312 45 c 0,108,109
 286 32 286 32 266 30 c 0,110,111
 246 27 246 27 217 30 c 0,112,113
 191 32 191 32 162 36 c 1,114,115
 164 20 164 20 164 13 c 1,116,117
 164 13 164 13 144 0 c 1,118,119
 128 -7 128 -7 125 5 c 0,120,121
 124 8 124 8 123 20 c 0,122,123
 123 26 123 26 122 36 c 0,38,39
EndSplineSet
EndChar

StartChar: c
Encoding: 99 99 59
Width: 432
Flags: W
LayerCount: 2
Fore
SplineSet
389.5 286.5 m 128,-1,1
 382 283 382 283 374 286 c 128,-1,2
 366 289 366 289 363 297 c 2,3,-1
 353 319 l 2,4,5
 343 341 343 341 333 361 c 0,6,7
 323 379 323 379 305 398 c 0,8,9
 289 414 289 414 254 418 c 0,10,11
 216 423 216 423 182 414 c 256,12,13
 148 405 148 405 137 396 c 0,14,15
 124 386 124 386 109 369 c 0,16,17
 96 353 96 353 87 327 c 0,18,19
 77 298 77 298 74 269 c 0,20,21
 70 240 70 240 75 207 c 128,-1,22
 80 174 80 174 96 142 c 0,23,24
 112 109 112 109 129 86 c 0,25,26
 145 64 145 64 155 57 c 0,27,28
 164 51 164 51 180 48 c 256,29,30
 196 45 196 45 207 47 c 0,31,32
 218 48 218 48 229 53 c 0,33,34
 240 57 240 57 254 65 c 0,35,36
 268 74 268 74 275 81 c 0,37,38
 283 88 283 88 290 97 c 256,39,40
 297 106 297 106 303 116 c 1,41,42
 309 129 309 129 313 137 c 128,-1,43
 317 145 317 145 320 151 c 2,44,-1
 323 157 l 2,45,46
 326 164 326 164 334 167 c 128,-1,47
 342 170 342 170 349.5 166.5 c 128,-1,48
 357 163 357 163 359.5 155 c 128,-1,49
 362 147 362 147 359 140 c 2,50,-1
 356 134 l 2,51,52
 353 127 353 127 349 119 c 128,-1,53
 345 111 345 111 338 98 c 0,54,55
 330 83 330 83 321 72 c 0,56,57
 313 62 313 62 303 52 c 0,58,59
 292 41 292 41 274 31 c 0,60,61
 258 21 258 21 243 15 c 256,62,63
 228 9 228 9 212 7 c 0,64,65
 195 5 195 5 172 9 c 256,66,67
 149 13 149 13 132 24 c 0,68,69
 116 35 116 35 97 62 c 0,70,71
 78 88 78 88 60 124 c 0,72,73
 42 162 42 162 35.5 201 c 128,-1,74
 29 240 29 240 34 274 c 0,75,76
 38 307 38 307 49 340 c 0,77,78
 61 373 61 373 79 395 c 0,79,80
 96 416 96 416 113 428 c 0,81,82
 131 441 131 441 172 452 c 0,83,84
 213 464 213 464 259 458 c 0,85,86
 308 452 308 452 333 426 c 0,87,88
 356 403 356 403 368 380 c 0,89,90
 379 359 379 359 389 336 c 2,91,-1
 399 313 l 2,92,93
 403 305 403 305 400 297.5 c 128,-1,0
 397 290 397 290 389.5 286.5 c 128,-1,1
EndSplineSet
EndChar

StartChar: d
Encoding: 100 100 60
Width: 551
Flags: W
LayerCount: 2
Fore
SplineSet
377 268 m 1,0,1
 377 246 377 246 379 223 c 0,2,3
 380 213 380 213 381 203 c 0,4,5
 383 181 383 181 385 159 c 0,6,7
 387 132 387 132 395 100 c 0,8,9
 404 66 404 66 408 54 c 1,10,11
 408 54 408 54 408 53 c 1,12,13
 414 55 414 55 421 59 c 0,14,15
 443 70 443 70 458 82 c 128,-1,16
 473 94 473 94 478 101 c 2,17,-1
 484 109 l 2,18,19
 489 115 489 115 497.5 116 c 128,-1,20
 506 117 506 117 512.5 112 c 128,-1,21
 519 107 519 107 519.5 98.5 c 128,-1,22
 520 90 520 90 515 84 c 2,23,-1
 509 76 l 2,24,25
 502 66 502 66 484 51 c 128,-1,26
 466 36 466 36 439 23 c 0,27,28
 438 23 438 23 432 19.5 c 128,-1,29
 426 16 426 16 424 15 c 128,-1,30
 422 14 422 14 416.5 12 c 128,-1,31
 411 10 411 10 407.5 10 c 128,-1,32
 404 10 404 10 399.5 11 c 128,-1,33
 395 12 395 12 390 14 c 0,34,35
 376 21 376 21 370 42 c 1,36,37
 365 55 365 55 357 90 c 1,38,39
 350 114 350 114 347 136 c 1,40,41
 338 111 338 111 326 89 c 0,42,43
 306 51 306 51 290 34 c 1,44,45
 272 17 272 17 240 5 c 0,46,47
 206 -8 206 -8 183 -2 c 256,48,49
 160 4 160 4 133 33 c 0,50,51
 109 59 109 59 91 94 c 0,52,53
 73 127 73 127 58 165 c 0,54,55
 43 204 43 204 36 246 c 0,56,57
 29 289 29 289 35 321 c 0,58,59
 41 354 41 354 55 376 c 0,60,61
 70 400 70 400 104 422 c 128,-1,62
 138 444 138 444 187 449 c 0,63,64
 236 453 236 453 279 435 c 1,65,66
 318 420 318 420 329 415 c 0,67,68
 330 415 330 415 330 415 c 129,-1,69
 330 415 330 415 331 415 c 1,70,71
 330 432 330 432 329 450 c 0,72,73
 327 498 327 498 328 544 c 0,74,75
 330 590 330 590 335 611 c 0,76,77
 336 613 336 613 338 615 c 128,-1,78
 340 617 340 617 345 622.5 c 128,-1,79
 350 628 350 628 355 630.5 c 128,-1,80
 360 633 360 633 365.5 635 c 128,-1,81
 371 637 371 637 374.5 633 c 128,-1,82
 378 629 378 629 379 620 c 128,-1,83
 380 611 380 611 379 594 c 1,84,85
 379 574 379 574 378 543 c 0,86,87
 378 512 378 512 380 486 c 1,88,89
 381 459 381 459 381.5 419.5 c 128,-1,90
 382 380 382 380 381 335 c 0,91,92
 380 298 380 298 377 268 c 1,0,1
333 372 m 1,93,94
 329 372 329 372 326 374 c 2,95,-1
 315 378 l 2,96,97
 304 382 304 382 264 398 c 0,98,99
 229 412 229 412 190.5 408.5 c 128,-1,100
 152 405 152 405 126 388 c 0,101,102
 99 371 99 371 89 355 c 256,103,104
 79 339 79 339 74 314 c 256,105,106
 69 289 69 289 76 253 c 1,107,108
 82 215 82 215 96 180 c 1,109,110
 109 144 109 144 126 112 c 0,111,112
 142 82 142 82 163 60 c 0,113,114
 181 40 181 40 193 37 c 0,115,116
 204 34 204 34 226 42 c 0,117,118
 250 51 250 51 261 63 c 0,119,120
 273 75 273 75 291 108 c 256,121,122
 309 141 309 141 320 182 c 0,123,124
 324 198 324 198 327 213 c 0,125,126
 333 237 333 237 335 258 c 0,127,128
 336 263 336 263 337 269 c 1,129,130
 337 280 337 280 337 289 c 0,131,132
 337 319 337 319 334 361 c 0,133,134
 334 366 334 366 333 372 c 1,93,94
EndSplineSet
EndChar

StartChar: e
Encoding: 101 101 61
Width: 440
Flags: W
LayerCount: 2
Fore
SplineSet
72 262 m 1,0,-1
 78 261 l 2,1,2
 84 261 84 261 110.5 262 c 128,-1,3
 137 263 137 263 188 270 c 1,4,5
 238 278 238 278 262 287 c 0,6,7
 285 296 285 296 297 307 c 0,8,9
 310 319 310 319 317 332 c 1,10,11
 323 341 323 341 322 352 c 0,12,13
 320 366 320 366 314 379 c 0,14,15
 309 391 309 391 289 409 c 1,16,17
 272 426 272 426 250 430 c 256,18,19
 228 434 228 434 190 420 c 0,20,21
 150 406 150 406 131 388 c 0,22,23
 110 368 110 368 96 346 c 1,24,25
 83 323 83 323 77 296 c 0,26,27
 73 279 73 279 72 262 c 1,0,-1
75 221 m 1,28,29
 79 206 79 206 84 190 c 0,30,31
 94 162 94 162 119 128 c 256,32,33
 144 94 144 94 165 72 c 1,34,35
 186 52 186 52 202 44 c 1,36,37
 215 36 215 36 232 37 c 1,38,39
 250 37 250 37 267 43 c 0,40,41
 285 49 285 49 295.5 56 c 128,-1,42
 306 63 306 63 322 79 c 256,43,44
 338 95 338 95 348 110 c 0,45,46
 359 126 359 126 365 136 c 2,47,-1
 371 147 l 2,48,49
 375 154 375 154 383 156 c 128,-1,50
 391 158 391 158 398 154 c 128,-1,51
 405 150 405 150 407.5 142 c 128,-1,52
 410 134 410 134 405 127 c 1,53,-1
 399 116 l 2,54,55
 392 104 392 104 381 87 c 0,56,57
 369 70 369 70 351 51 c 0,58,59
 332 31 332 31 317 22 c 128,-1,60
 302 13 302 13 280 5 c 0,61,62
 257 -3 257 -3 232 -3 c 0,63,64
 205 -4 205 -4 183 8 c 0,65,66
 162 19 162 19 137 44 c 0,67,68
 113 68 113 68 86 105 c 0,69,70
 59 143 59 143 47 176 c 128,-1,71
 35 209 35 209 33 240 c 0,72,73
 30 272 30 272 37.5 305 c 128,-1,74
 45 338 45 338 62 366 c 256,75,76
 79 394 79 394 103 417 c 0,77,78
 129 441 129 441 177 458 c 256,79,80
 225 475 225 475 257 469 c 0,81,82
 291 463 291 463 317 438 c 0,83,84
 342 415 342 415 351 395 c 0,85,86
 359 377 359 377 362 356 c 1,87,88
 364 332 364 332 352 311 c 1,89,90
 341 294 341 294 324 278 c 256,91,92
 307 262 307 262 277 250 c 0,93,94
 248 239 248 239 194 231 c 256,95,96
 140 223 140 223 112 222 c 128,-1,97
 84 221 84 221 76 221 c 2,98,-1
 75 221 l 1,28,29
EndSplineSet
EndChar

StartChar: f
Encoding: 102 102 62
Width: 442
Flags: W
LayerCount: 2
Fore
SplineSet
34 387 m 128,-1,1
 30 394 30 394 32.5 402 c 128,-1,2
 35 410 35 410 43 414 c 2,3,-1
 65 426 l 2,4,5
 89 439 89 439 135 452 c 0,6,7
 154 457 154 457 170 461 c 1,8,9
 171 492 171 492 174 511 c 0,10,11
 179 536 179 536 193 569 c 0,12,13
 207 603 207 603 229 623 c 0,14,15
 250 642 250 642 274.5 651.5 c 128,-1,16
 299 661 299 661 327 661 c 256,17,18
 355 661 355 661 379 650 c 2,19,-1
 398 641 l 2,20,21
 406 638 406 638 409 630 c 128,-1,22
 412 622 412 622 408.5 614.5 c 128,-1,23
 405 607 405 607 397 604 c 128,-1,24
 389 601 389 601 382 605 c 2,25,-1
 362 614 l 2,26,27
 346 621 346 621 327 621 c 0,28,29
 307 621 307 621 289 614.5 c 128,-1,30
 271 608 271 608 256 593 c 1,31,32
 241 580 241 580 229 553 c 1,33,34
 218 524 218 524 213 503 c 0,35,36
 211 491 211 491 210 469 c 1,37,38
 211 469 211 469 212 469 c 0,39,40
 244 474 244 474 255 473 c 0,41,42
 264 473 264 473 290 474 c 0,43,44
 318 475 318 475 346 476 c 2,45,-1
 375 477 l 2,46,47
 383 477 383 477 389 471.5 c 128,-1,48
 395 466 395 466 395.5 457.5 c 128,-1,49
 396 449 396 449 390.5 443 c 128,-1,50
 385 437 385 437 376 437 c 2,51,-1
 348 436 l 2,52,53
 319 435 319 435 292 434 c 0,54,55
 264 433 264 433 254 433 c 0,56,57
 246 433 246 433 218 429 c 0,58,59
 214 429 214 429 210 428 c 1,60,61
 210 386 210 386 212 348 c 0,62,63
 215 306 215 306 215 263 c 1,64,65
 214 222 214 222 215 202 c 0,66,67
 215 183 215 183 217 165 c 0,68,69
 220 146 220 146 221 134 c 0,70,71
 222 123 222 123 225 100 c 1,72,73
 230 75 230 75 230 62 c 0,74,75
 230 51 230 51 230 41 c 2,76,-1
 230 24 l 2,77,78
 230 15 230 15 229 5 c 1,79,-1
 227 -2 l 1,80,81
 226 -10 226 -10 219 -15 c 128,-1,82
 212 -20 212 -20 204 -18.5 c 128,-1,83
 196 -17 196 -17 191 -10 c 128,-1,84
 186 -3 186 -3 188 5 c 2,85,-1
 189 13 l 2,86,87
 190 19 190 19 190 24 c 2,88,-1
 190 41 l 2,89,90
 190 50 190 50 190 61 c 0,91,92
 190 70 190 70 186 91 c 0,93,94
 182 119 182 119 181 131 c 0,95,96
 180 142 180 142 178 160 c 0,97,98
 175 180 175 180 175 201 c 0,99,100
 174 222 174 222 175 264 c 0,101,102
 175 305 175 305 173 346 c 0,103,104
 171 381 171 381 170 419 c 1,105,106
 158 416 158 416 146 413 c 0,107,108
 104 401 104 401 84 390 c 1,109,-1
 61 379 l 2,110,111
 54 375 54 375 46 377.5 c 128,-1,0
 38 380 38 380 34 387 c 128,-1,1
EndSplineSet
EndChar

StartChar: g
Encoding: 103 103 63
Width: 503
Flags: W
LayerCount: 2
Fore
SplineSet
342 42 m 1,0,1
 313 20 313 20 278 -7 c 0,2,3
 192 -75 192 -75 168 -114 c 0,4,5
 148 -147 148 -147 147 -158 c 1,6,7
 149 -165 149 -165 165 -177 c 0,8,9
 184 -190 184 -190 213 -193 c 1,10,11
 243 -195 243 -195 274 -178 c 0,12,13
 305 -162 305 -162 320 -127 c 0,14,15
 337 -88 337 -88 341 -43 c 0,16,17
 345 -4 345 -4 342 42 c 1,0,1
374 437 m 128,-1,19
 375 429 375 429 369.5 422.5 c 128,-1,20
 364 416 364 416 356 416 c 2,21,-1
 347 415 l 2,22,23
 338 414 338 414 287 409 c 0,24,25
 240 404 240 404 181 380 c 0,26,27
 124 356 124 356 92 320 c 0,28,29
 64 288 64 288 75 242 c 0,30,31
 88 191 88 191 113 163 c 0,32,33
 137 137 137 137 178 133 c 0,34,35
 218 129 218 129 245 159 c 1,36,37
 277 192 277 192 294 249 c 0,38,39
 313 311 313 311 320.5 340 c 128,-1,40
 328 369 328 369 330 384 c 1,41,42
 332 390 332 390 333 392 c 0,43,44
 342 409 342 409 367 358 c 1,45,46
 362 328 362 328 363 264 c 0,47,48
 365 199 365 199 370 157 c 0,49,50
 373 139 373 139 375 118 c 1,51,52
 384 124 384 124 391 130 c 2,53,-1
 440 165 l 2,54,55
 446 170 446 170 454.5 169 c 128,-1,56
 463 168 463 168 468 161.5 c 128,-1,57
 473 155 473 155 471.5 146.5 c 128,-1,58
 470 138 470 138 464 133 c 2,59,-1
 415 98 l 2,60,61
 400 87 400 87 381 72 c 1,62,63
 381 72 381 72 380.5 71.5 c 128,-1,64
 380 71 380 71 380 71 c 1,65,66
 380 65 380 65 381 59 c 0,67,68
 386 3 386 3 381 -47 c 0,69,70
 376 -98 376 -98 357 -143 c 0,71,72
 336 -191 336 -191 293 -213 c 1,73,74
 251 -236 251 -236 210 -233 c 0,75,76
 169 -229 169 -229 141 -209 c 0,77,78
 111 -187 111 -187 107 -164 c 0,79,80
 105 -150 105 -150 111.5 -134.5 c 128,-1,81
 118 -119 118 -119 134 -93 c 0,82,83
 162 -48 162 -48 253 24 c 0,84,85
 301 61 301 61 337 89 c 1,86,-1
 338 89 l 1,87,88
 337 91 337 91 337 91 c 1,89,90
 334 125 334 125 331 153 c 1,91,92
 327 180 327 180 325 217 c 1,93,94
 306 165 306 165 274 131 c 0,95,96
 233 88 233 88 175 93 c 1,97,98
 118 99 118 99 84 136 c 0,99,100
 51 172 51 172 36 233 c 0,101,102
 20 299 20 299 62 346 c 0,103,104
 100 389 100 389 165 417 c 0,105,106
 230 444 230 444 283 449 c 0,107,108
 334 454 334 454 343 455 c 1,109,-1
 352 455 l 1,110,111
 360 456 360 456 366.5 450.5 c 128,-1,18
 373 445 373 445 374 437 c 128,-1,19
EndSplineSet
EndChar

StartChar: h
Encoding: 104 104 64
Width: 439
Flags: W
LayerCount: 2
Fore
SplineSet
71 704.5 m 128,-1,1
 79 702 79 702 83 694.5 c 128,-1,2
 87 687 87 687 84 680 c 2,3,-1
 81 671 l 2,4,5
 79 664 79 664 75 637 c 1,6,7
 72 609 72 609 72 560 c 0,8,9
 72 510 72 510 74 459 c 0,10,11
 76 407 76 407 79 346 c 0,12,13
 81 309 81 309 82 270 c 1,14,15
 97 312 97 312 114 344 c 0,16,17
 135 382 135 382 152 405 c 0,18,19
 171 429 171 429 189 440 c 0,20,21
 209 453 209 453 224 453 c 0,22,23
 241 453 241 453 263 433 c 0,24,25
 282 416 282 416 301 378 c 0,26,27
 319 341 319 341 326 297 c 0,28,29
 333 256 333 256 338 217 c 0,30,31
 343 180 343 180 349.5 146 c 128,-1,32
 356 112 356 112 363 83 c 0,33,34
 370 57 370 57 373 45 c 0,35,36
 374 44 374 44 377 44 c 2,37,-1
 392 40 l 2,38,39
 400 37 400 37 404 30 c 128,-1,40
 408 23 408 23 406 15 c 128,-1,41
 404 7 404 7 397 3 c 128,-1,42
 390 -1 390 -1 382 1 c 2,43,-1
 367 5 l 2,44,45
 339 12 339 12 334 34 c 0,46,47
 332 45 332 45 324 74 c 0,48,49
 317 103 317 103 310 138 c 128,-1,50
 303 173 303 173 298 212 c 0,51,52
 293 250 293 250 286 291 c 0,53,54
 280 329 280 329 265 361 c 0,55,56
 250 392 250 392 236 404 c 0,57,58
 228 411 228 411 223 413 c 1,59,60
 219 412 219 412 211 407 c 0,61,62
 198 399 198 399 184 380 c 0,63,64
 168 360 168 360 149.5 325 c 128,-1,65
 131 290 131 290 115 243 c 0,66,67
 105 211 105 211 99 175 c 0,68,69
 97 160 97 160 95 143 c 0,70,71
 92 113 92 113 92 97 c 1,72,73
 98 90 98 90 98 81 c 1,74,-1
 97 74 l 2,75,76
 97 69 97 69 99 57 c 0,77,78
 101 42 101 42 101 32 c 2,79,-1
 101 22 l 1,80,81
 102 14 102 14 96 8 c 128,-1,82
 90 2 90 2 82 1.5 c 128,-1,83
 74 1 74 1 68 7 c 128,-1,84
 62 13 62 13 61 21 c 1,85,-1
 61 30 l 2,86,87
 61 39 61 39 59 51.5 c 128,-1,88
 57 64 57 64 57 72 c 1,89,90
 54 73 54 73 53 77 c 0,91,92
 52 80 52 80 51 84 c 0,93,94
 51 86 51 86 51 89 c 0,95,96
 47 108 47 108 45 135 c 0,97,98
 44 148 44 148 44 169 c 0,99,100
 43 192 43 192 43 223 c 0,101,102
 42 284 42 284 39 343 c 0,103,104
 36 406 36 406 34 457 c 0,105,106
 32 509 32 509 32 560 c 0,107,108
 32 612 32 612 36 642 c 256,109,110
 40 672 40 672 43 683 c 2,111,-1
 46 692 l 2,112,113
 48 700 48 700 55.5 703.5 c 128,-1,0
 63 707 63 707 71 704.5 c 128,-1,1
EndSplineSet
EndChar

StartChar: i
Encoding: 105 105 65
Width: 268
Flags: W
LayerCount: 2
Fore
SplineSet
38 647 m 128,-1,1
 44 653 44 653 52.5 653 c 128,-1,2
 61 653 61 653 66 647 c 2,3,-1
 69 644 l 2,4,5
 75 638 75 638 75 629.5 c 128,-1,6
 75 621 75 621 69.5 615.5 c 128,-1,7
 64 610 64 610 55.5 610 c 128,-1,8
 47 610 47 610 41 615 c 2,9,-1
 38 618 l 2,10,11
 32 624 32 624 32 632.5 c 128,-1,0
 32 641 32 641 38 647 c 128,-1,1
52.5 444.5 m 128,-1,13
 60 448 60 448 68 445.5 c 128,-1,14
 76 443 76 443 80 435 c 2,15,-1
 88 418 l 2,16,17
 99 395 99 395 93 346 c 0,18,19
 88 303 88 303 80 262 c 0,20,21
 72 224 72 224 72 193 c 0,22,23
 72 161 72 161 74 141 c 1,24,25
 77 122 77 122 82 105 c 0,26,27
 86 91 86 91 95.5 82.5 c 128,-1,28
 105 74 105 74 114 71 c 1,29,30
 120 71 120 71 137 82 c 0,31,32
 159 96 159 96 172 121 c 0,33,34
 188 151 188 151 193 162 c 2,35,-1
 198 173 l 2,36,37
 202 181 202 181 210 183.5 c 128,-1,38
 218 186 218 186 225 183 c 128,-1,39
 232 180 232 180 235 172 c 128,-1,40
 238 164 238 164 235 157 c 2,41,-1
 230 145 l 2,42,43
 224 133 224 133 208 102 c 1,44,45
 189 68 189 68 159 48 c 0,46,47
 126 27 126 27 104 33 c 0,48,49
 86 37 86 37 69 53 c 0,50,51
 51 69 51 69 44 93 c 0,52,53
 37 114 37 114 35 137 c 1,54,55
 32 159 32 159 32 193 c 256,56,57
 32 227 32 227 40 270 c 1,58,59
 49 309 49 309 54 351 c 0,60,61
 58 388 58 388 52 400 c 2,62,-1
 44 418 l 2,63,64
 40 425 40 425 42.5 433 c 128,-1,12
 45 441 45 441 52.5 444.5 c 128,-1,13
EndSplineSet
EndChar

StartChar: j
Encoding: 106 106 66
Width: 308
Flags: W
LayerCount: 2
Fore
SplineSet
221 640 m 0,0,1
 220 648 220 648 225 654.5 c 128,-1,2
 230 661 230 661 238 662 c 2,3,-1
 246 663 l 2,4,5
 257 664 257 664 266 656 c 128,-1,6
 275 648 275 648 276 637 c 0,7,8
 277 622 277 622 264 603 c 2,9,-1
 255 590 l 2,10,11
 251 583 251 583 242.5 581 c 128,-1,12
 234 579 234 579 227.5 584 c 128,-1,13
 221 589 221 589 219 597 c 128,-1,14
 217 605 217 605 222 612 c 2,15,-1
 231 625 l 1,16,17
 222 630 222 630 221 640 c 0,0,1
245 456.5 m 128,-1,19
 253 457 253 457 259.5 451.5 c 128,-1,20
 266 446 266 446 266 438 c 2,21,-1
 267 429 l 2,22,23
 268 421 268 421 270 389 c 0,24,25
 273 357 273 357 274 289 c 0,26,27
 274 223 274 223 274 179.5 c 128,-1,28
 274 136 274 136 273 93 c 0,29,30
 272 51 272 51 269 14 c 0,31,32
 266 -24 266 -24 255 -59 c 0,33,34
 244 -95 244 -95 233 -112 c 0,35,36
 220 -131 220 -131 194 -148 c 0,37,38
 169 -164 169 -164 141 -170 c 0,39,40
 112 -176 112 -176 76 -163 c 2,41,-1
 45 -151 l 1,42,43
 37 -149 37 -149 33.5 -141 c 128,-1,44
 30 -133 30 -133 33 -125.5 c 128,-1,45
 36 -118 36 -118 43.5 -114.5 c 128,-1,46
 51 -111 51 -111 59 -114 c 2,47,-1
 90 -125 l 1,48,49
 115 -135 115 -135 133 -131 c 0,50,51
 153 -126 153 -126 173 -114 c 0,52,53
 192 -102 192 -102 199 -90 c 1,54,55
 208 -77 208 -77 217 -47 c 0,56,57
 227 -17 227 -17 229 17 c 0,58,59
 232 53 232 53 233 94 c 0,60,61
 234 136 234 136 234 179 c 0,62,63
 234 223 234 223 234 289 c 256,64,65
 234 355 234 355 231 386 c 256,66,67
 228 417 228 417 227 426 c 2,68,-1
 226 435 l 2,69,70
 226 443 226 443 231.5 449.5 c 128,-1,18
 237 456 237 456 245 456.5 c 128,-1,19
EndSplineSet
EndChar

StartChar: k
Encoding: 107 107 67
Width: 526
Flags: W
LayerCount: 2
Fore
SplineSet
133 288 m 1,0,1
 146 293 146 293 163 301 c 0,2,3
 192 315 192 315 217 342 c 0,4,5
 241 368 241 368 242 381 c 0,6,7
 243 390 243 390 238 395 c 1,8,9
 231 400 231 400 224 398 c 0,10,11
 212 396 212 396 196 383 c 1,12,13
 179 367 179 367 163 342.5 c 128,-1,14
 147 318 147 318 133 288 c 1,0,1
84 276 m 1,15,16
 89 290 89 290 95 303 c 0,17,18
 111 336 111 336 129 365 c 0,19,20
 148 394 148 394 170 413 c 0,21,22
 194 433 194 433 216 438 c 0,23,24
 242 443 242 443 263 426 c 0,25,26
 285 408 285 408 282 377 c 0,27,28
 279 350 279 350 246 315 c 0,29,30
 216 282 216 282 180 265 c 0,31,32
 148 250 148 250 127 244 c 1,33,34
 150 222 150 222 181 189 c 1,35,36
 214 152 214 152 242 114 c 0,37,38
 268 78 268 78 283 63 c 0,39,40
 295 50 295 50 314 42 c 0,41,42
 328 37 328 37 344 46 c 0,43,44
 364 58 364 58 377 81 c 0,45,46
 393 108 393 108 405 136 c 256,47,48
 417 164 417 164 429 198 c 256,49,50
 441 232 441 232 449 250 c 2,51,-1
 456 268 l 2,52,53
 459 276 459 276 466.5 279 c 128,-1,54
 474 282 474 282 481.5 279 c 128,-1,55
 489 276 489 276 492.5 268.5 c 128,-1,56
 496 261 496 261 493 253 c 2,57,-1
 486 235 l 2,58,59
 479 217 479 217 466 183 c 0,60,61
 454 149 454 149 441 120 c 0,62,63
 428 90 428 90 412 61 c 1,64,65
 393 29 393 29 365 12 c 0,66,67
 332 -8 332 -8 300 5 c 0,68,69
 272 16 272 16 254 35 c 0,70,71
 237 52 237 52 210 90 c 0,72,73
 183 127 183 127 151 162 c 0,74,75
 127 188 127 188 107 208 c 1,76,77
 101 176 101 176 94 136 c 1,78,79
 87 88 87 88 85 56 c 0,80,81
 85 44 85 44 62 30 c 0,82,83
 44 19 44 19 44 30 c 0,84,85
 44 35 44 35 42 52 c 0,86,87
 40 71 40 71 39 98 c 128,-1,88
 38 125 38 125 38 161 c 256,89,90
 38 197 38 197 37.5 236.5 c 128,-1,91
 37 276 37 276 37 317 c 1,92,93
 36 357 36 357 34 406 c 0,94,95
 31 456 31 456 32 500 c 1,96,97
 34 543 34 543 40 582 c 256,98,99
 46 621 46 621 54 645 c 2,100,-1
 62 668 l 2,101,102
 64 675 64 675 71.5 679 c 128,-1,103
 79 683 79 683 87 680 c 128,-1,104
 95 677 95 677 98.5 669.5 c 128,-1,105
 102 662 102 662 100 655 c 2,106,-1
 92 632 l 2,107,108
 85 612 85 612 79 576 c 0,109,110
 74 540 74 540 72 498 c 0,111,112
 71 457 71 457 74 408 c 1,113,114
 76 358 76 358 77 317 c 0,115,116
 77 298 77 298 77 272 c 1,117,118
 80 275 80 275 84 276 c 1,15,16
EndSplineSet
EndChar

StartChar: l
Encoding: 108 108 68
Width: 219
Flags: W
LayerCount: 2
Fore
SplineSet
63.5 690 m 128,-1,1
 72 689 72 689 77 682.5 c 128,-1,2
 82 676 82 676 81 668 c 2,3,-1
 80 651 l 1,4,5
 78 635 78 635 76 586.5 c 128,-1,6
 74 538 74 538 74 485 c 0,7,8
 75 430 75 430 74.5 373.5 c 128,-1,9
 74 317 74 317 73 265 c 1,10,11
 71 214 71 214 74 184 c 0,12,13
 78 152 78 152 82 129 c 0,14,15
 85 109 85 109 89 99 c 1,16,17
 95 88 95 88 103 77 c 0,18,19
 105 75 105 75 110 77 c 0,20,21
 124 80 124 80 137 92 c 2,22,-1
 155 107 l 2,23,24
 161 113 161 113 169 112 c 128,-1,25
 177 111 177 111 182.5 105 c 128,-1,26
 188 99 188 99 187.5 91 c 128,-1,27
 187 83 187 83 181 77 c 2,28,-1
 164 62 l 2,29,30
 143 43 143 43 120 38 c 0,31,32
 89 30 89 30 71 53 c 0,33,34
 61 67 61 67 54 81 c 0,35,36
 46 97 46 97 42 123 c 0,37,38
 38 146 38 146 35 179 c 0,39,40
 31 213 31 213 33 266 c 0,41,42
 34 317 34 317 35 374 c 0,43,44
 35 431 35 431 34 484 c 1,45,46
 34 539 34 539 36 588.5 c 128,-1,47
 38 638 38 638 40 655 c 2,48,-1
 42 672 l 2,49,50
 42 680 42 680 48.5 685.5 c 128,-1,0
 55 691 55 691 63.5 690 c 128,-1,1
EndSplineSet
EndChar

StartChar: m
Encoding: 109 109 69
Width: 683
Flags: W
LayerCount: 2
Fore
SplineSet
66 34.5 m 128,-1,1
 58 33 58 33 51 38 c 128,-1,2
 44 43 44 43 42 51 c 2,3,-1
 37 78 l 2,4,5
 32 107 32 107 32 152 c 256,6,7
 32 197 32 197 36 248 c 256,8,9
 40 299 40 299 56 353 c 0,10,11
 72 408 72 408 99 444 c 0,12,13
 127 482 127 482 166 497 c 0,14,15
 208 513 208 513 250 495 c 0,16,17
 290 477 290 477 309 445 c 0,18,19
 326 417 326 417 335 381 c 0,20,21
 344 346 344 346 348 303 c 0,22,23
 350 279 350 279 352 258 c 1,24,25
 362 294 362 294 375 327 c 1,26,27
 390 362 390 362 407 392 c 256,28,29
 424 422 424 422 444 443 c 0,30,31
 464 465 464 465 491 477 c 0,32,33
 522 491 522 491 549 477 c 1,34,35
 573 466 573 466 593 439 c 0,36,37
 611 414 611 414 622 384 c 0,38,39
 633 353 633 353 639 305 c 0,40,41
 644 257 644 257 644 225 c 256,42,43
 644 193 644 193 643 169 c 0,44,45
 643 145 643 145 643 128 c 0,46,47
 643 112 643 112 643 97 c 0,48,49
 644 82 644 82 645 70 c 0,50,51
 647 56 647 56 648 45 c 0,52,53
 650 34 650 34 650 25 c 2,54,-1
 651 15 l 2,55,56
 652 7 652 7 646.5 0.5 c 128,-1,57
 641 -6 641 -6 633 -6.5 c 128,-1,58
 625 -7 625 -7 618.5 -1.5 c 128,-1,59
 612 4 612 4 611 12 c 1,60,-1
 611 21 l 1,61,62
 610 30 610 30 609 40 c 0,63,64
 607 50 607 50 606 65 c 0,65,66
 604 80 604 80 603 95 c 1,67,68
 603 111 603 111 603 128.5 c 128,-1,69
 603 146 603 146 603 170 c 1,70,71
 604 193 604 193 604 225 c 0,72,73
 604 255 604 255 599 300 c 0,74,75
 594 344 594 344 585 370 c 0,76,77
 576 395 576 395 561 415 c 0,78,79
 547 434 547 434 532 441 c 0,80,81
 521 447 521 447 507 440 c 1,82,83
 488 432 488 432 473 416 c 0,84,85
 457 399 457 399 442 372 c 0,86,87
 426 345 426 345 412.5 311.5 c 128,-1,88
 399 278 399 278 389 241.5 c 128,-1,89
 379 205 379 205 371.5 154 c 128,-1,90
 364 103 364 103 363 83 c 0,91,92
 363 78 363 78 352.5 72.5 c 128,-1,93
 342 67 342 67 333 66.5 c 128,-1,94
 324 66 324 66 323 71 c 1,95,96
 323 80 323 80 321 107 c 0,97,98
 318 136 318 136 317 164 c 0,99,100
 315 192 315 192 314 225 c 1,101,102
 312 257 312 257 308 299 c 0,103,104
 304 340 304 340 296 371 c 0,105,106
 288 401 288 401 274 425 c 0,107,108
 262 446 262 446 233 458 c 1,109,110
 207 470 207 470 181 460 c 0,111,112
 152 449 152 449 131 420 c 0,113,114
 109 390 109 390 94 341 c 0,115,116
 80 292 80 292 76 245 c 0,117,118
 72 195 72 195 72 152 c 0,119,120
 72 110 72 110 77 85 c 2,121,-1
 82 58 l 2,122,123
 83 50 83 50 78.5 43 c 128,-1,0
 74 36 74 36 66 34.5 c 128,-1,1
EndSplineSet
EndChar

StartChar: n
Encoding: 110 110 70
Width: 485
Flags: W
LayerCount: 2
Fore
SplineSet
42 348 m 1,0,1
 40 359 40 359 41 364 c 256,2,3
 42 369 42 369 43 377 c 0,4,5
 43 383 43 383 43 386 c 0,6,7
 43 395 43 395 44 402 c 1,8,9
 43 410 43 410 43 420 c 0,10,11
 43 427 43 427 43 433 c 0,12,13
 42 450 42 450 42 460 c 0,14,15
 42 463 42 463 52 468.5 c 128,-1,16
 62 474 62 474 71 475 c 128,-1,17
 80 476 80 476 83 467 c 1,18,19
 84 458 84 458 84 450 c 0,20,21
 84 445 84 445 84 423 c 2,22,-1
 84 418 l 1,23,24
 86 420 86 420 86 421 c 0,25,26
 108 445 108 445 128 459 c 0,27,28
 149 474 149 474 168 481 c 0,29,30
 189 488 189 488 209 485 c 0,31,32
 226 482 226 482 241 476 c 0,33,34
 256 469 256 469 273 454.5 c 128,-1,35
 290 440 290 440 303 420 c 128,-1,36
 316 400 316 400 323 370 c 0,37,38
 330 341 330 341 333 316 c 0,39,40
 336 292 336 292 340 269 c 1,41,42
 343 244 343 244 344 210 c 0,43,44
 345 178 345 178 346 153 c 0,45,46
 347 129 347 129 349 110 c 0,47,48
 352 91 352 91 355 78 c 0,49,50
 359 65 359 65 363 56 c 0,51,52
 365 53 365 53 374 48 c 1,53,54
 386 43 386 43 406 46 c 2,55,-1
 431 51 l 2,56,57
 439 52 439 52 445.5 47 c 128,-1,58
 452 42 452 42 453.5 34 c 128,-1,59
 455 26 455 26 450 19 c 128,-1,60
 445 12 445 12 437 11 c 2,61,-1
 412 7 l 2,62,63
 381 2 381 2 358 12 c 0,64,65
 334 22 334 22 327 39 c 0,66,67
 321 51 321 51 317 67 c 0,68,69
 312 83 312 83 310 105 c 1,70,71
 307 125 307 125 306 151 c 0,72,73
 305 176 305 176 304 209 c 0,74,75
 303 241 303 241 300 263 c 0,76,77
 296 286 296 286 293 311 c 0,78,79
 290 334 290 334 284 361 c 0,80,81
 279 384 279 384 269 399 c 0,82,83
 260 414 260 414 247.5 424.5 c 128,-1,84
 235 435 235 435 225 439 c 0,85,86
 214 444 214 444 202 446 c 0,87,88
 193 447 193 447 181 443 c 0,89,90
 168 438 168 438 151 427 c 1,91,92
 135 415 135 415 116 394 c 256,93,94
 97 373 97 373 87 358 c 0,95,96
 85 355 85 355 82 352 c 1,97,98
 81 317 81 317 82 276 c 1,99,100
 82 226 82 226 82 178 c 0,101,102
 81 130 81 130 78 97 c 128,-1,103
 75 64 75 64 73 49 c 2,104,-1
 72 34 l 2,105,106
 71 26 71 26 64.5 20.5 c 128,-1,107
 58 15 58 15 50 16 c 128,-1,108
 42 17 42 17 36.5 23.5 c 128,-1,109
 31 30 31 30 32 38 c 2,110,-1
 34 53 l 1,111,112
 35 71 35 71 38 101 c 0,113,114
 41 132 41 132 42 179 c 0,115,116
 42 226 42 226 42 276 c 1,117,118
 41 317 41 317 42 348 c 1,0,1
EndSplineSet
EndChar

StartChar: o
Encoding: 111 111 71
Width: 460
Flags: W
LayerCount: 2
Fore
SplineSet
171 437 m 1,0,1
 155 432 155 432 139 422 c 0,2,3
 101 400 101 400 86 369 c 0,4,5
 70 336 70 336 72 290 c 0,6,7
 74 243 74 243 95 200.5 c 128,-1,8
 116 158 116 158 160 122 c 0,9,10
 204 87 204 87 234 83 c 256,11,12
 264 79 264 79 308 101 c 256,13,14
 352 123 352 123 372 166 c 0,15,16
 393 210 393 210 387 248 c 1,17,18
 382 287 382 287 357 330 c 1,19,20
 332 371 332 371 267 401.5 c 128,-1,21
 202 432 202 432 189 435 c 1,22,-1
 175 436 l 2,23,24
 173 436 173 436 171 437 c 1,0,1
305 427 m 1,25,26
 365 394 365 394 391 350 c 0,27,28
 421 300 421 300 427 253 c 0,29,30
 434 204 434 204 408 149 c 1,31,32
 383 93 383 93 326 65 c 0,33,34
 271 38 271 38 229 43 c 0,35,36
 188 48 188 48 135 91 c 0,37,38
 84 133 84 133 59 183 c 128,-1,39
 34 233 34 233 32 288 c 0,40,41
 30 345 30 345 50 386 c 0,42,43
 71 428 71 428 119 456 c 0,44,45
 167 485 167 485 214 481 c 0,46,47
 229 480 229 480 241 479 c 0,48,49
 266 476 266 476 284 472 c 2,50,-1
 309 466 l 2,51,52
 317 465 317 465 321.5 458 c 128,-1,53
 326 451 326 451 324 443 c 0,54,55
 321 428 321 428 305 427 c 1,25,26
EndSplineSet
EndChar

StartChar: p
Encoding: 112 112 72
Width: 405
Flags: W
LayerCount: 2
Fore
SplineSet
76 392 m 1,0,-1
 77 393 l 1,1,2
 103 430 103 430 132 448 c 256,3,4
 161 466 161 466 195 470 c 1,5,6
 231 473 231 473 266 455 c 0,7,8
 300 437 300 437 325 402 c 0,9,10
 350 368 350 368 361 330 c 256,11,12
 372 292 372 292 373 249 c 0,13,14
 375 204 375 204 363 174 c 0,15,16
 350 142 350 142 323 118 c 0,17,18
 296 95 296 95 267.5 83.5 c 128,-1,19
 239 72 239 72 203 69 c 256,20,21
 167 66 167 66 144 69 c 256,22,23
 121 72 121 72 97 77 c 0,24,25
 96 77 96 77 94 77 c 1,26,27
 96 47 96 47 97 15 c 0,28,29
 99 -50 99 -50 100 -89 c 256,30,31
 101 -128 101 -128 101 -140 c 2,32,-1
 101 -151 l 2,33,34
 101 -159 101 -159 95.5 -165 c 128,-1,35
 90 -171 90 -171 81.5 -171 c 128,-1,36
 73 -171 73 -171 67 -165 c 128,-1,37
 61 -159 61 -159 61 -151 c 2,38,-1
 61 -140 l 2,39,40
 61 -129 61 -129 60 -90 c 0,41,42
 59 -50 59 -50 57 14 c 0,43,44
 56 51 56 51 54 86 c 1,45,-1
 47 88 l 2,46,47
 39 91 39 91 35 98 c 128,-1,48
 31 105 31 105 33 113 c 0,49,50
 37 127 37 127 52 128 c 1,51,52
 51 133 51 133 51 138 c 0,53,54
 47 198 47 198 48 263 c 0,55,56
 49 319 49 319 51 343 c 1,57,58
 49 351 49 351 53 359 c 1,59,60
 54 366 54 366 55 374 c 128,-1,61
 56 382 56 382 62 387 c 128,-1,62
 68 392 68 392 76 392 c 1,0,-1
92 118 m 1,63,64
 98 117 98 117 104 116 c 0,65,66
 127 111 127 111 148 109 c 1,67,68
 168 106 168 106 200 109 c 0,69,70
 230 111 230 111 252.5 120.5 c 128,-1,71
 275 130 275 130 296 148 c 256,72,73
 317 166 317 166 325 188 c 0,74,75
 334 211 334 211 333 247 c 0,76,77
 332 285 332 285 322 318 c 0,78,79
 313 351 313 351 293 379 c 0,80,81
 273 406 273 406 247 419 c 0,82,83
 223 432 223 432 199 430 c 0,84,85
 174 427 174 427 153 414 c 0,86,87
 131 400 131 400 110 370 c 2,88,-1
 92 344 l 1,89,90
 89 321 89 321 88 262 c 0,91,92
 87 199 87 199 91 141 c 0,93,94
 92 129 92 129 92 118 c 1,63,64
EndSplineSet
EndChar

StartChar: q
Encoding: 113 113 73
Width: 604
Flags: W
LayerCount: 2
Fore
SplineSet
387 375 m 0,0,1
 387 372 387 372 387 368 c 0,2,3
 388 358 388 358 388 318 c 2,4,-1
 388 107 l 2,5,6
 388 58 388 58 388 29 c 256,7,8
 388 0 388 0 391 -36 c 0,9,10
 393 -70 393 -70 399 -97 c 0,11,12
 405 -121 405 -121 409 -134 c 1,13,14
 420 -127 420 -127 436 -108 c 0,15,16
 463 -78 463 -78 499 -24 c 2,17,-1
 536 31 l 2,18,19
 541 38 541 38 549 39.5 c 128,-1,20
 557 41 557 41 564 36.5 c 128,-1,21
 571 32 571 32 572.5 24 c 128,-1,22
 574 16 574 16 570 9 c 2,23,-1
 533 -46 l 2,24,25
 495 -102 495 -102 466 -134 c 1,26,27
 434 -171 434 -171 415 -175 c 0,28,29
 401 -178 401 -178 389.5 -171 c 128,-1,30
 378 -164 378 -164 373 -151 c 0,31,32
 367 -136 367 -136 360 -106 c 256,33,34
 353 -76 353 -76 351 -38 c 1,35,36
 348 -2 348 -2 348 28 c 256,37,38
 348 58 348 58 348 107 c 2,39,-1
 348 269 l 1,40,41
 326 231 326 231 287 188 c 0,42,43
 238 134 238 134 206 124 c 0,44,45
 172 114 172 114 133 131 c 0,46,47
 95 147 95 147 68 185 c 0,48,49
 41 222 41 222 34 272 c 0,50,51
 27 324 27 324 47 364 c 1,52,53
 68 402 68 402 116 433 c 256,54,55
 164 464 164 464 225 462 c 1,56,57
 283 459 283 459 314 445 c 0,58,59
 346 431 346 431 365 409 c 1,60,-1
 382 391 l 2,61,62
 387 385 387 385 387 375 c 0,0,1
342 358 m 0,63,64
 344 368 344 368 345 372 c 1,65,-1
 335 383 l 2,66,67
 322 398 322 398 298 409 c 0,68,69
 273 420 273 420 223 422 c 0,70,71
 175 424 175 424 137 399 c 0,72,73
 98 374 98 374 83 345 c 0,74,75
 68 317 68 317 74 278 c 1,76,77
 79 237 79 237 100 208 c 256,78,79
 121 179 121 179 149 167 c 0,80,81
 175 156 175 156 195 162 c 0,82,83
 216 169 216 169 258 215 c 0,84,85
 301 263 301 263 319 302 c 256,86,87
 337 341 337 341 342 358 c 0,63,64
EndSplineSet
EndChar

StartChar: r
Encoding: 114 114 74
Width: 383
Flags: W
LayerCount: 2
Fore
SplineSet
53 293 m 128,-1,1
 45 293 45 293 39 298.5 c 128,-1,2
 33 304 33 304 33 312 c 2,3,-1
 32 330 l 1,4,5
 32 350 32 350 39 385 c 0,6,7
 47 421 47 421 57 435 c 0,8,9
 64 446 64 446 78 448.5 c 128,-1,10
 92 451 92 451 102 444 c 0,11,12
 119 434 119 434 144 388 c 0,13,14
 153 371 153 371 160 351 c 1,15,16
 162 357 162 357 164 362 c 0,17,18
 180 403 180 403 192 422 c 0,19,20
 207 444 207 444 233 456 c 0,21,22
 257 468 257 468 296 471 c 2,23,-1
 330 473 l 2,24,25
 339 473 339 473 345 467.5 c 128,-1,26
 351 462 351 462 351.5 454 c 128,-1,27
 352 446 352 446 346.5 439.5 c 128,-1,28
 341 433 341 433 333 433 c 2,29,-1
 298 431 l 2,30,31
 267 429 267 429 250 420 c 1,32,33
 234 413 234 413 226 400 c 0,34,35
 216 384 216 384 201 347 c 0,36,37
 191 322 191 322 184 297 c 0,38,39
 181 285 181 285 179 273 c 0,40,41
 178 269 178 269 177 265 c 1,42,43
 181 226 181 226 181 195 c 0,44,45
 181 155 181 155 183 128 c 0,46,47
 185 99 185 99 185 86 c 1,48,49
 186 85 186 85 186.5 84 c 128,-1,50
 187 83 187 83 187.5 79.5 c 128,-1,51
 188 76 188 76 187 73.5 c 128,-1,52
 186 71 186 71 181.5 68 c 128,-1,53
 177 65 177 65 170 63 c 0,54,55
 154 59 154 59 146 69 c 128,-1,56
 138 79 138 79 138 91 c 2,57,-1
 138 103 l 1,58,59
 130 139 130 139 131 190 c 0,60,61
 131 231 131 231 137 266 c 1,62,63
 136 275 136 275 135 284 c 256,64,65
 134 293 134 293 132 301 c 0,66,67
 125 338 125 338 108 369 c 0,68,69
 95 394 95 394 86 405 c 1,70,71
 82 394 82 394 78 376 c 0,72,73
 72 346 72 346 72 331 c 2,74,-1
 72 313 l 1,75,76
 73 305 73 305 67 299 c 128,-1,0
 61 293 61 293 53 293 c 128,-1,1
EndSplineSet
EndChar

StartChar: s
Encoding: 115 115 75
Width: 418
Flags: W
LayerCount: 2
Fore
SplineSet
376.5 404 m 128,-1,1
 374 396 374 396 366.5 392.5 c 128,-1,2
 359 389 359 389 351 391 c 2,3,-1
 344 393 l 2,4,5
 337 396 337 396 291 409 c 0,6,7
 249 421 249 421 217 416 c 0,8,9
 184 411 184 411 155 394 c 0,10,11
 129 378 129 378 122 361.5 c 128,-1,12
 115 345 115 345 124 311 c 0,13,14
 132 280 132 280 147 275 c 0,15,16
 169 269 169 269 204 273 c 0,17,18
 247 278 247 278 275 271 c 0,19,20
 304 263 304 263 336 233 c 256,21,22
 368 203 368 203 380 173 c 0,23,24
 392 141 392 141 381 110 c 0,25,26
 370 81 370 81 338 53 c 0,27,28
 307 26 307 26 257 8 c 0,29,30
 204 -11 204 -11 154 1 c 0,31,32
 105 13 105 13 76 41 c 1,33,34
 45 69 45 69 38 123 c 2,35,-1
 32 170 l 2,36,37
 31 178 31 178 36 184.5 c 128,-1,38
 41 191 41 191 49.5 192 c 128,-1,39
 58 193 58 193 64.5 188 c 128,-1,40
 71 183 71 183 72 175 c 2,41,-1
 78 128 l 2,42,43
 83 89 83 89 103 70 c 0,44,45
 125 49 125 49 164 40 c 0,46,47
 202 31 202 31 243 45 c 1,48,49
 286 61 286 61 312 83 c 0,50,51
 336 104 336 104 343 123 c 0,52,53
 349 140 349 140 342 159 c 0,54,55
 334 181 334 181 309 204 c 256,56,57
 284 227 284 227 265 232 c 0,58,59
 244 238 244 238 209 233 c 0,60,61
 166 228 166 228 135 237 c 1,62,63
 99 249 99 249 85 301 c 0,64,65
 73 349 73 349 85 377.5 c 128,-1,66
 97 406 97 406 135 428 c 0,67,68
 170 449 170 449 210 455 c 0,69,70
 251 462 251 462 302 447 c 0,71,72
 348 434 348 434 356 432 c 1,73,-1
 363 429 l 1,74,75
 371 427 371 427 375 419.5 c 128,-1,0
 379 412 379 412 376.5 404 c 128,-1,1
EndSplineSet
EndChar

StartChar: t
Encoding: 116 116 76
Width: 436
Flags: W
LayerCount: 2
Fore
SplineSet
32.5 428 m 128,-1,1
 31 436 31 436 35.5 443 c 128,-1,2
 40 450 40 450 48 452 c 2,3,-1
 114 466 l 2,4,5
 124 469 124 469 134 471 c 1,6,7
 134 510 134 510 134 527 c 0,8,9
 133 552 133 552 134 561 c 2,10,-1
 135 568 l 2,11,12
 136 576 136 576 142.5 581 c 128,-1,13
 149 586 149 586 157 585 c 128,-1,14
 165 584 165 584 170.5 577.5 c 128,-1,15
 176 571 176 571 175 563 c 2,16,-1
 174 556 l 2,17,18
 173 550 173 550 174 527 c 0,19,20
 174 512 174 512 174 479 c 1,21,22
 206 486 206 486 235 491 c 0,23,24
 289 501 289 501 307 505 c 2,25,-1
 325 508 l 2,26,27
 333 510 333 510 340 505.5 c 128,-1,28
 347 501 347 501 348.5 493 c 128,-1,29
 350 485 350 485 345 478 c 128,-1,30
 340 471 340 471 332 469 c 2,31,-1
 315 466 l 2,32,33
 297 462 297 462 242 452 c 0,34,35
 211 446 211 446 175 438 c 0,36,37
 175 437 175 437 175 434.5 c 128,-1,38
 175 432 175 432 175 431 c 0,39,40
 176 360 176 360 178 295 c 0,41,42
 181 230 181 230 188 173 c 1,43,44
 196 117 196 117 204 91 c 0,45,46
 211 69 211 69 228 54 c 0,47,48
 243 41 243 41 258 41 c 0,49,50
 276 42 276 42 301 58 c 1,51,52
 327 76 327 76 346 108 c 2,53,-1
 368 144 l 2,54,55
 372 151 372 151 380 153 c 128,-1,56
 388 155 388 155 395 151 c 128,-1,57
 402 147 402 147 404 139 c 128,-1,58
 406 131 406 131 402 124 c 2,59,-1
 380 87 l 2,60,61
 356 47 356 47 323 25 c 0,62,63
 289 2 289 2 259 1 c 0,64,65
 228 0 228 0 201 24 c 0,66,67
 176 47 176 47 166 79 c 0,68,69
 157 108 157 108 149 168 c 0,70,71
 141 227 141 227 138 293 c 0,72,73
 136 358 136 358 135 430 c 1,74,75
 129 429 129 429 123 427 c 2,76,-1
 56 413 l 2,77,78
 48 411 48 411 41 415.5 c 128,-1,0
 34 420 34 420 32.5 428 c 128,-1,1
EndSplineSet
EndChar

StartChar: u
Encoding: 117 117 77
Width: 547
Flags: W
LayerCount: 2
Fore
SplineSet
360 273 m 1,0,1
 361 243 361 243 365 213 c 1,2,3
 370 162 370 162 382 114 c 0,4,5
 394 68 394 68 404 54 c 0,6,7
 407 49 407 49 430 58 c 1,8,9
 465 70 465 70 474 75 c 2,10,-1
 485 82 l 2,11,12
 492 86 492 86 500 84.5 c 128,-1,13
 508 83 508 83 512.5 76 c 128,-1,14
 517 69 517 69 515 61 c 128,-1,15
 513 53 513 53 506 48 c 2,16,-1
 495 41 l 2,17,18
 483 33 483 33 443 20 c 1,19,20
 393 2 393 2 372 31 c 1,21,22
 357 50 357 50 344 104 c 0,23,24
 337 130 337 130 332 158 c 1,25,26
 330 154 330 154 329 151 c 0,27,28
 307 103 307 103 262 64 c 1,29,30
 212 23 212 23 176 27 c 0,31,32
 140 32 140 32 116 71 c 0,33,34
 95 104 95 104 78 148 c 0,35,36
 61 191 61 191 50 242 c 0,37,38
 38 294 38 294 38 350 c 0,39,40
 38 403 38 403 35 449 c 2,41,-1
 32 496 l 2,42,43
 32 504 32 504 37.5 510 c 128,-1,44
 43 516 43 516 51 516.5 c 128,-1,45
 59 517 59 517 65 511.5 c 128,-1,46
 71 506 71 506 72 498 c 2,47,-1
 75 452 l 2,48,49
 78 405 78 405 78 350 c 0,50,51
 78 298 78 298 89 251 c 0,52,53
 100 203 100 203 116 162 c 0,54,55
 131 122 131 122 150 92 c 0,56,57
 164 69 164 69 182 67 c 256,58,59
 200 65 200 65 236 95 c 0,60,61
 275 128 275 128 293 168 c 0,62,63
 305 195 305 195 312 224 c 0,64,65
 316 239 316 239 318 255 c 0,66,67
 319 265 319 265 320 275 c 1,68,69
 319 295 319 295 320 315 c 0,70,71
 321 367 321 367 324 401 c 0,72,73
 325 411 325 411 347 424 c 0,74,75
 368 436 368 436 367 420 c 0,76,77
 367 409 367 409 365 356 c 0,78,79
 364 314 364 314 360 273 c 1,0,1
EndSplineSet
EndChar

StartChar: v
Encoding: 118 118 78
Width: 463
Flags: W
LayerCount: 2
Fore
SplineSet
43.5 471.5 m 128,-1,1
 51 475 51 475 59 472 c 128,-1,2
 67 469 67 469 70 462 c 2,3,-1
 90 419 l 2,4,5
 110 376 110 376 140 307 c 256,6,7
 170 238 170 238 194.5 179 c 128,-1,8
 219 120 219 120 235 81 c 0,9,10
 238 74 238 74 241 69 c 1,11,12
 250 83 250 83 259 114 c 0,13,14
 272 162 272 162 286 222 c 0,15,16
 301 282 301 282 313 331 c 0,17,18
 326 381 326 381 335 412 c 0,19,20
 344 444 344 444 358 480 c 0,21,22
 372 517 372 517 384 536 c 2,23,-1
 395 552 l 2,24,25
 400 559 400 559 408 560.5 c 128,-1,26
 416 562 416 562 423 557.5 c 128,-1,27
 430 553 430 553 431.5 545 c 128,-1,28
 433 537 433 537 429 530 c 2,29,-1
 418 514 l 2,30,31
 408 499 408 499 395 466 c 0,32,33
 382 432 382 432 373 402 c 1,34,35
 365 371 365 371 352.5 321.5 c 128,-1,36
 340 272 340 272 325 212 c 256,37,38
 310 152 310 152 297 104 c 0,39,40
 283 50 283 50 262 32 c 1,41,42
 249 23 249 23 235.5 25.5 c 128,-1,43
 222 28 222 28 213 39 c 0,44,45
 205 48 205 48 198 66 c 0,46,47
 182 104 182 104 157.5 163 c 128,-1,48
 133 222 133 222 103 291 c 0,49,50
 74 360 74 360 54 402 c 2,51,-1
 34 445 l 2,52,53
 30 452 30 452 33 460 c 128,-1,0
 36 468 36 468 43.5 471.5 c 128,-1,1
EndSplineSet
EndChar

StartChar: w
Encoding: 119 119 79
Width: 627
Flags: W
LayerCount: 2
Fore
SplineSet
45.5 452.5 m 128,-1,1
 53 455 53 455 60.5 451.5 c 128,-1,2
 68 448 68 448 71 440 c 2,3,-1
 87 393 l 2,4,5
 104 346 104 346 127.5 287 c 128,-1,6
 151 228 151 228 173 178 c 0,7,8
 202 113 202 113 211 94 c 1,9,10
 226 148 226 148 241 214 c 0,11,12
 258 286 258 286 269 330 c 0,13,14
 280 373 280 373 282 391 c 1,15,16
 283 411 283 411 284 419 c 0,17,18
 289 461 289 461 332 412 c 0,19,20
 338 404 338 404 338 404 c 1,21,22
 354 374 354 374 374 319 c 1,23,24
 392 265 392 265 408 219 c 0,25,26
 423 174 423 174 433.5 147.5 c 128,-1,27
 444 121 444 121 452 105 c 0,28,29
 455 100 455 100 457 95 c 1,30,31
 457 97 457 97 458 98 c 0,32,33
 468 131 468 131 481 178 c 1,34,35
 493 226 493 226 511 289 c 0,36,37
 528 352 528 352 539 393 c 1,38,39
 549 435 549 435 552 455 c 2,40,-1
 556 476 l 2,41,42
 557 484 557 484 564 488.5 c 128,-1,43
 571 493 571 493 579 492 c 128,-1,44
 587 491 587 491 592 484 c 128,-1,45
 597 477 597 477 595 469 c 2,46,-1
 592 448 l 2,47,48
 588 426 588 426 577 384 c 1,49,50
 567 341 567 341 549 278 c 0,51,52
 532 215 532 215 519 168 c 1,53,54
 507 119 507 119 496.5 86 c 128,-1,55
 486 53 486 53 483 46 c 0,56,57
 478 32 478 32 462.5 31 c 128,-1,58
 447 30 447 30 441 39 c 1,59,60
 433 48 433 48 428 61 c 0,61,62
 424 70 424 70 416 87 c 0,63,64
 408 105 408 105 396.5 132.5 c 128,-1,65
 385 160 385 160 370 206 c 256,66,67
 355 252 355 252 336 305 c 0,68,69
 326 334 326 334 316 356 c 1,70,71
 313 341 313 341 308 320 c 0,72,73
 297 276 297 276 281 207 c 256,74,75
 265 138 265 138 250 83 c 0,76,77
 238 40 238 40 220 23 c 0,78,79
 205 9 205 9 194 33 c 0,80,81
 190 41 190 41 175 77 c 1,82,83
 159 112 159 112 137 162 c 256,84,85
 115 212 115 212 90.5 272 c 128,-1,86
 66 332 66 332 50 380 c 1,87,-1
 33 427 l 2,88,89
 30 435 30 435 34 442.5 c 128,-1,0
 38 450 38 450 45.5 452.5 c 128,-1,1
EndSplineSet
EndChar

StartChar: x
Encoding: 120 120 80
Width: 437
Flags: W
LayerCount: 2
Fore
SplineSet
40.5 443.5 m 128,-1,1
 47 448 47 448 55.5 446.5 c 128,-1,2
 64 445 64 445 68 439 c 2,3,-1
 77 426 l 2,4,5
 85 415 85 415 112 381 c 0,6,7
 140 347 140 347 181 293 c 0,8,9
 182 292 182 292 187 285 c 1,10,11
 201 311 201 311 219 342 c 0,12,13
 256 406 256 406 276 439 c 0,14,15
 297 473 297 473 306 484 c 2,16,-1
 314 493 l 2,17,18
 319 500 319 500 327.5 500.5 c 128,-1,19
 336 501 336 501 342 496 c 128,-1,20
 348 491 348 491 349 482.5 c 128,-1,21
 350 474 350 474 345 468 c 2,22,-1
 337 458 l 2,23,24
 330 450 330 450 311 418 c 0,25,26
 291 386 291 386 254 322 c 0,27,28
 231 282 231 282 213 251 c 1,29,30
 236 222 236 222 255 197 c 0,31,32
 288 154 288 154 317 111 c 0,33,34
 343 71 343 71 363 50 c 0,35,36
 384 28 384 28 391 22 c 2,37,-1
 399 15 l 2,38,39
 405 9 405 9 405.5 0.5 c 128,-1,40
 406 -8 406 -8 400.5 -14 c 128,-1,41
 395 -20 395 -20 386.5 -20.5 c 128,-1,42
 378 -21 378 -21 372 -15 c 2,43,-1
 365 -8 l 1,44,45
 356 -1 356 -1 334 23 c 0,46,47
 312 46 312 46 283 89 c 0,48,49
 256 130 256 130 223 172 c 0,50,51
 209 191 209 191 192 212 c 1,52,53
 170 171 170 171 140 121 c 0,54,55
 110 70 110 70 102 55 c 2,56,-1
 93 40 l 2,57,58
 89 33 89 33 81 30.5 c 128,-1,59
 73 28 73 28 66 32 c 128,-1,60
 59 36 59 36 56.5 44 c 128,-1,61
 54 52 54 52 58 59 c 2,62,-1
 67 74 l 1,63,64
 75 90 75 90 106 142 c 1,65,66
 137 192 137 192 159 234 c 0,67,68
 162 240 162 240 166 247 c 1,69,70
 158 257 158 257 149 269 c 0,71,72
 109 322 109 322 81 356 c 0,73,74
 52 391 52 391 44 404 c 1,75,-1
 35 416 l 1,76,77
 31 423 31 423 32.5 431 c 128,-1,0
 34 439 34 439 40.5 443.5 c 128,-1,1
EndSplineSet
EndChar

StartChar: y
Encoding: 121 121 81
Width: 459
Flags: W
LayerCount: 2
Fore
SplineSet
382 233 m 1,0,1
 377 212 377 212 374 192 c 0,2,3
 370 169 370 169 367 146 c 0,4,5
 359 84 359 84 350 19 c 0,6,7
 341 -49 341 -49 321 -91 c 1,8,9
 301 -136 301 -136 265 -158 c 1,10,11
 229 -178 229 -178 167 -176 c 0,12,13
 105 -173 105 -173 69 -142 c 2,14,-1
 39 -116 l 2,15,16
 33 -111 33 -111 32 -102.5 c 128,-1,17
 31 -94 31 -94 36.5 -88 c 128,-1,18
 42 -82 42 -82 50.5 -81 c 128,-1,19
 59 -80 59 -80 65 -86 c 2,20,-1
 95 -112 l 2,21,22
 120 -134 120 -134 169 -136 c 0,23,24
 219 -138 219 -138 244.5 -123 c 128,-1,25
 270 -108 270 -108 285 -75 c 0,26,27
 302 -37 302 -37 310 24 c 0,28,29
 319 88 319 88 328 152 c 1,30,31
 316 141 316 141 304 135 c 0,32,33
 254 106 254 106 224 139 c 0,34,35
 203 163 203 163 181 220 c 0,36,37
 160 274 160 274 139 339 c 0,38,39
 119 403 119 403 112 418 c 2,40,-1
 105 434 l 2,41,42
 101 441 101 441 104 449 c 128,-1,43
 107 457 107 457 114.5 460.5 c 128,-1,44
 122 464 122 464 129.5 461 c 128,-1,45
 137 458 137 458 141 450 c 2,46,-1
 148 434 l 2,47,48
 156 417 156 417 177 351 c 0,49,50
 198 287 198 287 218 234 c 0,51,52
 237 184 237 184 254 166 c 0,53,54
 262 157 262 157 285 169 c 1,55,56
 305 181 305 181 324 210 c 0,57,58
 333 223 333 223 341 240 c 0,59,60
 342 242 342 242 343 246 c 0,61,62
 347 262 347 262 351 278 c 0,63,64
 366 341 366 341 376 384 c 0,65,66
 376 385 376 385 376.5 387.5 c 128,-1,67
 377 390 377 390 378 396.5 c 128,-1,68
 379 403 379 403 380.5 408 c 128,-1,69
 382 413 382 413 385 419.5 c 128,-1,70
 388 426 388 426 392 428.5 c 128,-1,71
 396 431 396 431 402 432 c 128,-1,72
 408 433 408 433 416 428 c 0,73,74
 431 419 431 419 427 407 c 1,75,76
 428 387 428 387 417 335 c 0,77,78
 407 288 407 288 382 233 c 1,0,1
EndSplineSet
EndChar

StartChar: z
Encoding: 122 122 82
Width: 507
Flags: W
LayerCount: 2
Fore
SplineSet
33 389.5 m 128,-1,1
 30 397 30 397 33.5 404.5 c 128,-1,2
 37 412 37 412 45 415 c 2,3,-1
 92 433 l 2,4,5
 141 451 141 451 212 462.5 c 128,-1,6
 283 474 283 474 307 473 c 0,7,8
 324 473 324 473 332.5 461.5 c 128,-1,9
 341 450 341 450 340 435.5 c 128,-1,10
 339 421 339 421 337 408 c 1,11,12
 325 365 325 365 289 307 c 0,13,14
 255 251 255 251 220 198 c 1,15,16
 187 146 187 146 171 113 c 0,17,18
 156 81 156 81 154 69 c 0,19,20
 152 60 152 60 153 54 c 0,21,22
 154 52 154 52 160 49 c 0,23,24
 170 44 170 44 218 47 c 0,25,26
 274 50 274 50 310 60 c 0,27,28
 348 70 348 70 383 78 c 0,29,30
 420 87 420 87 436 89 c 2,31,-1
 452 91 l 2,32,33
 460 93 460 93 467 88 c 128,-1,34
 474 83 474 83 475 74.5 c 128,-1,35
 476 66 476 66 471 59.5 c 128,-1,36
 466 53 466 53 458 52 c 2,37,-1
 442 50 l 1,38,39
 427 47 427 47 393 39 c 0,40,41
 358 31 358 31 320 21 c 0,42,43
 280 11 280 11 221 7 c 0,44,45
 157 3 157 3 139 14 c 0,46,47
 119 27 119 27 114 44 c 1,48,49
 111 58 111 58 114 76 c 0,50,51
 117 93 117 93 135 130 c 0,52,53
 152 165 152 165 187 220 c 0,54,55
 221 273 221 273 255 328 c 0,56,57
 288 381 288 381 298 418 c 0,58,59
 300 427 300 427 301 433 c 1,60,61
 277 433 277 433 219 423 c 0,62,63
 152 412 152 412 106 395 c 2,64,-1
 59 378 l 2,65,66
 51 375 51 375 43.5 378.5 c 128,-1,0
 36 382 36 382 33 389.5 c 128,-1,1
EndSplineSet
EndChar

StartChar: quoteleft
Encoding: 8216 8216 83
Width: 124
Flags: W
LayerCount: 2
Fore
SplineSet
92.5 619 m 128,-1,1
 93 611 93 611 87.5 605 c 128,-1,2
 82 599 82 599 75 598 c 1,3,4
 72 587 72 587 72 536 c 2,5,-1
 72 482 l 1,6,7
 73 474 73 474 67 468 c 128,-1,8
 61 462 61 462 52.5 462 c 128,-1,9
 44 462 44 462 38.5 468 c 128,-1,10
 33 474 33 474 32 482 c 1,11,-1
 32 536 l 2,12,13
 32 592 32 592 36 609 c 0,14,15
 44 636 44 636 65 637 c 1,16,-1
 71 638 l 1,17,18
 80 638 80 638 86 632.5 c 128,-1,0
 92 627 92 627 92.5 619 c 128,-1,1
EndSplineSet
EndChar

StartChar: quoteright
Encoding: 8217 8217 84
Width: 107
Flags: W
LayerCount: 2
Fore
SplineSet
53.5 652 m 128,-1,1
 62 652 62 652 68 646 c 128,-1,2
 74 640 74 640 74 632 c 2,3,-1
 75 561 l 2,4,5
 76 490 76 490 74 477 c 2,6,-1
 72 468 l 2,7,8
 70 460 70 460 63 455 c 128,-1,9
 56 450 56 450 48 452 c 128,-1,10
 40 454 40 454 35.5 460.5 c 128,-1,11
 31 467 31 467 32 475 c 2,12,-1
 34 485 l 2,13,14
 36 495 36 495 35 561 c 2,15,-1
 34 631 l 2,16,17
 34 640 34 640 39.5 646 c 128,-1,0
 45 652 45 652 53.5 652 c 128,-1,1
EndSplineSet
EndChar

StartChar: quotedblleft
Encoding: 8220 8220 85
Width: 265
Flags: W
LayerCount: 2
Fore
SplineSet
231 616 m 128,-1,1
 235 609 235 609 232.5 601 c 128,-1,2
 230 593 230 593 223 589 c 2,3,-1
 217 586 l 1,4,5
 211 581 211 581 197 563 c 0,6,7
 182 544 182 544 177 513 c 2,8,-1
 171 477 l 2,9,10
 170 469 170 469 163.5 464 c 128,-1,11
 157 459 157 459 148.5 460 c 128,-1,12
 140 461 140 461 135.5 468 c 128,-1,13
 131 475 131 475 132 483 c 2,14,-1
 138 519 l 2,15,16
 144 560 144 560 165 588 c 1,17,18
 187 615 187 615 197 620 c 2,19,-1
 204 624 l 2,20,21
 211 628 211 628 219 625.5 c 128,-1,0
 227 623 227 623 231 616 c 128,-1,1
123.5 654 m 128,-1,23
 129 648 129 648 128.5 639.5 c 128,-1,24
 128 631 128 631 122 626 c 2,25,-1
 108 614 l 2,26,27
 98 605 98 605 84 573 c 0,28,29
 70 542 70 542 72 519 c 2,30,-1
 75 492 l 2,31,32
 76 483 76 483 71 476.5 c 128,-1,33
 66 470 66 470 57.5 469.5 c 128,-1,34
 49 469 49 469 42.5 474 c 128,-1,35
 36 479 36 479 36 487 c 2,36,-1
 33 515 l 2,37,38
 29 548 29 548 47 589 c 0,39,40
 65 629 65 629 82 644 c 2,41,-1
 95 656 l 1,42,43
 102 661 102 661 110 660.5 c 128,-1,22
 118 660 118 660 123.5 654 c 128,-1,23
EndSplineSet
EndChar

StartChar: quotedblright
Encoding: 8221 8221 86
Width: 239
Flags: W
LayerCount: 2
Fore
SplineSet
187 624 m 128,-1,1
 195 624 195 624 201 618 c 128,-1,2
 207 612 207 612 207 604 c 2,3,-1
 207 543 l 1,4,5
 208 478 208 478 200 458 c 2,6,-1
 194 442 l 2,7,8
 191 434 191 434 183 431 c 128,-1,9
 175 428 175 428 167.5 431 c 128,-1,10
 160 434 160 434 156.5 441.5 c 128,-1,11
 153 449 153 449 157 457 c 2,12,-1
 163 473 l 2,13,14
 168 485 168 485 167 543 c 1,15,-1
 167 604 l 2,16,17
 167 612 167 612 173 618 c 128,-1,0
 179 624 179 624 187 624 c 128,-1,1
45.5 631.5 m 128,-1,19
 48 639 48 639 55.5 643 c 128,-1,20
 63 647 63 647 71 644 c 2,21,-1
 82 641 l 1,22,23
 100 635 100 635 116 606 c 0,24,25
 134 574 134 574 99 509 c 2,26,-1
 70 454 l 2,27,28
 66 447 66 447 58 444.5 c 128,-1,29
 50 442 50 442 42.5 446 c 128,-1,30
 35 450 35 450 32.5 458 c 128,-1,31
 30 466 30 466 34 473 c 2,32,-1
 64 528 l 2,33,34
 73 545 73 545 77.5 559 c 128,-1,35
 82 573 82 573 81.5 578 c 128,-1,36
 81 583 81 583 81 586 c 1,37,38
 74 600 74 600 69 603 c 1,39,-1
 58 606 l 1,40,41
 51 609 51 609 47 616.5 c 128,-1,18
 43 624 43 624 45.5 631.5 c 128,-1,19
EndSplineSet
EndChar
